<svg width="348" height="219" viewBox="0 0 348 219" fill="none" xmlns="http://www.w3.org/2000/svg">
<rect width="348" height="219" rx="8" fill="#101116"/>
<rect width="348" height="219" rx="8" fill="#262835"/>
<path d="M249.56 15.08H249.74C249.847 15.08 249.96 15.06 250.08 15.02C250.2 14.98 250.333 14.9333 250.48 14.88C250.707 14.8 250.98 14.72 251.3 14.64C251.62 14.5467 252.013 14.5 252.48 14.5C253.013 14.5 253.487 14.58 253.9 14.74C254.327 14.8867 254.68 15.0933 254.96 15.36C255.253 15.6133 255.473 15.9133 255.62 16.26C255.78 16.6067 255.86 16.9667 255.86 17.34C255.86 17.86 255.7 18.36 255.38 18.84C255.073 19.32 254.593 19.7067 253.94 20C254.86 20.2667 255.547 20.6933 256 21.28C256.453 21.8667 256.68 22.5333 256.68 23.28C256.68 23.84 256.573 24.36 256.36 24.84C256.16 25.3067 255.86 25.72 255.46 26.08C255.073 26.4267 254.607 26.7 254.06 26.9C253.513 27.1 252.9 27.2 252.22 27.2C251.713 27.2 251.293 27.1533 250.96 27.06C250.627 26.9667 250.347 26.88 250.12 26.8C249.973 26.7467 249.84 26.7067 249.72 26.68C249.6 26.64 249.48 26.62 249.36 26.62H249.18V25.08H249.38C249.727 25.56 250.153 25.9267 250.66 26.18C251.18 26.42 251.713 26.54 252.26 26.54C252.74 26.54 253.173 26.46 253.56 26.3C253.947 26.1267 254.273 25.9 254.54 25.62C254.82 25.34 255.027 25.02 255.16 24.66C255.307 24.3 255.38 23.9267 255.38 23.54C255.38 23.14 255.3 22.7533 255.14 22.38C254.98 21.9933 254.753 21.6533 254.46 21.36C254.167 21.0667 253.807 20.8333 253.38 20.66C252.967 20.4867 252.493 20.4 251.96 20.4H251.04V19.74H252.06C252.473 19.74 252.833 19.6733 253.14 19.54C253.46 19.4067 253.727 19.2267 253.94 19C254.153 18.7733 254.313 18.52 254.42 18.24C254.527 17.96 254.58 17.6667 254.58 17.36C254.58 17.08 254.527 16.8067 254.42 16.54C254.327 16.2733 254.18 16.04 253.98 15.84C253.78 15.6267 253.533 15.4533 253.24 15.32C252.96 15.1867 252.633 15.12 252.26 15.12C251.807 15.12 251.353 15.2467 250.9 15.5C250.447 15.7533 250.067 16.1333 249.76 16.64H249.56V15.08ZM259.156 15.82H259.336C259.403 15.82 259.483 15.7867 259.576 15.72C259.683 15.6533 259.796 15.58 259.916 15.5C260.049 15.4067 260.203 15.3 260.376 15.18C260.563 15.06 260.769 14.9533 260.996 14.86C261.236 14.7533 261.503 14.6667 261.796 14.6C262.089 14.5333 262.416 14.5 262.776 14.5C263.229 14.5 263.669 14.5667 264.096 14.7C264.523 14.82 264.903 15.0133 265.236 15.28C265.569 15.5333 265.836 15.86 266.036 16.26C266.236 16.66 266.336 17.14 266.336 17.7C266.336 18.1667 266.256 18.5933 266.096 18.98C265.936 19.3667 265.716 19.7267 265.436 20.06C265.169 20.3933 264.863 20.7133 264.516 21.02C264.183 21.3133 263.836 21.6067 263.476 21.9C263.129 22.18 262.789 22.4667 262.456 22.76C262.136 23.0533 261.843 23.36 261.576 23.68C261.323 24 261.109 24.3467 260.936 24.72C260.763 25.08 260.663 25.4667 260.636 25.88H264.796C265.303 25.88 265.703 25.7933 265.996 25.62C266.289 25.4333 266.443 25.1333 266.456 24.72H266.636V27H259.236C259.236 26.4 259.336 25.8467 259.536 25.34C259.736 24.82 259.996 24.3467 260.316 23.92C260.636 23.48 260.989 23.0733 261.376 22.7C261.776 22.3267 262.169 21.9667 262.556 21.62C262.876 21.34 263.183 21.06 263.476 20.78C263.783 20.5 264.049 20.22 264.276 19.94C264.516 19.6467 264.703 19.3467 264.836 19.04C264.983 18.72 265.056 18.3867 265.056 18.04C265.056 17.6 264.976 17.2067 264.816 16.86C264.669 16.5133 264.469 16.22 264.216 15.98C263.976 15.74 263.696 15.56 263.376 15.44C263.056 15.3067 262.736 15.24 262.416 15.24C261.736 15.24 261.136 15.4467 260.616 15.86C260.096 16.26 259.676 16.78 259.356 17.42H259.156V15.82ZM277.59 23.74C277.59 24.3267 277.47 24.84 277.23 25.28C277.004 25.7067 276.69 26.0667 276.29 26.36C275.904 26.64 275.45 26.8533 274.93 27C274.41 27.1333 273.857 27.2 273.27 27.2C272.724 27.2 272.19 27.1333 271.67 27C271.15 26.8533 270.684 26.64 270.27 26.36C269.857 26.0667 269.524 25.7067 269.27 25.28C269.03 24.8533 268.91 24.3533 268.91 23.78C268.91 23.02 269.137 22.34 269.59 21.74C270.044 21.1267 270.764 20.6733 271.75 20.38C270.99 20.0333 270.43 19.6333 270.07 19.18C269.724 18.7133 269.55 18.1467 269.55 17.48C269.55 16.9867 269.65 16.56 269.85 16.2C270.064 15.8267 270.337 15.5133 270.67 15.26C271.017 15.0067 271.41 14.82 271.85 14.7C272.29 14.5667 272.737 14.5 273.19 14.5C273.644 14.5 274.09 14.5667 274.53 14.7C274.984 14.82 275.384 15.0067 275.73 15.26C276.077 15.5133 276.357 15.8333 276.57 16.22C276.797 16.5933 276.91 17.0333 276.91 17.54C276.91 18.14 276.71 18.7 276.31 19.22C275.91 19.74 275.39 20.1333 274.75 20.4C275.577 20.64 276.257 21.04 276.79 21.6C277.324 22.1467 277.59 22.86 277.59 23.74ZM275.75 17.84C275.75 17.44 275.664 17.0733 275.49 16.74C275.33 16.4067 275.117 16.1267 274.85 15.9C274.584 15.66 274.277 15.48 273.93 15.36C273.597 15.2267 273.257 15.16 272.91 15.16C272.644 15.16 272.384 15.2 272.13 15.28C271.877 15.36 271.65 15.48 271.45 15.64C271.25 15.8 271.084 16 270.95 16.24C270.83 16.48 270.77 16.76 270.77 17.08C270.77 17.44 270.857 17.7733 271.03 18.08C271.204 18.3867 271.43 18.66 271.71 18.9C272.004 19.14 272.33 19.3533 272.69 19.54C273.064 19.7133 273.437 19.86 273.81 19.98C274.41 19.74 274.884 19.44 275.23 19.08C275.577 18.72 275.75 18.3067 275.75 17.84ZM276.59 24.16C276.59 23.7867 276.49 23.4333 276.29 23.1C276.09 22.7667 275.81 22.4667 275.45 22.2C275.09 21.92 274.67 21.6733 274.19 21.46C273.724 21.2333 273.23 21.04 272.71 20.88C272.364 21 272.037 21.1467 271.73 21.32C271.424 21.4933 271.157 21.6933 270.93 21.92C270.704 22.1467 270.524 22.3933 270.39 22.66C270.257 22.9267 270.19 23.2133 270.19 23.52C270.19 23.92 270.284 24.3 270.47 24.66C270.657 25.02 270.904 25.34 271.21 25.62C271.517 25.8867 271.87 26.0933 272.27 26.24C272.67 26.3867 273.084 26.46 273.51 26.46C273.87 26.46 274.23 26.4067 274.59 26.3C274.964 26.18 275.29 26.0267 275.57 25.84C275.864 25.64 276.104 25.4 276.29 25.12C276.49 24.84 276.59 24.52 276.59 24.16ZM287.609 23.26C287.609 23.7267 287.516 24.2 287.329 24.68C287.156 25.1467 286.889 25.5667 286.529 25.94C286.169 26.3133 285.709 26.62 285.149 26.86C284.602 27.0867 283.962 27.2 283.229 27.2C282.869 27.2 282.516 27.16 282.169 27.08C281.822 27 281.496 26.92 281.189 26.84C280.962 26.7733 280.756 26.72 280.569 26.68C280.382 26.6267 280.216 26.6 280.069 26.6V25.02C280.416 25.4867 280.869 25.8533 281.429 26.12C282.002 26.3867 282.576 26.52 283.149 26.52C283.669 26.52 284.122 26.44 284.509 26.28C284.896 26.12 285.216 25.9067 285.469 25.64C285.736 25.36 285.929 25.0333 286.049 24.66C286.182 24.2733 286.249 23.86 286.249 23.42C286.249 22.8867 286.156 22.42 285.969 22.02C285.796 21.62 285.562 21.2867 285.269 21.02C284.976 20.74 284.636 20.5333 284.249 20.4C283.876 20.2667 283.496 20.2 283.109 20.2C282.682 20.2 282.216 20.3 281.709 20.5C281.202 20.6867 280.682 20.9867 280.149 21.4L282.709 14.7H287.709L287.309 15.82H283.129C282.902 16.42 282.656 17.04 282.389 17.68C282.136 18.32 281.896 18.9467 281.669 19.56C281.989 19.4133 282.289 19.3133 282.569 19.26C282.849 19.2067 283.149 19.18 283.469 19.18C284.002 19.18 284.516 19.2733 285.009 19.46C285.502 19.6467 285.942 19.9133 286.329 20.26C286.716 20.6067 287.022 21.0333 287.249 21.54C287.489 22.0467 287.609 22.62 287.609 23.26ZM293.338 27H292.398L296.698 15.82H291.478C291.318 15.82 291.151 15.8333 290.978 15.86C290.818 15.8733 290.665 15.92 290.518 16C290.385 16.0667 290.271 16.18 290.178 16.34C290.098 16.4867 290.058 16.6867 290.058 16.94H289.858V14.7H298.058L293.338 27ZM300.206 15.82H300.386C300.453 15.82 300.533 15.7867 300.626 15.72C300.733 15.6533 300.846 15.58 300.966 15.5C301.099 15.4067 301.253 15.3 301.426 15.18C301.613 15.06 301.819 14.9533 302.046 14.86C302.286 14.7533 302.553 14.6667 302.846 14.6C303.139 14.5333 303.466 14.5 303.826 14.5C304.279 14.5 304.719 14.5667 305.146 14.7C305.573 14.82 305.953 15.0133 306.286 15.28C306.619 15.5333 306.886 15.86 307.086 16.26C307.286 16.66 307.386 17.14 307.386 17.7C307.386 18.1667 307.306 18.5933 307.146 18.98C306.986 19.3667 306.766 19.7267 306.486 20.06C306.219 20.3933 305.913 20.7133 305.566 21.02C305.233 21.3133 304.886 21.6067 304.526 21.9C304.179 22.18 303.839 22.4667 303.506 22.76C303.186 23.0533 302.893 23.36 302.626 23.68C302.373 24 302.159 24.3467 301.986 24.72C301.813 25.08 301.713 25.4667 301.686 25.88H305.846C306.353 25.88 306.753 25.7933 307.046 25.62C307.339 25.4333 307.493 25.1333 307.506 24.72H307.686V27H300.286C300.286 26.4 300.386 25.8467 300.586 25.34C300.786 24.82 301.046 24.3467 301.366 23.92C301.686 23.48 302.039 23.0733 302.426 22.7C302.826 22.3267 303.219 21.9667 303.606 21.62C303.926 21.34 304.233 21.06 304.526 20.78C304.833 20.5 305.099 20.22 305.326 19.94C305.566 19.6467 305.753 19.3467 305.886 19.04C306.033 18.72 306.106 18.3867 306.106 18.04C306.106 17.6 306.026 17.2067 305.866 16.86C305.719 16.5133 305.519 16.22 305.266 15.98C305.026 15.74 304.746 15.56 304.426 15.44C304.106 15.3067 303.786 15.24 303.466 15.24C302.786 15.24 302.186 15.4467 301.666 15.86C301.146 16.26 300.726 16.78 300.406 17.42H300.206V15.82ZM314.48 22.28C314.96 22.28 315.38 22.2 315.74 22.04C316.1 21.8667 316.394 21.64 316.62 21.36C316.86 21.08 317.034 20.76 317.14 20.4C317.26 20.04 317.32 19.6667 317.32 19.28C317.32 18.8133 317.247 18.3467 317.1 17.88C316.967 17.4133 316.76 17 316.48 16.64C316.214 16.2667 315.88 15.9667 315.48 15.74C315.094 15.5 314.647 15.38 314.14 15.38C313.687 15.38 313.287 15.4733 312.94 15.66C312.607 15.8333 312.32 16.0733 312.08 16.38C311.854 16.6733 311.68 17.0133 311.56 17.4C311.454 17.7867 311.4 18.18 311.4 18.58C311.4 19.0333 311.467 19.48 311.6 19.92C311.747 20.36 311.947 20.76 312.2 21.12C312.467 21.4667 312.787 21.7467 313.16 21.96C313.547 22.1733 313.987 22.28 314.48 22.28ZM311.66 25.58C311.874 25.8467 312.127 26.06 312.42 26.22C312.727 26.38 313.014 26.4333 313.28 26.38C313.854 26.38 314.36 26.2467 314.8 25.98C315.24 25.7133 315.614 25.36 315.92 24.92C316.24 24.48 316.487 24.0067 316.66 23.5C316.847 22.98 316.974 22.5 317.04 22.06C316.654 22.4067 316.22 22.6467 315.74 22.78C315.274 22.9133 314.774 22.98 314.24 22.98C313.56 22.98 312.96 22.8667 312.44 22.64C311.934 22.4 311.507 22.0933 311.16 21.72C310.827 21.3333 310.574 20.8933 310.4 20.4C310.24 19.9067 310.16 19.4 310.16 18.88C310.16 18.36 310.247 17.8467 310.42 17.34C310.594 16.8333 310.854 16.3867 311.2 16C311.547 15.6 311.974 15.28 312.48 15.04C313 14.8 313.6 14.68 314.28 14.68C315.04 14.68 315.687 14.82 316.22 15.1C316.767 15.38 317.214 15.76 317.56 16.24C317.907 16.7067 318.16 17.2533 318.32 17.88C318.494 18.5067 318.58 19.16 318.58 19.84C318.58 20.72 318.487 21.6067 318.3 22.5C318.114 23.38 317.807 24.1733 317.38 24.88C316.967 25.5733 316.414 26.14 315.72 26.58C315.04 27.02 314.207 27.24 313.22 27.24C313.034 27.24 312.8 27.22 312.52 27.18C312.24 27.14 312.02 27.1067 311.86 27.08C311.767 27.0667 311.667 27.0533 311.56 27.04C311.467 27.0267 311.434 27.02 311.46 27.02V25.58H311.66ZM322.625 27V26.8C322.945 26.8 323.145 26.7067 323.225 26.52C323.318 26.32 323.365 26.0867 323.365 25.82V16.24C323.365 16.1067 323.298 16.04 323.165 16.04C323.111 16.04 323.038 16.06 322.945 16.1L320.665 16.82V16.1L325.325 14.48V15.02C325.111 15.1133 324.938 15.26 324.805 15.46C324.685 15.66 324.638 15.8933 324.665 16.16V25.74C324.665 26.02 324.711 26.2667 324.805 26.48C324.898 26.6933 325.111 26.8 325.445 26.8V27H322.625ZM336.128 23.26C336.128 23.7267 336.035 24.2 335.848 24.68C335.675 25.1467 335.408 25.5667 335.048 25.94C334.688 26.3133 334.228 26.62 333.668 26.86C333.122 27.0867 332.482 27.2 331.748 27.2C331.388 27.2 331.035 27.16 330.688 27.08C330.342 27 330.015 26.92 329.708 26.84C329.482 26.7733 329.275 26.72 329.088 26.68C328.902 26.6267 328.735 26.6 328.588 26.6V25.02C328.935 25.4867 329.388 25.8533 329.948 26.12C330.522 26.3867 331.095 26.52 331.668 26.52C332.188 26.52 332.642 26.44 333.028 26.28C333.415 26.12 333.735 25.9067 333.988 25.64C334.255 25.36 334.448 25.0333 334.568 24.66C334.702 24.2733 334.768 23.86 334.768 23.42C334.768 22.8867 334.675 22.42 334.488 22.02C334.315 21.62 334.082 21.2867 333.788 21.02C333.495 20.74 333.155 20.5333 332.768 20.4C332.395 20.2667 332.015 20.2 331.628 20.2C331.202 20.2 330.735 20.3 330.228 20.5C329.722 20.6867 329.202 20.9867 328.668 21.4L331.228 14.7H336.228L335.828 15.82H331.648C331.422 16.42 331.175 17.04 330.908 17.68C330.655 18.32 330.415 18.9467 330.188 19.56C330.508 19.4133 330.808 19.3133 331.088 19.26C331.368 19.2067 331.668 19.18 331.988 19.18C332.522 19.18 333.035 19.2733 333.528 19.46C334.022 19.6467 334.462 19.9133 334.848 20.26C335.235 20.6067 335.542 21.0333 335.768 21.54C336.008 22.0467 336.128 22.62 336.128 23.26Z" fill="white"/>
<path d="M10.56 192.08H10.74C10.8467 192.08 10.96 192.06 11.08 192.02C11.2 191.98 11.3333 191.933 11.48 191.88C11.7067 191.8 11.98 191.72 12.3 191.64C12.62 191.547 13.0133 191.5 13.48 191.5C14.0133 191.5 14.4867 191.58 14.9 191.74C15.3267 191.887 15.68 192.093 15.96 192.36C16.2533 192.613 16.4733 192.913 16.62 193.26C16.78 193.607 16.86 193.967 16.86 194.34C16.86 194.86 16.7 195.36 16.38 195.84C16.0733 196.32 15.5933 196.707 14.94 197C15.86 197.267 16.5467 197.693 17 198.28C17.4533 198.867 17.68 199.533 17.68 200.28C17.68 200.84 17.5733 201.36 17.36 201.84C17.16 202.307 16.86 202.72 16.46 203.08C16.0733 203.427 15.6067 203.7 15.06 203.9C14.5133 204.1 13.9 204.2 13.22 204.2C12.7133 204.2 12.2933 204.153 11.96 204.06C11.6267 203.967 11.3467 203.88 11.12 203.8C10.9733 203.747 10.84 203.707 10.72 203.68C10.6 203.64 10.48 203.62 10.36 203.62H10.18V202.08H10.38C10.7267 202.56 11.1533 202.927 11.66 203.18C12.18 203.42 12.7133 203.54 13.26 203.54C13.74 203.54 14.1733 203.46 14.56 203.3C14.9467 203.127 15.2733 202.9 15.54 202.62C15.82 202.34 16.0267 202.02 16.16 201.66C16.3067 201.3 16.38 200.927 16.38 200.54C16.38 200.14 16.3 199.753 16.14 199.38C15.98 198.993 15.7533 198.653 15.46 198.36C15.1667 198.067 14.8067 197.833 14.38 197.66C13.9667 197.487 13.4933 197.4 12.96 197.4H12.04V196.74H13.06C13.4733 196.74 13.8333 196.673 14.14 196.54C14.46 196.407 14.7267 196.227 14.94 196C15.1533 195.773 15.3133 195.52 15.42 195.24C15.5267 194.96 15.58 194.667 15.58 194.36C15.58 194.08 15.5267 193.807 15.42 193.54C15.3267 193.273 15.18 193.04 14.98 192.84C14.78 192.627 14.5333 192.453 14.24 192.32C13.96 192.187 13.6333 192.12 13.26 192.12C12.8067 192.12 12.3533 192.247 11.9 192.5C11.4467 192.753 11.0667 193.133 10.76 193.64H10.56V192.08ZM26.8314 197.8C26.8314 196.773 26.9581 195.867 27.2114 195.08C27.4781 194.293 27.8247 193.64 28.2514 193.12C28.6781 192.587 29.1581 192.187 29.6914 191.92C30.2381 191.64 30.7914 191.5 31.3514 191.5C31.9114 191.5 32.4647 191.64 33.0114 191.92C33.5581 192.187 34.0381 192.587 34.4514 193.12C34.8781 193.64 35.2181 194.293 35.4714 195.08C35.7381 195.867 35.8714 196.773 35.8714 197.8C35.8714 198.84 35.7381 199.76 35.4714 200.56C35.2181 201.347 34.8781 202.013 34.4514 202.56C34.0381 203.093 33.5581 203.5 33.0114 203.78C32.4647 204.06 31.9114 204.2 31.3514 204.2C30.7914 204.2 30.2381 204.06 29.6914 203.78C29.1581 203.5 28.6781 203.093 28.2514 202.56C27.8247 202.013 27.4781 201.347 27.2114 200.56C26.9581 199.76 26.8314 198.84 26.8314 197.8ZM34.6114 198.32C34.6114 197.36 34.5047 196.513 34.2914 195.78C34.0781 195.033 33.7981 194.413 33.4514 193.92C33.1181 193.413 32.7314 193.033 32.2914 192.78C31.8647 192.513 31.4247 192.38 30.9714 192.38C30.5181 192.38 30.1047 192.513 29.7314 192.78C29.3714 193.033 29.0647 193.373 28.8114 193.8C28.5581 194.227 28.3581 194.72 28.2114 195.28C28.0781 195.84 28.0114 196.427 28.0114 197.04C28.0114 197.773 28.0981 198.52 28.2714 199.28C28.4447 200.027 28.6914 200.707 29.0114 201.32C29.3314 201.92 29.7114 202.413 30.1514 202.8C30.6047 203.187 31.0981 203.38 31.6314 203.38C32.0181 203.38 32.3914 203.273 32.7514 203.06C33.1114 202.833 33.4247 202.507 33.6914 202.08C33.9714 201.653 34.1914 201.127 34.3514 200.5C34.5247 199.873 34.6114 199.147 34.6114 198.32ZM38.6955 197.8C38.6955 196.773 38.8221 195.867 39.0755 195.08C39.3421 194.293 39.6888 193.64 40.1155 193.12C40.5421 192.587 41.0221 192.187 41.5555 191.92C42.1021 191.64 42.6555 191.5 43.2155 191.5C43.7755 191.5 44.3288 191.64 44.8755 191.92C45.4221 192.187 45.9021 192.587 46.3155 193.12C46.7421 193.64 47.0821 194.293 47.3355 195.08C47.6021 195.867 47.7355 196.773 47.7355 197.8C47.7355 198.84 47.6021 199.76 47.3355 200.56C47.0821 201.347 46.7421 202.013 46.3155 202.56C45.9021 203.093 45.4221 203.5 44.8755 203.78C44.3288 204.06 43.7755 204.2 43.2155 204.2C42.6555 204.2 42.1021 204.06 41.5555 203.78C41.0221 203.5 40.5421 203.093 40.1155 202.56C39.6888 202.013 39.3421 201.347 39.0755 200.56C38.8221 199.76 38.6955 198.84 38.6955 197.8ZM46.4755 198.32C46.4755 197.36 46.3688 196.513 46.1555 195.78C45.9421 195.033 45.6621 194.413 45.3155 193.92C44.9821 193.413 44.5955 193.033 44.1555 192.78C43.7288 192.513 43.2888 192.38 42.8355 192.38C42.3821 192.38 41.9688 192.513 41.5955 192.78C41.2355 193.033 40.9288 193.373 40.6755 193.8C40.4221 194.227 40.2221 194.72 40.0755 195.28C39.9421 195.84 39.8755 196.427 39.8755 197.04C39.8755 197.773 39.9621 198.52 40.1355 199.28C40.3088 200.027 40.5555 200.707 40.8755 201.32C41.1955 201.92 41.5755 202.413 42.0155 202.8C42.4688 203.187 42.9621 203.38 43.4955 203.38C43.8821 203.38 44.2555 203.273 44.6155 203.06C44.9755 202.833 45.2888 202.507 45.5555 202.08C45.8355 201.653 46.0555 201.127 46.2155 200.5C46.3888 199.873 46.4755 199.147 46.4755 198.32ZM50.5595 197.8C50.5595 196.773 50.6862 195.867 50.9395 195.08C51.2062 194.293 51.5529 193.64 51.9795 193.12C52.4062 192.587 52.8862 192.187 53.4195 191.92C53.9662 191.64 54.5195 191.5 55.0795 191.5C55.6395 191.5 56.1929 191.64 56.7395 191.92C57.2862 192.187 57.7662 192.587 58.1795 193.12C58.6062 193.64 58.9462 194.293 59.1995 195.08C59.4662 195.867 59.5995 196.773 59.5995 197.8C59.5995 198.84 59.4662 199.76 59.1995 200.56C58.9462 201.347 58.6062 202.013 58.1795 202.56C57.7662 203.093 57.2862 203.5 56.7395 203.78C56.1929 204.06 55.6395 204.2 55.0795 204.2C54.5195 204.2 53.9662 204.06 53.4195 203.78C52.8862 203.5 52.4062 203.093 51.9795 202.56C51.5529 202.013 51.2062 201.347 50.9395 200.56C50.6862 199.76 50.5595 198.84 50.5595 197.8ZM58.3395 198.32C58.3395 197.36 58.2329 196.513 58.0195 195.78C57.8062 195.033 57.5262 194.413 57.1795 193.92C56.8462 193.413 56.4595 193.033 56.0195 192.78C55.5929 192.513 55.1529 192.38 54.6995 192.38C54.2462 192.38 53.8329 192.513 53.4595 192.78C53.0995 193.033 52.7929 193.373 52.5395 193.8C52.2862 194.227 52.0862 194.72 51.9395 195.28C51.8062 195.84 51.7395 196.427 51.7395 197.04C51.7395 197.773 51.8262 198.52 51.9995 199.28C52.1729 200.027 52.4195 200.707 52.7395 201.32C53.0595 201.92 53.4395 202.413 53.8795 202.8C54.3329 203.187 54.8262 203.38 55.3595 203.38C55.7462 203.38 56.1195 203.273 56.4795 203.06C56.8395 202.833 57.1529 202.507 57.4195 202.08C57.6995 201.653 57.9195 201.127 58.0795 200.5C58.2529 199.873 58.3395 199.147 58.3395 198.32Z" fill="white"/>
<path d="M77.5335 142.138H77.6785C77.8138 142.138 77.9395 142.08 78.0555 141.964C78.1715 141.848 78.2682 141.713 78.3455 141.558C78.4422 141.404 78.5098 141.239 78.5485 141.065C78.5872 140.872 78.6065 140.698 78.6065 140.543V125.115C78.6065 124.98 78.5872 124.825 78.5485 124.651C78.5098 124.477 78.4422 124.313 78.3455 124.158C78.2682 123.984 78.1618 123.849 78.0265 123.752C77.9105 123.636 77.7752 123.578 77.6205 123.578H77.4755V123.288H82.2315C84.0295 123.288 85.4312 123.685 86.4365 124.477C87.4612 125.27 87.9735 126.324 87.9735 127.638C87.9735 128.199 87.8768 128.702 87.6835 129.146C87.4902 129.591 87.2388 129.987 86.9295 130.335C86.6395 130.683 86.3205 130.983 85.9725 131.234C85.6245 131.466 85.2958 131.66 84.9865 131.814C85.7985 131.969 86.4752 132.23 87.0165 132.597C87.5578 132.965 87.9928 133.39 88.3215 133.873C88.6695 134.337 88.9112 134.84 89.0465 135.381C89.1818 135.923 89.2495 136.454 89.2495 136.976C89.2495 137.982 89.0658 138.832 88.6985 139.528C88.3312 140.205 87.8382 140.766 87.2195 141.21C86.6202 141.636 85.9242 141.945 85.1315 142.138C84.3582 142.332 83.5558 142.428 82.7245 142.428H77.5335V142.138ZM87.2775 137.15C87.1228 135.662 86.6202 134.511 85.7695 133.699C84.9188 132.887 83.7202 132.481 82.1735 132.481H80.5495V141.471H82.2315C83.7975 141.471 85.0252 141.123 85.9145 140.427C86.8232 139.712 87.2775 138.726 87.2775 137.469V137.15ZM86.0885 127.899C86.0305 126.778 85.6342 125.889 84.8995 125.231C84.1842 124.574 83.2175 124.245 81.9995 124.245H80.5495V131.553H82.0575C82.8695 131.553 83.5268 131.447 84.0295 131.234C84.5515 131.022 84.9672 130.751 85.2765 130.422C85.5858 130.074 85.7985 129.697 85.9145 129.291C86.0305 128.885 86.0885 128.489 86.0885 128.102V127.899ZM93.462 142.138H93.607C93.7617 142.138 93.897 142.09 94.013 141.993C94.129 141.877 94.2257 141.742 94.303 141.587C94.3997 141.433 94.4673 141.268 94.506 141.094C94.564 140.92 94.593 140.756 94.593 140.601V125.086C94.593 124.951 94.564 124.796 94.506 124.622C94.4673 124.448 94.3997 124.284 94.303 124.129C94.2257 123.975 94.129 123.849 94.013 123.752C93.897 123.636 93.7617 123.578 93.607 123.578H93.462V123.288H104.627V125.985H104.337C104.298 125.541 104.124 125.154 103.815 124.825C103.506 124.477 103.022 124.303 102.365 124.303H96.536V131.64H101.35C101.795 131.64 102.162 131.505 102.452 131.234C102.761 130.964 102.916 130.645 102.916 130.277H103.206V133.902H102.916C102.916 133.554 102.771 133.255 102.481 133.003C102.191 132.752 101.814 132.626 101.35 132.626H96.536V141.413H102.887C103.254 141.413 103.573 141.326 103.844 141.152C104.115 140.978 104.337 140.775 104.511 140.543C104.704 140.292 104.84 140.031 104.917 139.76C105.014 139.47 105.062 139.229 105.062 139.035H105.352V142.428H93.462V142.138ZM118.522 124.042C117.092 124.042 115.845 124.303 114.781 124.825C113.737 125.328 112.867 125.995 112.171 126.826C111.475 127.638 110.953 128.557 110.605 129.581C110.277 130.606 110.112 131.621 110.112 132.626C110.112 133.767 110.335 134.888 110.779 135.99C111.224 137.073 111.833 138.04 112.606 138.89C113.399 139.722 114.317 140.398 115.361 140.92C116.405 141.423 117.536 141.674 118.754 141.674C119.102 141.674 119.508 141.636 119.972 141.558C120.456 141.481 120.929 141.336 121.393 141.123C121.857 140.891 122.283 140.572 122.669 140.166C123.075 139.76 123.385 139.229 123.597 138.571H123.887V141.79C123.597 141.79 123.288 141.829 122.959 141.906C122.65 141.984 122.302 142.071 121.915 142.167C121.413 142.303 120.852 142.428 120.233 142.544C119.634 142.66 118.996 142.718 118.319 142.718C116.637 142.718 115.158 142.428 113.882 141.848C112.606 141.268 111.543 140.514 110.692 139.586C109.842 138.658 109.204 137.614 108.778 136.454C108.353 135.275 108.14 134.086 108.14 132.887C108.14 131.689 108.353 130.5 108.778 129.32C109.204 128.141 109.851 127.087 110.721 126.159C111.591 125.212 112.684 124.448 113.998 123.868C115.313 123.288 116.86 122.998 118.638 122.998C119.276 122.998 119.847 123.056 120.349 123.172C120.871 123.288 121.335 123.404 121.741 123.52C122.031 123.617 122.292 123.694 122.524 123.752C122.776 123.791 123.017 123.81 123.249 123.81V127.029H122.959C122.843 126.43 122.631 125.937 122.321 125.55C122.012 125.144 121.645 124.835 121.219 124.622C120.813 124.41 120.369 124.265 119.885 124.187C119.421 124.091 118.967 124.042 118.522 124.042ZM139.694 142.138H139.839C139.974 142.138 140.1 142.09 140.216 141.993C140.332 141.877 140.428 141.742 140.506 141.587C140.602 141.413 140.67 141.239 140.709 141.065C140.747 140.872 140.767 140.698 140.767 140.543V132.655H131.487V140.543C131.487 140.698 131.506 140.872 131.545 141.065C131.583 141.239 131.641 141.404 131.719 141.558C131.796 141.713 131.883 141.848 131.98 141.964C132.096 142.08 132.231 142.138 132.386 142.138H132.531V142.428H128.471V142.138H128.616C128.751 142.138 128.877 142.09 128.993 141.993C129.109 141.877 129.205 141.742 129.283 141.587C129.379 141.413 129.447 141.239 129.486 141.065C129.524 140.872 129.544 140.698 129.544 140.543V125.086C129.544 124.951 129.524 124.796 129.486 124.622C129.447 124.448 129.389 124.284 129.312 124.129C129.234 123.975 129.138 123.849 129.022 123.752C128.906 123.636 128.77 123.578 128.616 123.578H128.471V123.288H132.531V123.578H132.386C132.231 123.578 132.096 123.636 131.98 123.752C131.864 123.849 131.767 123.975 131.69 124.129C131.632 124.284 131.583 124.448 131.545 124.622C131.506 124.796 131.487 124.951 131.487 125.086V131.64H140.767V125.086C140.767 124.951 140.747 124.796 140.709 124.622C140.67 124.448 140.612 124.284 140.535 124.129C140.457 123.975 140.361 123.849 140.245 123.752C140.129 123.636 139.993 123.578 139.839 123.578H139.694V123.288H143.754V123.578H143.609C143.454 123.578 143.319 123.636 143.203 123.752C143.087 123.849 142.99 123.975 142.913 124.129C142.855 124.284 142.806 124.448 142.768 124.622C142.729 124.796 142.71 124.951 142.71 125.086V140.543C142.71 140.698 142.729 140.872 142.768 141.065C142.826 141.239 142.893 141.404 142.971 141.558C143.048 141.713 143.135 141.848 143.232 141.964C143.348 142.08 143.473 142.138 143.609 142.138H143.754V142.428H139.694V142.138ZM158.981 142.138H159.126C159.59 142.138 159.822 141.926 159.822 141.5C159.822 141.346 159.793 141.181 159.735 141.007L157.125 133.96H152.05L149.527 140.891C149.469 141.046 149.44 141.191 149.44 141.326C149.44 141.578 149.507 141.781 149.643 141.935C149.778 142.071 149.923 142.138 150.078 142.138H150.223V142.428H147.004V142.138H147.149C147.4 142.138 147.642 141.993 147.874 141.703C148.125 141.394 148.328 141.036 148.483 140.63L155.124 122.94L161.62 140.456C161.755 140.843 161.939 141.22 162.171 141.587C162.422 141.955 162.741 142.138 163.128 142.138H163.273V142.428H158.981V142.138ZM152.34 132.974H156.806L154.573 126.913L152.34 132.974ZM176.021 142.138H176.166C176.302 142.138 176.427 142.08 176.543 141.964C176.659 141.848 176.756 141.713 176.833 141.558C176.93 141.404 176.998 141.239 177.036 141.065C177.075 140.872 177.094 140.698 177.094 140.543V125.115C177.094 124.98 177.075 124.825 177.036 124.651C176.998 124.477 176.93 124.313 176.833 124.158C176.756 123.984 176.65 123.849 176.514 123.752C176.398 123.636 176.263 123.578 176.108 123.578H175.963V123.288H180.719C182.517 123.288 183.919 123.685 184.924 124.477C185.949 125.27 186.461 126.324 186.461 127.638C186.461 128.199 186.365 128.702 186.171 129.146C185.978 129.591 185.727 129.987 185.417 130.335C185.127 130.683 184.808 130.983 184.46 131.234C184.112 131.466 183.784 131.66 183.474 131.814C184.286 131.969 184.963 132.23 185.504 132.597C186.046 132.965 186.481 133.39 186.809 133.873C187.157 134.337 187.399 134.84 187.534 135.381C187.67 135.923 187.737 136.454 187.737 136.976C187.737 137.982 187.554 138.832 187.186 139.528C186.819 140.205 186.326 140.766 185.707 141.21C185.108 141.636 184.412 141.945 183.619 142.138C182.846 142.332 182.044 142.428 181.212 142.428H176.021V142.138ZM185.765 137.15C185.611 135.662 185.108 134.511 184.257 133.699C183.407 132.887 182.208 132.481 180.661 132.481H179.037V141.471H180.719C182.285 141.471 183.513 141.123 184.402 140.427C185.311 139.712 185.765 138.726 185.765 137.469V137.15ZM184.576 127.899C184.518 126.778 184.122 125.889 183.387 125.231C182.672 124.574 181.705 124.245 180.487 124.245H179.037V131.553H180.545C181.357 131.553 182.015 131.447 182.517 131.234C183.039 131.022 183.455 130.751 183.764 130.422C184.074 130.074 184.286 129.697 184.402 129.291C184.518 128.885 184.576 128.489 184.576 128.102V127.899ZM201.138 124.042C199.708 124.042 198.461 124.303 197.397 124.825C196.353 125.328 195.483 125.995 194.787 126.826C194.091 127.638 193.569 128.557 193.221 129.581C192.893 130.606 192.728 131.621 192.728 132.626C192.728 133.767 192.951 134.888 193.395 135.99C193.84 137.073 194.449 138.04 195.222 138.89C196.015 139.722 196.933 140.398 197.977 140.92C199.021 141.423 200.152 141.674 201.37 141.674C201.718 141.674 202.124 141.636 202.588 141.558C203.072 141.481 203.545 141.336 204.009 141.123C204.473 140.891 204.899 140.572 205.285 140.166C205.691 139.76 206.001 139.229 206.213 138.571H206.503V141.79C206.213 141.79 205.904 141.829 205.575 141.906C205.266 141.984 204.918 142.071 204.531 142.167C204.029 142.303 203.468 142.428 202.849 142.544C202.25 142.66 201.612 142.718 200.935 142.718C199.253 142.718 197.774 142.428 196.498 141.848C195.222 141.268 194.159 140.514 193.308 139.586C192.458 138.658 191.82 137.614 191.394 136.454C190.969 135.275 190.756 134.086 190.756 132.887C190.756 131.689 190.969 130.5 191.394 129.32C191.82 128.141 192.467 127.087 193.337 126.159C194.207 125.212 195.3 124.448 196.614 123.868C197.929 123.288 199.476 122.998 201.254 122.998C201.892 122.998 202.463 123.056 202.965 123.172C203.487 123.288 203.951 123.404 204.357 123.52C204.647 123.617 204.908 123.694 205.14 123.752C205.392 123.791 205.633 123.81 205.865 123.81V127.029H205.575C205.459 126.43 205.247 125.937 204.937 125.55C204.628 125.144 204.261 124.835 203.835 124.622C203.429 124.41 202.985 124.265 202.501 124.187C202.037 124.091 201.583 124.042 201.138 124.042ZM210.739 142.138H210.884C211.038 142.138 211.174 142.09 211.29 141.993C211.406 141.877 211.502 141.742 211.58 141.587C211.676 141.433 211.744 141.268 211.783 141.094C211.841 140.92 211.87 140.756 211.87 140.601V125.086C211.87 124.951 211.841 124.796 211.783 124.622C211.744 124.448 211.676 124.284 211.58 124.129C211.502 123.975 211.406 123.849 211.29 123.752C211.174 123.636 211.038 123.578 210.884 123.578H210.739V123.288H221.904V125.985H221.614C221.575 125.541 221.401 125.154 221.092 124.825C220.782 124.477 220.299 124.303 219.642 124.303H213.813V131.64H218.627C219.071 131.64 219.439 131.505 219.729 131.234C220.038 130.964 220.193 130.645 220.193 130.277H220.483V133.902H220.193C220.193 133.554 220.048 133.255 219.758 133.003C219.468 132.752 219.091 132.626 218.627 132.626H213.813V141.413H220.164C220.531 141.413 220.85 141.326 221.121 141.152C221.391 140.978 221.614 140.775 221.788 140.543C221.981 140.292 222.116 140.031 222.194 139.76C222.29 139.47 222.339 139.229 222.339 139.035H222.629V142.428H210.739V142.138ZM230.585 142.138H230.73V142.428H226.554V142.138H226.699C226.854 142.138 226.989 142.09 227.105 141.993C227.221 141.877 227.318 141.742 227.395 141.587C227.492 141.433 227.559 141.268 227.598 141.094C227.637 140.92 227.656 140.756 227.656 140.601V125.086C227.656 124.951 227.637 124.796 227.598 124.622C227.559 124.448 227.492 124.284 227.395 124.129C227.318 123.975 227.221 123.849 227.105 123.752C226.989 123.636 226.854 123.578 226.699 123.578H226.554V123.288H237.719V126.362H237.429C237.429 125.666 237.274 125.154 236.965 124.825C236.675 124.477 236.211 124.303 235.573 124.303H229.628V140.601C229.628 140.756 229.647 140.92 229.686 141.094C229.725 141.268 229.783 141.433 229.86 141.587C229.957 141.742 230.063 141.877 230.179 141.993C230.295 142.09 230.43 142.138 230.585 142.138ZM254.03 141.413V145.038H253.74C253.721 144.787 253.653 144.507 253.537 144.197C253.421 143.888 253.257 143.598 253.044 143.327C252.851 143.076 252.619 142.863 252.348 142.689C252.078 142.515 251.778 142.428 251.449 142.428H238.08C237.752 142.428 237.452 142.515 237.181 142.689C236.911 142.883 236.669 143.105 236.456 143.356C236.263 143.627 236.099 143.917 235.963 144.226C235.847 144.536 235.78 144.806 235.76 145.038H235.47V141.413H236.746C237.365 141.413 237.8 141.056 238.051 140.34L244.721 122.853L251.449 140.253C251.585 140.543 251.768 140.814 252 141.065C252.232 141.297 252.503 141.413 252.812 141.413H254.03ZM238.689 141.413H249.854L244.257 127L238.689 141.413ZM269.206 142.138H269.351C269.815 142.138 270.047 141.926 270.047 141.5C270.047 141.346 270.018 141.181 269.96 141.007L267.35 133.96H262.275L259.752 140.891C259.694 141.046 259.665 141.191 259.665 141.326C259.665 141.578 259.732 141.781 259.868 141.935C260.003 142.071 260.148 142.138 260.303 142.138H260.448V142.428H257.229V142.138H257.374C257.625 142.138 257.867 141.993 258.099 141.703C258.35 141.394 258.553 141.036 258.708 140.63L265.349 122.94L271.845 140.456C271.98 140.843 272.164 141.22 272.396 141.587C272.647 141.955 272.966 142.138 273.353 142.138H273.498V142.428H269.206V142.138ZM262.565 132.974H267.031L264.798 126.913L262.565 132.974Z" fill="white"/>
<path d="M181.628 94.2875C181.628 97.809 179.917 101.033 178.161 103.406C177.287 104.587 176.412 105.544 175.757 106.205C175.446 106.518 175.185 106.765 174.997 106.936C174.81 106.765 174.549 106.518 174.238 106.205C173.583 105.544 172.708 104.587 171.834 103.406C170.078 101.033 168.367 97.809 168.367 94.2875C168.367 90.766 170.078 87.5423 171.834 85.1688C172.708 83.9876 173.583 83.0308 174.238 82.3698C174.549 82.0567 174.81 81.8105 174.997 81.639C175.185 81.8105 175.446 82.0567 175.757 82.3698C176.412 83.0308 177.287 83.9876 178.161 85.1688C179.917 87.5423 181.628 90.766 181.628 94.2875Z" stroke="white"/>
<path d="M171.55 92.9527C173.765 95.481 174.619 99.1481 174.905 102.253C175.047 103.797 175.047 105.179 175.011 106.176C174.993 106.673 174.966 107.074 174.944 107.348C174.944 107.349 174.944 107.35 174.943 107.352C174.942 107.352 174.941 107.352 174.94 107.352C174.7 107.377 174.349 107.408 173.913 107.428C173.04 107.47 171.829 107.47 170.476 107.308C167.755 106.981 164.542 106.007 162.327 103.478C160.112 100.95 159.257 97.2828 158.971 94.1775C158.829 92.634 158.83 91.2516 158.866 90.2552C158.884 89.7574 158.91 89.3572 158.933 89.0829C158.933 89.0817 158.933 89.0805 158.933 89.0793C158.934 89.0792 158.935 89.0791 158.936 89.079C159.176 89.0537 159.527 89.023 159.963 89.0025C160.836 88.9614 162.048 88.961 163.4 89.1232C166.121 89.4494 169.334 90.4244 171.55 92.9527Z" stroke="white"/>
<path d="M178.768 92.9527C176.553 95.481 175.698 99.1481 175.412 102.253C175.27 103.797 175.271 105.179 175.307 106.176C175.325 106.673 175.351 107.074 175.374 107.348C175.374 107.349 175.374 107.35 175.374 107.352C175.375 107.352 175.376 107.352 175.377 107.352C175.617 107.377 175.968 107.408 176.404 107.428C177.277 107.47 178.489 107.47 179.841 107.308C182.562 106.981 185.775 106.007 187.991 103.478C190.206 100.95 191.06 97.2828 191.346 94.1775C191.488 92.634 191.488 91.2516 191.452 90.2552C191.434 89.7574 191.407 89.3572 191.385 89.0829C191.385 89.0817 191.385 89.0805 191.385 89.0793C191.384 89.0792 191.382 89.0791 191.381 89.079C191.141 89.0537 190.79 89.023 190.354 89.0025C189.481 88.9614 188.27 88.961 186.917 89.1232C184.196 89.4494 180.983 90.4244 178.768 92.9527Z" stroke="white"/>
<path d="M142.455 97.8979H75.8735" stroke="white"/>
<path d="M274.139 97.898L206.078 97.8979" stroke="white"/>
<path d="M46.4418 49.3465C46.6506 49.6787 47.0913 49.7787 47.4231 49.5697C47.755 49.3608 47.8549 48.9196 47.6462 48.5873C47.3803 48.1658 47.1876 47.6228 47.077 47.003C47.6943 47.1137 48.2385 47.3084 48.6596 47.5728C48.9915 47.7817 49.4322 47.6817 49.641 47.3495C49.8497 47.0173 49.7498 46.5761 49.4179 46.3671C48.7595 45.9527 47.912 45.6705 46.9699 45.5436C46.9931 44.513 47.2144 43.4073 47.6694 42.3696C48.21 41.1371 49.0807 40.0011 50.3386 39.2098C51.3307 38.5846 52.5707 38.1684 54.0909 38.0773C55.4987 38.1541 56.8405 38.3613 58.0145 38.7418C59.9933 39.3848 61.4796 40.5298 61.9221 42.4035C61.9845 42.6714 62.0291 42.9536 62.0505 43.2502C62.1273 44.3112 61.699 45.4222 60.7837 46.301C59.9326 47.1191 58.6658 47.7407 56.9904 47.9586C56.6014 48.0086 56.3248 48.3641 56.3748 48.7534C56.3908 48.8767 56.4372 48.9874 56.505 49.0821C57.9075 51.1559 58.3036 53.1082 57.9806 54.6622C57.8058 55.5071 57.4132 56.2341 56.8565 56.7931C56.2998 57.3504 55.5737 57.7434 54.7279 57.9184C53.172 58.2418 51.2147 57.8434 49.136 56.427C48.8113 56.2073 48.3688 56.2912 48.1493 56.6163C48.0851 56.7128 48.0458 56.8181 48.0316 56.9253C47.8139 58.6008 47.1948 59.8708 46.3758 60.7228C45.4979 61.6391 44.3881 62.0678 43.3283 61.991C43.0321 61.9696 42.7501 61.9267 42.4825 61.8624C40.6108 61.4194 39.4671 59.9297 38.8248 57.9506C38.4447 56.7753 38.2377 55.4321 38.161 54.0227C38.252 52.5009 38.6678 51.2595 39.2922 50.2664C40.0845 49.0071 41.2175 48.1354 42.4486 47.5942C43.4853 47.1387 44.5879 46.9172 45.6192 46.894C45.7459 47.8371 46.0278 48.6856 46.4418 49.3447V49.3465ZM46.3633 41.8015C45.8387 43.0001 45.5782 44.2772 45.5461 45.4722C44.3524 45.5043 43.0785 45.7651 41.8794 46.2903C40.5305 46.8833 39.2762 47.8121 38.3395 49.1321C38.5054 47.6871 38.757 46.2974 39.046 45.0721C39.5563 42.9144 39.7954 41.1657 39.84 39.7617C41.2424 39.717 42.9875 39.4777 45.1446 38.9668C46.3704 38.6775 47.7568 38.4256 49.2003 38.2595C47.8817 39.1973 46.9539 40.453 46.3615 41.8033L46.3633 41.8015ZM54.1391 36.6519L54.1141 36.6501C52.9401 36.5876 51.7339 36.6108 50.542 36.6966C48.5062 36.843 46.5149 37.1735 44.8235 37.5736C42.7145 38.0737 41.0765 38.3238 39.8204 38.3988C39.6455 35.9553 38.7302 34.9175 37.756 34.6871C36.937 34.4924 36.0913 34.8336 35.506 35.4194C34.9208 36.0053 34.5818 36.852 34.7745 37.6718C35.0047 38.6471 36.0431 39.5634 38.4822 39.7385C38.4073 40.996 38.1575 42.6357 37.6579 44.747C37.2582 46.4403 36.9281 48.4355 36.7818 50.4718C36.6961 51.665 36.673 52.8724 36.7354 54.0477L36.7372 54.0728C36.8193 55.6071 37.0476 57.0825 37.4687 58.3864C38.2592 60.8282 39.7205 62.6769 42.1578 63.2538C42.495 63.3342 42.8501 63.3878 43.2265 63.4146C44.6968 63.52 46.217 62.9448 47.3999 61.7106C48.2261 60.8496 48.888 59.6654 49.2449 58.1703C51.3449 59.3563 53.3469 59.66 55.0152 59.3117C56.141 59.0777 57.1117 58.5508 57.8629 57.8006C58.6123 57.0504 59.1386 56.0769 59.3723 54.9498C59.7185 53.2797 59.4152 51.2738 58.2322 49.1732C59.7256 48.816 60.9086 48.1533 61.7686 47.3263C63.0015 46.142 63.5761 44.6202 63.4708 43.1483C63.444 42.7715 63.3887 42.416 63.3102 42.0784C62.7339 39.6402 60.8872 38.1773 58.4481 37.3843C57.1456 36.9609 55.6718 36.7341 54.1391 36.6519ZM92.3509 11.5058C92.7434 11.5058 93.061 11.1878 93.061 10.7949C93.061 10.4019 92.7434 10.084 92.3509 10.084L20.9018 10.0929C20.404 10.0554 19.9062 10.0304 19.4102 10.0196C19.2907 10.0179 19.1782 10.0447 19.0801 10.0947H14.6195C13.656 10.0357 12.6407 10.0036 11.5684 10C11.4399 10 11.3186 10.0339 11.2151 10.0947H10.7101C10.3176 10.0947 10 10.4126 10 10.8056L10.1998 92.3279C10.1998 92.7208 10.5174 93.0388 10.91 93.0388C11.3025 93.0388 11.6201 92.7208 11.6201 92.3279L11.6058 86.7442C11.6362 86.8138 11.6683 86.8853 11.704 86.955C12.8281 89.2324 14.6837 90.5738 16.6571 90.9721C17.7865 91.2008 18.9481 91.1204 20.0329 90.7328C20.3933 90.6042 20.7448 90.4416 21.0838 90.2434L21.1267 103.267C21.1267 103.66 21.4443 103.977 21.8368 103.977C22.2293 103.977 22.5469 103.66 22.5469 103.267L22.5005 89.1377C22.6504 88.9859 22.795 88.8233 22.9359 88.6536C24.54 86.6942 25.4142 83.554 24.6649 79.2528C24.5988 78.8652 24.2313 78.6027 23.8423 78.6688C23.4551 78.7349 23.1928 79.1028 23.2589 79.4922C23.9297 83.3397 23.2 86.0833 21.8368 87.7498C21.1909 88.5375 20.4005 89.0841 19.5512 89.3878C18.7054 89.6896 17.8044 89.7521 16.9336 89.5771C15.3724 89.2609 13.8933 88.1767 12.9779 86.3244C12.3195 84.9901 12.812 83.5308 13.7487 82.5109C14.1823 82.0375 14.7087 81.6607 15.2582 81.432C15.7739 81.2177 16.3056 81.1373 16.7909 81.2409C17.6152 81.4177 18.3521 82.1644 18.7054 83.7451C18.7893 84.1292 19.1693 84.3721 19.5529 84.2864C19.9366 84.2024 20.1792 83.822 20.0936 83.4379C19.5958 81.2105 18.4289 80.1317 17.0853 79.8441C16.3056 79.678 15.4848 79.7923 14.7122 80.1138C13.9736 80.421 13.2723 80.9212 12.7014 81.5445C12.2357 82.0518 11.8521 82.6448 11.5969 83.2843L11.4613 28.0138C12.4783 31.3201 13.9753 34.437 15.7632 37.0663C17.0835 39.1883 18.3628 41.6694 19.3085 44.1111C20.1899 46.3903 20.7805 48.6266 20.834 50.4825C20.8787 51.999 20.6521 53.6655 19.9562 55.5357C19.3638 57.1254 18.436 58.8651 17.0478 60.7853C15.9327 62.1893 15.0013 63.6164 14.375 64.7828C14.243 64.9882 14.2198 65.2544 14.3358 65.4884C15.0941 67.0102 16.3663 69.0072 17.9096 70.8416C19.321 72.5189 20.9625 74.0639 22.654 74.9999C24.4615 76.0002 26.3349 76.3235 28.0871 75.45C28.4475 75.2696 28.8061 75.0338 29.1594 74.7355C30.1051 73.9371 30.6814 72.7064 30.6725 71.2792C30.6653 70.0611 30.23 68.7018 29.229 67.3657C28.9935 67.0513 28.5474 66.987 28.2334 67.2228C27.9194 67.4586 27.8551 67.9051 28.0906 68.2195C28.8953 69.293 29.2433 70.354 29.2486 71.2846C29.2558 72.2759 28.8722 73.1172 28.2423 73.6477C27.9889 73.8621 27.7231 74.0354 27.4483 74.1729C26.1779 74.807 24.7523 74.5337 23.3374 73.7513C21.8065 72.9047 20.3006 71.4811 18.9945 69.9271C17.6438 68.3213 16.5108 66.5797 15.7774 65.1794C16.186 64.4506 16.7106 63.6272 17.3226 62.7787C17.6045 62.4197 17.874 62.0642 18.1273 61.7159C18.4431 61.3176 18.7768 60.9193 19.1229 60.5299C20.4754 59.008 22.0206 57.6237 23.5693 56.8217C25.0057 56.0769 26.4402 55.8429 27.691 56.5109C27.9497 56.6485 28.2084 56.8307 28.4671 57.0611C29.0827 57.6094 29.4431 58.4597 29.411 59.4492C29.3807 60.3798 29.0024 61.4319 28.1692 62.484C27.9265 62.793 27.9782 63.2395 28.2869 63.4825C28.5956 63.7254 29.0417 63.6736 29.2843 63.3646C30.321 62.0553 30.792 60.7085 30.8331 59.4921C30.8812 58.0631 30.3388 56.8164 29.4164 55.9929C29.0809 55.6946 28.7294 55.4499 28.3619 55.2534C26.6329 54.33 24.7523 54.6033 22.9181 55.5535C22.2615 55.8929 21.612 56.3216 20.9786 56.811C21.091 56.5484 21.1927 56.2894 21.289 56.0322C22.0563 53.9709 22.3061 52.1258 22.2561 50.4432C22.1972 48.4105 21.5727 46.0134 20.636 43.5967C20.3969 42.9804 20.1382 42.3624 19.8634 41.748C20.6717 42.4428 21.5067 43.0358 22.356 43.5127C23.9672 44.4183 25.6373 44.906 27.302 44.8685C29.1808 44.8256 31.0258 44.1182 32.7369 42.5946C33.4755 41.9373 33.8342 41.23 33.8485 40.4583C33.8627 39.7224 33.5487 38.9811 32.9421 38.2149C30.7474 35.4391 27.6785 34.162 24.4971 32.8402C18.2094 30.227 11.4613 27.4208 11.4221 11.5683V11.5147H14.5338C27.773 12.3489 30.3799 18.6309 32.8189 24.5093C34.1393 27.6941 35.415 30.7664 38.1878 32.9634C38.9532 33.5707 39.6937 33.8851 40.4288 33.8708C41.1996 33.8565 41.9062 33.4975 42.5628 32.758C44.0848 31.045 44.7913 29.1999 44.8342 27.3172C44.8716 25.6507 44.3845 23.9788 43.4799 22.3659C42.9964 21.5031 42.3933 20.6565 41.6885 19.8366C42.3166 20.1188 42.9482 20.385 43.5763 20.6279C45.9904 21.5639 48.3849 22.1908 50.4153 22.2498C52.0961 22.298 53.9393 22.0479 55.9983 21.2817C56.2659 21.1816 56.5354 21.0745 56.8101 20.9566C56.348 21.5639 55.943 22.1873 55.6183 22.8142C54.669 24.6504 54.396 26.5331 55.3185 28.2639C55.5148 28.6301 55.7592 28.9838 56.0572 29.3196C56.8779 30.243 58.1251 30.786 59.5526 30.7378C60.7676 30.6967 62.113 30.2252 63.4208 29.1874C63.7295 28.9445 63.7813 28.4961 63.5386 28.1889C63.2959 27.8799 62.8481 27.8281 62.5412 28.071C61.4903 28.9052 60.4393 29.2821 59.5097 29.3142C58.523 29.3481 57.6719 28.9855 57.1242 28.3693C56.8958 28.1121 56.7138 27.8531 56.5746 27.5923C55.9073 26.3402 56.141 24.9041 56.8851 23.4662C57.6862 21.9158 59.069 20.3689 60.5892 19.015C60.8711 18.7631 61.1584 18.5184 61.4474 18.2826C61.881 17.9718 62.3217 17.6396 62.7732 17.2841C62.8106 17.2538 62.8463 17.2198 62.8766 17.1841C63.7099 16.5839 64.5182 16.0695 65.2337 15.6658C66.6325 16.4 68.3722 17.536 69.9762 18.8864C71.5285 20.1956 72.9506 21.7032 73.7963 23.234C74.5778 24.6504 74.8508 26.0776 74.2174 27.3494C74.08 27.6245 73.907 27.8906 73.6928 28.1442C73.1629 28.7748 72.3225 29.157 71.3323 29.1517C70.4027 29.1463 69.3428 28.7962 68.2705 27.9924C67.9564 27.7566 67.5104 27.8209 67.2748 28.1353C67.0393 28.4497 67.1036 28.8962 67.4176 29.132C68.754 30.1341 70.1118 30.5681 71.3269 30.577C72.7525 30.586 73.9837 30.009 74.7795 29.0623C75.0774 28.7087 75.313 28.3497 75.4932 27.9888C76.3675 26.2348 76.0427 24.3611 75.0435 22.5499C74.1086 20.8548 72.5652 19.2114 70.8898 17.8003C69.0573 16.2553 67.0625 14.9817 65.5423 14.2226C65.3086 14.1065 65.0427 14.1297 64.8375 14.2619C63.5868 14.9353 62.0345 15.9606 60.5339 17.1877C58.6997 18.4916 57.0332 19.3758 55.5023 19.9474C53.6342 20.644 51.9694 20.8708 50.4546 20.8262C48.599 20.7726 46.3669 20.1831 44.0901 19.299C41.412 18.2612 38.691 16.8197 36.4446 15.364C36.4196 15.3479 36.3928 15.3336 36.3678 15.3193C33.9359 13.7564 31.1275 12.4417 28.1656 11.5111L83.2636 11.5058C82.6463 11.7612 82.0753 12.1363 81.5829 12.5882C80.9601 13.1598 80.4606 13.8618 80.1537 14.6013C79.8325 15.3747 79.7183 16.1981 79.8842 16.9769C80.1697 18.3219 81.2492 19.4883 83.4742 19.9884C83.8578 20.0724 84.2378 19.8313 84.3217 19.4472C84.4056 19.0632 84.1647 18.6827 83.7811 18.5988C82.202 18.2451 81.4544 17.5074 81.2795 16.6822C81.176 16.1981 81.2563 15.6658 81.4704 15.1478C81.6988 14.5977 82.0753 14.0725 82.5481 13.6367C83.5687 12.699 85.0265 12.206 86.3575 12.8651C88.2078 13.7796 89.2909 15.2604 89.6067 16.8251C89.7833 17.6967 89.7191 18.5988 89.4176 19.4454C89.1142 20.2957 88.57 21.087 87.7814 21.7336C86.1185 23.0982 83.3778 23.8288 79.5327 23.1572C79.1456 23.0911 78.7762 23.3519 78.7102 23.7413C78.6442 24.1289 78.9047 24.4986 79.2936 24.5647C83.5919 25.3149 86.7269 24.4414 88.6842 22.8339C88.8537 22.6945 89.0161 22.5481 89.1678 22.398L103.281 22.4445C103.674 22.4445 103.991 22.1265 103.991 21.7336C103.991 21.3406 103.674 21.0227 103.281 21.0227L90.2722 20.9798C90.4685 20.6404 90.6309 20.2885 90.7611 19.9277C91.1483 18.8417 91.2286 17.6789 91.0002 16.5482C90.6005 14.5727 89.2623 12.715 86.9874 11.5897C86.9285 11.5611 86.8696 11.5326 86.809 11.5058H92.3545H92.3509ZM96.7241 16.7C96.3316 16.7 96.014 17.018 96.014 17.4109C96.014 17.8039 96.3316 18.1219 96.7241 18.1219H110.29C110.682 18.1219 111 17.8039 111 17.4109C111 17.018 110.682 16.7 110.29 16.7H96.7241ZM37.4313 36.0786C37.9523 36.2018 38.4108 36.8573 38.4947 38.4131C36.9406 38.3292 36.2858 37.8701 36.1627 37.3485C36.0913 37.0431 36.2519 36.6948 36.5142 36.4304C36.7782 36.1661 37.1262 36.0053 37.4313 36.0786ZM18.2308 96.704C18.2308 96.3093 17.9114 95.9896 17.5171 95.9896C17.1228 95.9896 16.8034 96.3093 16.8034 96.704V110.285C16.8034 110.679 17.1228 110.999 17.5171 110.999C17.9114 110.999 18.2308 110.679 18.2308 110.285V96.704ZM16.9426 36.2679C16.8177 36.0678 16.6928 35.8714 16.5679 35.6784C16.5411 35.6391 16.5126 35.6016 16.4804 35.5695C14.2751 32.1239 12.5925 27.8942 11.8503 23.5608C14.4285 30.1984 19.3067 32.2275 23.9494 34.1584C26.9594 35.4105 29.866 36.618 31.8251 39.0972C32.2248 39.6027 32.4318 40.0475 32.4246 40.4369C32.4175 40.7906 32.2123 41.1514 31.7876 41.53C30.3442 42.8161 28.8151 43.4109 27.2735 43.4466C25.8764 43.4788 24.449 43.0537 23.0519 42.2695C21.6191 41.464 20.2203 40.2797 18.9177 38.815C18.2272 38.038 17.5671 37.186 16.9426 36.2697V36.2679ZM23.5479 11.8505C29.3628 12.849 34.9886 15.5462 38.7837 18.9257C40.2468 20.2296 41.4298 21.6282 42.2345 23.0643C43.0196 24.4629 43.4424 25.8918 43.4103 27.2904C43.3746 28.8319 42.7805 30.3645 41.4958 31.8095C41.1175 32.2346 40.7571 32.4401 40.4038 32.4472C40.0149 32.4543 39.5706 32.2471 39.0656 31.847C36.5891 29.884 35.3829 26.9761 34.1322 23.9627C32.2052 19.315 30.1782 14.4316 23.5461 11.8505H23.5479Z" fill="white"/>
<path d="M301.558 169.653C301.349 169.321 300.909 169.221 300.577 169.43C300.245 169.639 300.145 170.08 300.354 170.412C300.62 170.834 300.812 171.377 300.923 171.996C300.306 171.886 299.761 171.691 299.34 171.427C299.008 171.218 298.568 171.318 298.359 171.65C298.15 171.982 298.25 172.423 298.582 172.632C299.24 173.047 300.088 173.329 301.03 173.456C301.007 174.487 300.786 175.592 300.331 176.63C299.79 177.862 298.919 178.999 297.661 179.79C296.669 180.415 295.429 180.831 293.909 180.922C292.501 180.845 291.16 180.638 289.985 180.258C288.007 179.615 286.52 178.47 286.078 176.596C286.015 176.328 285.971 176.046 285.949 175.749C285.873 174.688 286.301 173.577 287.216 172.698C288.067 171.88 289.334 171.259 291.01 171.041C291.399 170.991 291.675 170.635 291.625 170.246C291.609 170.123 291.563 170.012 291.495 169.917C290.093 167.844 289.696 165.891 290.019 164.337C290.194 163.492 290.587 162.765 291.143 162.206C291.7 161.649 292.426 161.256 293.272 161.081C294.828 160.758 296.785 161.156 298.864 162.572C299.189 162.792 299.631 162.708 299.851 162.383C299.915 162.287 299.954 162.181 299.968 162.074C300.186 160.399 300.805 159.129 301.624 158.276C302.502 157.36 303.612 156.931 304.672 157.008C304.968 157.03 305.25 157.073 305.517 157.137C307.389 157.58 308.533 159.07 309.175 161.049C309.555 162.224 309.762 163.567 309.839 164.977C309.748 166.498 309.332 167.74 308.708 168.733C307.916 169.992 306.783 170.864 305.551 171.405C304.515 171.861 303.412 172.082 302.381 172.105C302.254 171.162 301.972 170.314 301.558 169.655V169.653ZM301.637 177.198C302.161 175.999 302.422 174.722 302.454 173.527C303.648 173.495 304.922 173.234 306.121 172.709C307.469 172.116 308.724 171.187 309.661 169.867C309.495 171.312 309.243 172.702 308.954 173.927C308.444 176.085 308.205 177.834 308.16 179.238C306.758 179.283 305.013 179.522 302.855 180.033C301.63 180.322 300.243 180.574 298.8 180.74C300.118 179.802 301.046 178.547 301.639 177.196L301.637 177.198ZM293.861 182.348L293.886 182.349C295.06 182.412 296.266 182.389 297.458 182.303C299.494 182.157 301.485 181.826 303.177 181.426C305.286 180.926 306.923 180.676 308.18 180.601C308.354 183.044 309.27 184.082 310.244 184.313C311.063 184.507 311.909 184.166 312.494 183.58C313.079 182.994 313.418 182.148 313.226 181.328C312.995 180.352 311.957 179.436 309.518 179.261C309.593 178.004 309.843 176.364 310.342 174.253C310.742 172.559 311.072 170.564 311.218 168.528C311.304 167.334 311.327 166.127 311.265 164.952L311.263 164.927C311.181 163.392 310.952 161.917 310.531 160.613C309.741 158.171 308.28 156.322 305.842 155.745C305.505 155.665 305.15 155.611 304.773 155.585C303.303 155.479 301.783 156.054 300.6 157.289C299.774 158.15 299.112 159.334 298.755 160.829C296.655 159.643 294.653 159.339 292.985 159.688C291.859 159.922 290.888 160.449 290.137 161.199C289.388 161.949 288.861 162.922 288.628 164.05C288.282 165.72 288.585 167.726 289.768 169.826C288.274 170.183 287.091 170.846 286.231 171.673C284.998 172.857 284.424 174.379 284.529 175.851C284.556 176.228 284.611 176.584 284.69 176.921C285.266 179.359 287.113 180.822 289.552 181.615C290.854 182.039 292.328 182.266 293.861 182.348ZM255.649 207.494C255.257 207.494 254.939 207.812 254.939 208.205C254.939 208.598 255.257 208.916 255.649 208.916L327.098 208.907C327.596 208.945 328.094 208.97 328.59 208.98C328.709 208.982 328.822 208.955 328.92 208.905H333.381C334.344 208.964 335.359 208.996 336.432 209C336.56 209 336.681 208.966 336.785 208.905H337.29C337.682 208.905 338 208.587 338 208.194L337.8 126.671C337.8 126.278 337.483 125.96 337.09 125.96C336.697 125.96 336.38 126.278 336.38 126.671L336.394 132.255C336.364 132.185 336.332 132.114 336.296 132.044C335.172 129.766 333.316 128.425 331.343 128.027C330.213 127.798 329.052 127.878 327.967 128.266C327.607 128.395 327.255 128.557 326.916 128.755L326.873 115.732C326.873 115.339 326.556 115.021 326.163 115.021C325.771 115.021 325.453 115.339 325.453 115.732L325.499 129.861C325.35 130.013 325.205 130.176 325.064 130.345C323.46 132.305 322.586 135.445 323.335 139.746C323.401 140.134 323.769 140.396 324.158 140.33C324.545 140.264 324.807 139.896 324.741 139.507C324.07 135.659 324.8 132.916 326.163 131.249C326.809 130.461 327.6 129.915 328.449 129.611C329.295 129.309 330.196 129.247 331.066 129.422C332.628 129.738 334.107 130.822 335.022 132.674C335.68 134.009 335.188 135.468 334.251 136.488C333.818 136.961 333.291 137.338 332.742 137.567C332.226 137.781 331.694 137.862 331.209 137.758C330.385 137.581 329.648 136.835 329.295 135.254C329.211 134.87 328.831 134.627 328.447 134.713C328.063 134.797 327.821 135.177 327.906 135.561C328.404 137.788 329.571 138.867 330.915 139.155C331.694 139.321 332.515 139.207 333.288 138.885C334.026 138.578 334.728 138.078 335.299 137.454C335.764 136.947 336.148 136.354 336.403 135.715L336.539 190.986C335.522 187.68 334.025 184.563 332.237 181.933C330.916 179.811 329.637 177.33 328.691 174.888C327.81 172.609 327.219 170.373 327.166 168.517C327.121 167 327.348 165.334 328.044 163.464C328.636 161.874 329.564 160.134 330.952 158.214C332.067 156.81 332.999 155.383 333.625 154.216C333.757 154.011 333.78 153.745 333.664 153.511C332.906 151.989 331.634 149.992 330.09 148.157C328.679 146.48 327.037 144.935 325.346 143.999C323.539 142.999 321.665 142.676 319.913 143.549C319.553 143.729 319.194 143.965 318.841 144.264C317.895 145.062 317.319 146.293 317.328 147.72C317.335 148.938 317.77 150.297 318.771 151.633C319.007 151.948 319.453 152.012 319.767 151.776C320.081 151.541 320.145 151.094 319.909 150.78C319.105 149.706 318.757 148.645 318.751 147.715C318.744 146.723 319.128 145.882 319.758 145.351C320.011 145.137 320.277 144.964 320.552 144.826C321.822 144.192 323.248 144.465 324.663 145.248C326.194 146.094 327.699 147.518 329.006 149.072C330.356 150.678 331.489 152.419 332.223 153.82C331.814 154.549 331.289 155.372 330.677 156.221C330.395 156.58 330.126 156.935 329.873 157.283C329.557 157.682 329.223 158.08 328.877 158.469C327.525 159.991 325.979 161.376 324.431 162.178C322.994 162.922 321.56 163.156 320.309 162.488C320.05 162.351 319.792 162.169 319.533 161.938C318.917 161.39 318.557 160.54 318.589 159.55C318.619 158.619 318.998 157.567 319.831 156.515C320.074 156.206 320.022 155.76 319.713 155.517C319.404 155.274 318.958 155.326 318.716 155.635C317.679 156.944 317.208 158.291 317.167 159.507C317.119 160.936 317.661 162.183 318.584 163.006C318.919 163.305 319.271 163.549 319.638 163.746C321.367 164.669 323.248 164.396 325.082 163.446C325.739 163.106 326.388 162.678 327.021 162.188C326.909 162.451 326.807 162.71 326.711 162.967C325.944 165.028 325.694 166.874 325.744 168.556C325.803 170.589 326.427 172.986 327.364 175.403C327.603 176.019 327.862 176.637 328.137 177.252C327.328 176.557 326.493 175.964 325.644 175.487C324.033 174.581 322.363 174.094 320.698 174.131C318.819 174.174 316.974 174.881 315.263 176.405C314.524 177.062 314.166 177.77 314.152 178.541C314.137 179.277 314.451 180.018 315.058 180.785C317.253 183.561 320.322 184.838 323.503 186.16C329.791 188.773 336.539 191.579 336.578 207.432V207.485H333.466C320.227 206.651 317.62 200.369 315.181 194.49C313.861 191.306 312.585 188.233 309.812 186.036C309.047 185.429 308.306 185.115 307.571 185.129C306.8 185.143 306.094 185.502 305.437 186.242C303.915 187.955 303.209 189.8 303.166 191.683C303.128 193.349 303.615 195.021 304.52 196.634C305.004 197.497 305.607 198.343 306.311 199.163C305.683 198.881 305.052 198.615 304.424 198.372C302.01 197.436 299.615 196.809 297.585 196.75C295.904 196.702 294.061 196.952 292.002 197.718C291.734 197.818 291.465 197.925 291.19 198.043C291.652 197.436 292.057 196.813 292.382 196.186C293.331 194.349 293.604 192.467 292.681 190.736C292.485 190.37 292.241 190.016 291.943 189.68C291.122 188.757 289.875 188.214 288.447 188.262C287.232 188.303 285.887 188.775 284.579 189.812C284.27 190.055 284.219 190.504 284.461 190.811C284.704 191.12 285.152 191.172 285.459 190.929C286.51 190.095 287.561 189.718 288.49 189.686C289.477 189.652 290.328 190.014 290.876 190.63C291.104 190.888 291.286 191.147 291.425 191.407C292.093 192.66 291.859 194.096 291.115 195.534C290.314 197.084 288.931 198.631 287.411 199.985C287.129 200.237 286.842 200.481 286.553 200.717C286.119 201.028 285.678 201.36 285.227 201.716C285.189 201.746 285.154 201.78 285.123 201.816C284.29 202.416 283.482 202.93 282.766 203.334C281.367 202.6 279.628 201.464 278.024 200.114C276.471 198.804 275.049 197.297 274.204 195.766C273.422 194.349 273.149 192.922 273.783 191.65C273.92 191.375 274.093 191.109 274.307 190.855C274.837 190.225 275.677 189.843 276.668 189.848C277.597 189.853 278.657 190.204 279.73 191.007C280.044 191.243 280.49 191.179 280.725 190.864C280.961 190.55 280.896 190.103 280.582 189.868C279.246 188.866 277.888 188.432 276.673 188.423C275.247 188.414 274.016 188.991 273.221 189.937C272.923 190.291 272.687 190.65 272.507 191.011C271.633 192.765 271.957 194.639 272.956 196.45C273.891 198.145 275.435 199.788 277.11 201.2C278.943 202.745 280.937 204.018 282.458 204.777C282.691 204.893 282.957 204.87 283.162 204.738C284.413 204.065 285.966 203.039 287.466 201.812C289.3 200.508 290.967 199.624 292.498 199.052C294.366 198.356 296.031 198.129 297.545 198.174C299.401 198.227 301.633 198.817 303.91 199.701C306.588 200.739 309.309 202.18 311.555 203.636C311.58 203.652 311.607 203.666 311.632 203.681C314.064 205.244 316.873 206.558 319.834 207.489L264.736 207.494C265.354 207.239 265.925 206.864 266.417 206.412C267.04 205.84 267.539 205.138 267.846 204.399C268.168 203.625 268.282 202.802 268.116 202.023C267.83 200.678 266.751 199.512 264.526 199.011C264.142 198.927 263.762 199.169 263.678 199.553C263.594 199.937 263.835 200.317 264.219 200.401C265.798 200.755 266.546 201.492 266.72 202.318C266.824 202.802 266.744 203.334 266.53 203.852C266.301 204.402 265.925 204.927 265.452 205.363C264.431 206.301 262.974 206.794 261.642 206.135C259.792 205.22 258.709 203.74 258.393 202.175C258.217 201.303 258.281 200.401 258.582 199.554C258.886 198.704 259.43 197.913 260.219 197.266C261.882 195.902 264.622 195.171 268.467 195.843C268.854 195.909 269.224 195.648 269.29 195.259C269.356 194.871 269.095 194.501 268.706 194.435C264.408 193.685 261.273 194.558 259.316 196.166C259.146 196.305 258.984 196.452 258.832 196.602L244.719 196.555C244.326 196.555 244.009 196.873 244.009 197.266C244.009 197.659 244.326 197.977 244.719 197.977L257.728 198.02C257.532 198.359 257.369 198.711 257.239 199.072C256.852 200.158 256.771 201.321 257 202.452C257.399 204.427 258.738 206.285 261.013 207.41C261.071 207.439 261.13 207.467 261.191 207.494H255.646H255.649ZM251.276 202.3C251.668 202.3 251.986 201.982 251.986 201.589C251.986 201.196 251.668 200.878 251.276 200.878H237.71C237.318 200.878 237 201.196 237 201.589C237 201.982 237.318 202.3 237.71 202.3H251.276ZM310.569 182.921C310.048 182.798 309.589 182.142 309.505 180.586C311.059 180.67 311.714 181.129 311.837 181.651C311.909 181.957 311.748 182.305 311.486 182.569C311.222 182.834 310.874 182.994 310.569 182.921ZM329.769 122.295C329.769 122.689 330.089 123.009 330.483 123.009C330.877 123.009 331.197 122.689 331.197 122.295V108.714C331.197 108.319 330.877 108 330.483 108C330.089 108 329.769 108.319 329.769 108.714V122.295ZM331.057 182.732C331.182 182.932 331.307 183.128 331.432 183.321C331.459 183.36 331.487 183.398 331.52 183.43C333.725 186.876 335.407 191.106 336.15 195.439C333.571 188.801 328.693 186.772 324.051 184.841C321.041 183.589 318.134 182.382 316.175 179.902C315.775 179.397 315.568 178.952 315.575 178.563C315.583 178.209 315.788 177.848 316.212 177.47C317.656 176.183 319.185 175.589 320.727 175.553C322.124 175.521 323.551 175.946 324.948 176.73C326.381 177.536 327.78 178.72 329.082 180.185C329.773 180.962 330.433 181.814 331.057 182.73V182.732ZM324.452 207.149C318.637 206.151 313.011 203.454 309.216 200.074C307.753 198.77 306.57 197.372 305.766 195.936C304.98 194.537 304.558 193.108 304.59 191.709C304.625 190.168 305.22 188.635 306.504 187.19C306.882 186.765 307.243 186.56 307.596 186.552C307.985 186.545 308.429 186.753 308.934 187.153C311.411 189.116 312.617 192.024 313.868 195.037C315.795 199.685 317.822 204.568 324.454 207.149H324.452Z" fill="white"/>
</svg>
