<svg width="420" height="264" viewBox="0 0 420 264" fill="none" xmlns="http://www.w3.org/2000/svg">
<rect width="420" height="264" rx="10" fill="#0A0A0E"/>
<path d="M313.588 15.484H313.777C313.889 15.484 314.008 15.463 314.134 15.421C314.26 15.379 314.4 15.33 314.554 15.274C314.792 15.19 315.079 15.106 315.415 15.022C315.751 14.924 316.164 14.875 316.654 14.875C317.214 14.875 317.711 14.959 318.145 15.127C318.593 15.281 318.964 15.498 319.258 15.778C319.566 16.044 319.797 16.359 319.951 16.723C320.119 17.087 320.203 17.465 320.203 17.857C320.203 18.403 320.035 18.928 319.699 19.432C319.377 19.936 318.873 20.342 318.187 20.65C319.153 20.93 319.874 21.378 320.35 21.994C320.826 22.61 321.064 23.31 321.064 24.094C321.064 24.682 320.952 25.228 320.728 25.732C320.518 26.222 320.203 26.656 319.783 27.034C319.377 27.398 318.887 27.685 318.313 27.895C317.739 28.105 317.095 28.21 316.381 28.21C315.849 28.21 315.408 28.161 315.058 28.063C314.708 27.965 314.414 27.874 314.176 27.79C314.022 27.734 313.882 27.692 313.756 27.664C313.63 27.622 313.504 27.601 313.378 27.601H313.189V25.984H313.399C313.763 26.488 314.211 26.873 314.743 27.139C315.289 27.391 315.849 27.517 316.423 27.517C316.927 27.517 317.382 27.433 317.788 27.265C318.194 27.083 318.537 26.845 318.817 26.551C319.111 26.257 319.328 25.921 319.468 25.543C319.622 25.165 319.699 24.773 319.699 24.367C319.699 23.947 319.615 23.541 319.447 23.149C319.279 22.743 319.041 22.386 318.733 22.078C318.425 21.77 318.047 21.525 317.599 21.343C317.165 21.161 316.668 21.07 316.108 21.07H315.142V20.377H316.213C316.647 20.377 317.025 20.307 317.347 20.167C317.683 20.027 317.963 19.838 318.187 19.6C318.411 19.362 318.579 19.096 318.691 18.802C318.803 18.508 318.859 18.2 318.859 17.878C318.859 17.584 318.803 17.297 318.691 17.017C318.593 16.737 318.439 16.492 318.229 16.282C318.019 16.058 317.76 15.876 317.452 15.736C317.158 15.596 316.815 15.526 316.423 15.526C315.947 15.526 315.471 15.659 314.995 15.925C314.519 16.191 314.12 16.59 313.798 17.122H313.588V15.484ZM328.158 20.23C327.654 20.23 327.213 20.321 326.835 20.503C326.471 20.671 326.163 20.902 325.911 21.196C325.673 21.49 325.491 21.826 325.365 22.204C325.253 22.582 325.197 22.974 325.197 23.38C325.197 23.87 325.267 24.36 325.407 24.85C325.561 25.34 325.778 25.781 326.058 26.173C326.352 26.551 326.702 26.866 327.108 27.118C327.514 27.356 327.983 27.475 328.515 27.475C328.991 27.475 329.411 27.384 329.775 27.202C330.139 27.006 330.44 26.754 330.678 26.446C330.93 26.124 331.112 25.76 331.224 25.354C331.35 24.948 331.413 24.535 331.413 24.115C331.413 23.639 331.336 23.17 331.182 22.708C331.042 22.246 330.832 21.833 330.552 21.469C330.286 21.091 329.95 20.79 329.544 20.566C329.138 20.342 328.676 20.23 328.158 20.23ZM331.14 16.765C330.916 16.485 330.643 16.261 330.321 16.093C330.013 15.925 329.719 15.841 329.439 15.841C328.795 15.841 328.235 16.002 327.759 16.324C327.283 16.632 326.884 17.017 326.562 17.479C326.254 17.941 326.009 18.445 325.827 18.991C325.645 19.523 325.526 20.02 325.47 20.482C325.876 20.118 326.331 19.866 326.835 19.726C327.339 19.572 327.864 19.495 328.41 19.495C329.124 19.495 329.747 19.621 330.279 19.873C330.825 20.111 331.273 20.433 331.623 20.839C331.987 21.231 332.253 21.686 332.421 22.204C332.603 22.722 332.694 23.254 332.694 23.8C332.694 24.346 332.603 24.885 332.421 25.417C332.239 25.949 331.966 26.425 331.602 26.845C331.238 27.251 330.783 27.58 330.237 27.832C329.705 28.084 329.082 28.21 328.368 28.21C327.584 28.21 326.905 28.063 326.331 27.769C325.757 27.475 325.288 27.083 324.924 26.593C324.56 26.089 324.287 25.508 324.105 24.85C323.937 24.192 323.853 23.506 323.853 22.792C323.853 21.868 323.979 20.951 324.231 20.041C324.497 19.117 324.882 18.291 325.386 17.563C325.89 16.821 326.506 16.219 327.234 15.757C327.962 15.295 328.795 15.064 329.733 15.064C329.929 15.064 330.132 15.078 330.342 15.106C330.566 15.134 330.762 15.162 330.93 15.19C331.014 15.204 331.098 15.218 331.182 15.232C331.28 15.246 331.336 15.253 331.35 15.253V16.765H331.14ZM344.332 24.577C344.332 25.193 344.206 25.732 343.954 26.194C343.716 26.642 343.387 27.02 342.967 27.328C342.561 27.622 342.085 27.846 341.539 28C340.993 28.14 340.412 28.21 339.796 28.21C339.222 28.21 338.662 28.14 338.116 28C337.57 27.846 337.08 27.622 336.646 27.328C336.212 27.02 335.862 26.642 335.596 26.194C335.344 25.746 335.218 25.221 335.218 24.619C335.218 23.821 335.456 23.107 335.932 22.477C336.408 21.833 337.164 21.357 338.2 21.049C337.402 20.685 336.814 20.265 336.436 19.789C336.072 19.299 335.89 18.704 335.89 18.004C335.89 17.486 335.995 17.038 336.205 16.66C336.429 16.268 336.716 15.939 337.066 15.673C337.43 15.407 337.843 15.211 338.305 15.085C338.767 14.945 339.236 14.875 339.712 14.875C340.188 14.875 340.657 14.945 341.119 15.085C341.595 15.211 342.015 15.407 342.379 15.673C342.743 15.939 343.037 16.275 343.261 16.681C343.499 17.073 343.618 17.535 343.618 18.067C343.618 18.697 343.408 19.285 342.988 19.831C342.568 20.377 342.022 20.79 341.35 21.07C342.218 21.322 342.932 21.742 343.492 22.33C344.052 22.904 344.332 23.653 344.332 24.577ZM342.4 18.382C342.4 17.962 342.309 17.577 342.127 17.227C341.959 16.877 341.735 16.583 341.455 16.345C341.175 16.093 340.853 15.904 340.489 15.778C340.139 15.638 339.782 15.568 339.418 15.568C339.138 15.568 338.865 15.61 338.599 15.694C338.333 15.778 338.095 15.904 337.885 16.072C337.675 16.24 337.5 16.45 337.36 16.702C337.234 16.954 337.171 17.248 337.171 17.584C337.171 17.962 337.262 18.312 337.444 18.634C337.626 18.956 337.864 19.243 338.158 19.495C338.466 19.747 338.809 19.971 339.187 20.167C339.579 20.349 339.971 20.503 340.363 20.629C340.993 20.377 341.49 20.062 341.854 19.684C342.218 19.306 342.4 18.872 342.4 18.382ZM343.282 25.018C343.282 24.626 343.177 24.255 342.967 23.905C342.757 23.555 342.463 23.24 342.085 22.96C341.707 22.666 341.266 22.407 340.762 22.183C340.272 21.945 339.754 21.742 339.208 21.574C338.844 21.7 338.501 21.854 338.179 22.036C337.857 22.218 337.577 22.428 337.339 22.666C337.101 22.904 336.912 23.163 336.772 23.443C336.632 23.723 336.562 24.024 336.562 24.346C336.562 24.766 336.66 25.165 336.856 25.543C337.052 25.921 337.311 26.257 337.633 26.551C337.955 26.831 338.326 27.048 338.746 27.202C339.166 27.356 339.6 27.433 340.048 27.433C340.426 27.433 340.804 27.377 341.182 27.265C341.574 27.139 341.917 26.978 342.211 26.782C342.519 26.572 342.771 26.32 342.967 26.026C343.177 25.732 343.282 25.396 343.282 25.018ZM347.061 16.261H347.25C347.32 16.261 347.404 16.226 347.502 16.156C347.614 16.086 347.733 16.009 347.859 15.925C347.999 15.827 348.16 15.715 348.342 15.589C348.538 15.463 348.755 15.351 348.993 15.253C349.245 15.141 349.525 15.05 349.833 14.98C350.141 14.91 350.484 14.875 350.862 14.875C351.338 14.875 351.8 14.945 352.248 15.085C352.696 15.211 353.095 15.414 353.445 15.694C353.795 15.96 354.075 16.303 354.285 16.723C354.495 17.143 354.6 17.647 354.6 18.235C354.6 18.725 354.516 19.173 354.348 19.579C354.18 19.985 353.949 20.363 353.655 20.713C353.375 21.063 353.053 21.399 352.689 21.721C352.339 22.029 351.975 22.337 351.597 22.645C351.233 22.939 350.876 23.24 350.526 23.548C350.19 23.856 349.882 24.178 349.602 24.514C349.336 24.85 349.112 25.214 348.93 25.606C348.748 25.984 348.643 26.39 348.615 26.824H352.983C353.515 26.824 353.935 26.733 354.243 26.551C354.551 26.355 354.712 26.04 354.726 25.606H354.915V28H347.145C347.145 27.37 347.25 26.789 347.46 26.257C347.67 25.711 347.943 25.214 348.279 24.766C348.615 24.304 348.986 23.877 349.392 23.485C349.812 23.093 350.225 22.715 350.631 22.351C350.967 22.057 351.289 21.763 351.597 21.469C351.919 21.175 352.199 20.881 352.437 20.587C352.689 20.279 352.885 19.964 353.025 19.642C353.179 19.306 353.256 18.956 353.256 18.592C353.256 18.13 353.172 17.717 353.004 17.353C352.85 16.989 352.64 16.681 352.374 16.429C352.122 16.177 351.828 15.988 351.492 15.862C351.156 15.722 350.82 15.652 350.484 15.652C349.77 15.652 349.14 15.869 348.594 16.303C348.048 16.723 347.607 17.269 347.271 17.941H347.061V16.261ZM357.429 15.484H357.618C357.73 15.484 357.849 15.463 357.975 15.421C358.101 15.379 358.241 15.33 358.395 15.274C358.633 15.19 358.92 15.106 359.256 15.022C359.592 14.924 360.005 14.875 360.495 14.875C361.055 14.875 361.552 14.959 361.986 15.127C362.434 15.281 362.805 15.498 363.099 15.778C363.407 16.044 363.638 16.359 363.792 16.723C363.96 17.087 364.044 17.465 364.044 17.857C364.044 18.403 363.876 18.928 363.54 19.432C363.218 19.936 362.714 20.342 362.028 20.65C362.994 20.93 363.715 21.378 364.191 21.994C364.667 22.61 364.905 23.31 364.905 24.094C364.905 24.682 364.793 25.228 364.569 25.732C364.359 26.222 364.044 26.656 363.624 27.034C363.218 27.398 362.728 27.685 362.154 27.895C361.58 28.105 360.936 28.21 360.222 28.21C359.69 28.21 359.249 28.161 358.899 28.063C358.549 27.965 358.255 27.874 358.017 27.79C357.863 27.734 357.723 27.692 357.597 27.664C357.471 27.622 357.345 27.601 357.219 27.601H357.03V25.984H357.24C357.604 26.488 358.052 26.873 358.584 27.139C359.13 27.391 359.69 27.517 360.264 27.517C360.768 27.517 361.223 27.433 361.629 27.265C362.035 27.083 362.378 26.845 362.658 26.551C362.952 26.257 363.169 25.921 363.309 25.543C363.463 25.165 363.54 24.773 363.54 24.367C363.54 23.947 363.456 23.541 363.288 23.149C363.12 22.743 362.882 22.386 362.574 22.078C362.266 21.77 361.888 21.525 361.44 21.343C361.006 21.161 360.509 21.07 359.949 21.07H358.983V20.377H360.054C360.488 20.377 360.866 20.307 361.188 20.167C361.524 20.027 361.804 19.838 362.028 19.6C362.252 19.362 362.42 19.096 362.532 18.802C362.644 18.508 362.7 18.2 362.7 17.878C362.7 17.584 362.644 17.297 362.532 17.017C362.434 16.737 362.28 16.492 362.07 16.282C361.86 16.058 361.601 15.876 361.293 15.736C360.999 15.596 360.656 15.526 360.264 15.526C359.788 15.526 359.312 15.659 358.836 15.925C358.36 16.191 357.961 16.59 357.639 17.122H357.429V15.484ZM371.999 20.23C371.495 20.23 371.054 20.321 370.676 20.503C370.312 20.671 370.004 20.902 369.752 21.196C369.514 21.49 369.332 21.826 369.206 22.204C369.094 22.582 369.038 22.974 369.038 23.38C369.038 23.87 369.108 24.36 369.248 24.85C369.402 25.34 369.619 25.781 369.899 26.173C370.193 26.551 370.543 26.866 370.949 27.118C371.355 27.356 371.824 27.475 372.356 27.475C372.832 27.475 373.252 27.384 373.616 27.202C373.98 27.006 374.281 26.754 374.519 26.446C374.771 26.124 374.953 25.76 375.065 25.354C375.191 24.948 375.254 24.535 375.254 24.115C375.254 23.639 375.177 23.17 375.023 22.708C374.883 22.246 374.673 21.833 374.393 21.469C374.127 21.091 373.791 20.79 373.385 20.566C372.979 20.342 372.517 20.23 371.999 20.23ZM374.981 16.765C374.757 16.485 374.484 16.261 374.162 16.093C373.854 15.925 373.56 15.841 373.28 15.841C372.636 15.841 372.076 16.002 371.6 16.324C371.124 16.632 370.725 17.017 370.403 17.479C370.095 17.941 369.85 18.445 369.668 18.991C369.486 19.523 369.367 20.02 369.311 20.482C369.717 20.118 370.172 19.866 370.676 19.726C371.18 19.572 371.705 19.495 372.251 19.495C372.965 19.495 373.588 19.621 374.12 19.873C374.666 20.111 375.114 20.433 375.464 20.839C375.828 21.231 376.094 21.686 376.262 22.204C376.444 22.722 376.535 23.254 376.535 23.8C376.535 24.346 376.444 24.885 376.262 25.417C376.08 25.949 375.807 26.425 375.443 26.845C375.079 27.251 374.624 27.58 374.078 27.832C373.546 28.084 372.923 28.21 372.209 28.21C371.425 28.21 370.746 28.063 370.172 27.769C369.598 27.475 369.129 27.083 368.765 26.593C368.401 26.089 368.128 25.508 367.946 24.85C367.778 24.192 367.694 23.506 367.694 22.792C367.694 21.868 367.82 20.951 368.072 20.041C368.338 19.117 368.723 18.291 369.227 17.563C369.731 16.821 370.347 16.219 371.075 15.757C371.803 15.295 372.636 15.064 373.574 15.064C373.77 15.064 373.973 15.078 374.183 15.106C374.407 15.134 374.603 15.162 374.771 15.19C374.855 15.204 374.939 15.218 375.023 15.232C375.121 15.246 375.177 15.253 375.191 15.253V16.765H374.981ZM379.374 21.49C379.374 20.412 379.507 19.46 379.773 18.634C380.053 17.808 380.417 17.122 380.865 16.576C381.313 16.016 381.817 15.596 382.377 15.316C382.951 15.022 383.532 14.875 384.12 14.875C384.708 14.875 385.289 15.022 385.863 15.316C386.437 15.596 386.941 16.016 387.375 16.576C387.823 17.122 388.18 17.808 388.446 18.634C388.726 19.46 388.866 20.412 388.866 21.49C388.866 22.582 388.726 23.548 388.446 24.388C388.18 25.214 387.823 25.914 387.375 26.488C386.941 27.048 386.437 27.475 385.863 27.769C385.289 28.063 384.708 28.21 384.12 28.21C383.532 28.21 382.951 28.063 382.377 27.769C381.817 27.475 381.313 27.048 380.865 26.488C380.417 25.914 380.053 25.214 379.773 24.388C379.507 23.548 379.374 22.582 379.374 21.49ZM387.543 22.036C387.543 21.028 387.431 20.139 387.207 19.369C386.983 18.585 386.689 17.934 386.325 17.416C385.975 16.884 385.569 16.485 385.107 16.219C384.659 15.939 384.197 15.799 383.721 15.799C383.245 15.799 382.811 15.939 382.419 16.219C382.041 16.485 381.719 16.842 381.453 17.29C381.187 17.738 380.977 18.256 380.823 18.844C380.683 19.432 380.613 20.048 380.613 20.692C380.613 21.462 380.704 22.246 380.886 23.044C381.068 23.828 381.327 24.542 381.663 25.186C381.999 25.816 382.398 26.334 382.86 26.74C383.336 27.146 383.854 27.349 384.414 27.349C384.82 27.349 385.212 27.237 385.59 27.013C385.968 26.775 386.297 26.432 386.577 25.984C386.871 25.536 387.102 24.983 387.27 24.325C387.452 23.667 387.543 22.904 387.543 22.036ZM396.031 20.23C395.527 20.23 395.086 20.321 394.708 20.503C394.344 20.671 394.036 20.902 393.784 21.196C393.546 21.49 393.364 21.826 393.238 22.204C393.126 22.582 393.07 22.974 393.07 23.38C393.07 23.87 393.14 24.36 393.28 24.85C393.434 25.34 393.651 25.781 393.931 26.173C394.225 26.551 394.575 26.866 394.981 27.118C395.387 27.356 395.856 27.475 396.388 27.475C396.864 27.475 397.284 27.384 397.648 27.202C398.012 27.006 398.313 26.754 398.551 26.446C398.803 26.124 398.985 25.76 399.097 25.354C399.223 24.948 399.286 24.535 399.286 24.115C399.286 23.639 399.209 23.17 399.055 22.708C398.915 22.246 398.705 21.833 398.425 21.469C398.159 21.091 397.823 20.79 397.417 20.566C397.011 20.342 396.549 20.23 396.031 20.23ZM399.013 16.765C398.789 16.485 398.516 16.261 398.194 16.093C397.886 15.925 397.592 15.841 397.312 15.841C396.668 15.841 396.108 16.002 395.632 16.324C395.156 16.632 394.757 17.017 394.435 17.479C394.127 17.941 393.882 18.445 393.7 18.991C393.518 19.523 393.399 20.02 393.343 20.482C393.749 20.118 394.204 19.866 394.708 19.726C395.212 19.572 395.737 19.495 396.283 19.495C396.997 19.495 397.62 19.621 398.152 19.873C398.698 20.111 399.146 20.433 399.496 20.839C399.86 21.231 400.126 21.686 400.294 22.204C400.476 22.722 400.567 23.254 400.567 23.8C400.567 24.346 400.476 24.885 400.294 25.417C400.112 25.949 399.839 26.425 399.475 26.845C399.111 27.251 398.656 27.58 398.11 27.832C397.578 28.084 396.955 28.21 396.241 28.21C395.457 28.21 394.778 28.063 394.204 27.769C393.63 27.475 393.161 27.083 392.797 26.593C392.433 26.089 392.16 25.508 391.978 24.85C391.81 24.192 391.726 23.506 391.726 22.792C391.726 21.868 391.852 20.951 392.104 20.041C392.37 19.117 392.755 18.291 393.259 17.563C393.763 16.821 394.379 16.219 395.107 15.757C395.835 15.295 396.668 15.064 397.606 15.064C397.802 15.064 398.005 15.078 398.215 15.106C398.439 15.134 398.635 15.162 398.803 15.19C398.887 15.204 398.971 15.218 399.055 15.232C399.153 15.246 399.209 15.253 399.223 15.253V16.765H399.013ZM404.814 28V27.79C405.15 27.79 405.36 27.692 405.444 27.496C405.542 27.286 405.591 27.041 405.591 26.761V16.702C405.591 16.562 405.521 16.492 405.381 16.492C405.325 16.492 405.248 16.513 405.15 16.555L402.756 17.311V16.555L407.649 14.854V15.421C407.425 15.519 407.243 15.673 407.103 15.883C406.977 16.093 406.928 16.338 406.956 16.618V26.677C406.956 26.971 407.005 27.23 407.103 27.454C407.201 27.678 407.425 27.79 407.775 27.79V28H404.814Z" fill="white"/>
<path d="M12.184 249V248.79C12.52 248.79 12.73 248.692 12.814 248.496C12.912 248.286 12.961 248.041 12.961 247.761V237.702C12.961 237.562 12.891 237.492 12.751 237.492C12.695 237.492 12.618 237.513 12.52 237.555L10.126 238.311V237.555L15.019 235.854V236.421C14.795 236.519 14.613 236.673 14.473 236.883C14.347 237.093 14.298 237.338 14.326 237.618V247.677C14.326 247.971 14.375 248.23 14.473 248.454C14.571 248.678 14.795 248.79 15.145 248.79V249H12.184ZM18.8661 242.49C18.8661 241.412 18.9991 240.46 19.2651 239.634C19.5451 238.808 19.9091 238.122 20.3571 237.576C20.8051 237.016 21.3091 236.596 21.8691 236.316C22.4431 236.022 23.0241 235.875 23.6121 235.875C24.2001 235.875 24.7811 236.022 25.3551 236.316C25.9291 236.596 26.4331 237.016 26.8671 237.576C27.3151 238.122 27.6721 238.808 27.9381 239.634C28.2181 240.46 28.3581 241.412 28.3581 242.49C28.3581 243.582 28.2181 244.548 27.9381 245.388C27.6721 246.214 27.3151 246.914 26.8671 247.488C26.4331 248.048 25.9291 248.475 25.3551 248.769C24.7811 249.063 24.2001 249.21 23.6121 249.21C23.0241 249.21 22.4431 249.063 21.8691 248.769C21.3091 248.475 20.8051 248.048 20.3571 247.488C19.9091 246.914 19.5451 246.214 19.2651 245.388C18.9991 244.548 18.8661 243.582 18.8661 242.49ZM27.0351 243.036C27.0351 242.028 26.9231 241.139 26.6991 240.369C26.4751 239.585 26.1811 238.934 25.8171 238.416C25.4671 237.884 25.0611 237.485 24.5991 237.219C24.1511 236.939 23.6891 236.799 23.2131 236.799C22.7371 236.799 22.3031 236.939 21.9111 237.219C21.5331 237.485 21.2111 237.842 20.9451 238.29C20.6791 238.738 20.4691 239.256 20.3151 239.844C20.1751 240.432 20.1051 241.048 20.1051 241.692C20.1051 242.462 20.1961 243.246 20.3781 244.044C20.5601 244.828 20.8191 245.542 21.1551 246.186C21.4911 246.816 21.8901 247.334 22.3521 247.74C22.8281 248.146 23.3461 248.349 23.9061 248.349C24.3121 248.349 24.7041 248.237 25.0821 248.013C25.4601 247.775 25.7891 247.432 26.0691 246.984C26.3631 246.536 26.5941 245.983 26.7621 245.325C26.9441 244.667 27.0351 243.904 27.0351 243.036ZM38.0384 242.49C38.0384 241.412 38.1714 240.46 38.4374 239.634C38.7174 238.808 39.0814 238.122 39.5294 237.576C39.9774 237.016 40.4814 236.596 41.0414 236.316C41.6154 236.022 42.1964 235.875 42.7844 235.875C43.3724 235.875 43.9534 236.022 44.5274 236.316C45.1014 236.596 45.6054 237.016 46.0394 237.576C46.4874 238.122 46.8444 238.808 47.1104 239.634C47.3904 240.46 47.5304 241.412 47.5304 242.49C47.5304 243.582 47.3904 244.548 47.1104 245.388C46.8444 246.214 46.4874 246.914 46.0394 247.488C45.6054 248.048 45.1014 248.475 44.5274 248.769C43.9534 249.063 43.3724 249.21 42.7844 249.21C42.1964 249.21 41.6154 249.063 41.0414 248.769C40.4814 248.475 39.9774 248.048 39.5294 247.488C39.0814 246.914 38.7174 246.214 38.4374 245.388C38.1714 244.548 38.0384 243.582 38.0384 242.49ZM46.2074 243.036C46.2074 242.028 46.0954 241.139 45.8714 240.369C45.6474 239.585 45.3534 238.934 44.9894 238.416C44.6394 237.884 44.2334 237.485 43.7714 237.219C43.3234 236.939 42.8614 236.799 42.3854 236.799C41.9094 236.799 41.4754 236.939 41.0834 237.219C40.7054 237.485 40.3834 237.842 40.1174 238.29C39.8514 238.738 39.6414 239.256 39.4874 239.844C39.3474 240.432 39.2774 241.048 39.2774 241.692C39.2774 242.462 39.3684 243.246 39.5504 244.044C39.7324 244.828 39.9914 245.542 40.3274 246.186C40.6634 246.816 41.0624 247.334 41.5244 247.74C42.0004 248.146 42.5184 248.349 43.0784 248.349C43.4844 248.349 43.8764 248.237 44.2544 248.013C44.6324 247.775 44.9614 247.432 45.2414 246.984C45.5354 246.536 45.7664 245.983 45.9344 245.325C46.1164 244.667 46.2074 243.904 46.2074 243.036ZM50.4957 242.49C50.4957 241.412 50.6287 240.46 50.8947 239.634C51.1747 238.808 51.5387 238.122 51.9867 237.576C52.4347 237.016 52.9387 236.596 53.4987 236.316C54.0727 236.022 54.6537 235.875 55.2417 235.875C55.8297 235.875 56.4107 236.022 56.9847 236.316C57.5587 236.596 58.0627 237.016 58.4967 237.576C58.9447 238.122 59.3017 238.808 59.5677 239.634C59.8477 240.46 59.9877 241.412 59.9877 242.49C59.9877 243.582 59.8477 244.548 59.5677 245.388C59.3017 246.214 58.9447 246.914 58.4967 247.488C58.0627 248.048 57.5587 248.475 56.9847 248.769C56.4107 249.063 55.8297 249.21 55.2417 249.21C54.6537 249.21 54.0727 249.063 53.4987 248.769C52.9387 248.475 52.4347 248.048 51.9867 247.488C51.5387 246.914 51.1747 246.214 50.8947 245.388C50.6287 244.548 50.4957 243.582 50.4957 242.49ZM58.6647 243.036C58.6647 242.028 58.5527 241.139 58.3287 240.369C58.1047 239.585 57.8107 238.934 57.4467 238.416C57.0967 237.884 56.6907 237.485 56.2287 237.219C55.7807 236.939 55.3187 236.799 54.8427 236.799C54.3667 236.799 53.9327 236.939 53.5407 237.219C53.1627 237.485 52.8407 237.842 52.5747 238.29C52.3087 238.738 52.0987 239.256 51.9447 239.844C51.8047 240.432 51.7347 241.048 51.7347 241.692C51.7347 242.462 51.8257 243.246 52.0077 244.044C52.1897 244.828 52.4487 245.542 52.7847 246.186C53.1207 246.816 53.5197 247.334 53.9817 247.74C54.4577 248.146 54.9757 248.349 55.5357 248.349C55.9417 248.349 56.3337 248.237 56.7117 248.013C57.0897 247.775 57.4187 247.432 57.6987 246.984C57.9927 246.536 58.2237 245.983 58.3917 245.325C58.5737 244.667 58.6647 243.904 58.6647 243.036ZM62.953 242.49C62.953 241.412 63.086 240.46 63.352 239.634C63.632 238.808 63.996 238.122 64.444 237.576C64.892 237.016 65.396 236.596 65.956 236.316C66.53 236.022 67.111 235.875 67.699 235.875C68.287 235.875 68.868 236.022 69.442 236.316C70.016 236.596 70.52 237.016 70.954 237.576C71.402 238.122 71.759 238.808 72.025 239.634C72.305 240.46 72.445 241.412 72.445 242.49C72.445 243.582 72.305 244.548 72.025 245.388C71.759 246.214 71.402 246.914 70.954 247.488C70.52 248.048 70.016 248.475 69.442 248.769C68.868 249.063 68.287 249.21 67.699 249.21C67.111 249.21 66.53 249.063 65.956 248.769C65.396 248.475 64.892 248.048 64.444 247.488C63.996 246.914 63.632 246.214 63.352 245.388C63.086 244.548 62.953 243.582 62.953 242.49ZM71.122 243.036C71.122 242.028 71.01 241.139 70.786 240.369C70.562 239.585 70.268 238.934 69.904 238.416C69.554 237.884 69.148 237.485 68.686 237.219C68.238 236.939 67.776 236.799 67.3 236.799C66.824 236.799 66.39 236.939 65.998 237.219C65.62 237.485 65.298 237.842 65.032 238.29C64.766 238.738 64.556 239.256 64.402 239.844C64.262 240.432 64.192 241.048 64.192 241.692C64.192 242.462 64.283 243.246 64.465 244.044C64.647 244.828 64.906 245.542 65.242 246.186C65.578 246.816 65.977 247.334 66.439 247.74C66.915 248.146 67.433 248.349 67.993 248.349C68.399 248.349 68.791 248.237 69.169 248.013C69.547 247.775 69.876 247.432 70.156 246.984C70.45 246.536 70.681 245.983 70.849 245.325C71.031 244.667 71.122 243.904 71.122 243.036Z" fill="white"/>
<path d="M93.575 168.65H93.75C93.9133 168.65 94.065 168.58 94.205 168.44C94.345 168.3 94.4617 168.137 94.555 167.95C94.6717 167.763 94.7533 167.565 94.8 167.355C94.8467 167.122 94.87 166.912 94.87 166.725V148.105C94.87 147.942 94.8467 147.755 94.8 147.545C94.7533 147.335 94.6717 147.137 94.555 146.95C94.4617 146.74 94.3333 146.577 94.17 146.46C94.03 146.32 93.8667 146.25 93.68 146.25H93.505V145.9H99.245C101.415 145.9 103.107 146.378 104.32 147.335C105.557 148.292 106.175 149.563 106.175 151.15C106.175 151.827 106.058 152.433 105.825 152.97C105.592 153.507 105.288 153.985 104.915 154.405C104.565 154.825 104.18 155.187 103.76 155.49C103.34 155.77 102.943 156.003 102.57 156.19C103.55 156.377 104.367 156.692 105.02 157.135C105.673 157.578 106.198 158.092 106.595 158.675C107.015 159.235 107.307 159.842 107.47 160.495C107.633 161.148 107.715 161.79 107.715 162.42C107.715 163.633 107.493 164.66 107.05 165.5C106.607 166.317 106.012 166.993 105.265 167.53C104.542 168.043 103.702 168.417 102.745 168.65C101.812 168.883 100.843 169 99.84 169H93.575V168.65ZM105.335 162.63C105.148 160.833 104.542 159.445 103.515 158.465C102.488 157.485 101.042 156.995 99.175 156.995H97.215V167.845H99.245C101.135 167.845 102.617 167.425 103.69 166.585C104.787 165.722 105.335 164.532 105.335 163.015V162.63ZM103.9 151.465C103.83 150.112 103.352 149.038 102.465 148.245C101.602 147.452 100.435 147.055 98.965 147.055H97.215V155.875H99.035C100.015 155.875 100.808 155.747 101.415 155.49C102.045 155.233 102.547 154.907 102.92 154.51C103.293 154.09 103.55 153.635 103.69 153.145C103.83 152.655 103.9 152.177 103.9 151.71V151.465ZM112.799 168.65H112.974C113.161 168.65 113.324 168.592 113.464 168.475C113.604 168.335 113.721 168.172 113.814 167.985C113.931 167.798 114.012 167.6 114.059 167.39C114.129 167.18 114.164 166.982 114.164 166.795V148.07C114.164 147.907 114.129 147.72 114.059 147.51C114.012 147.3 113.931 147.102 113.814 146.915C113.721 146.728 113.604 146.577 113.464 146.46C113.324 146.32 113.161 146.25 112.974 146.25H112.799V145.9H126.274V149.155H125.924C125.877 148.618 125.667 148.152 125.294 147.755C124.921 147.335 124.337 147.125 123.544 147.125H116.509V155.98H122.319C122.856 155.98 123.299 155.817 123.649 155.49C124.022 155.163 124.209 154.778 124.209 154.335H124.559V158.71H124.209C124.209 158.29 124.034 157.928 123.684 157.625C123.334 157.322 122.879 157.17 122.319 157.17H116.509V167.775H124.174C124.617 167.775 125.002 167.67 125.329 167.46C125.656 167.25 125.924 167.005 126.134 166.725C126.367 166.422 126.531 166.107 126.624 165.78C126.741 165.43 126.799 165.138 126.799 164.905H127.149V169H112.799V168.65ZM143.044 146.81C141.318 146.81 139.813 147.125 138.529 147.755C137.269 148.362 136.219 149.167 135.379 150.17C134.539 151.15 133.909 152.258 133.489 153.495C133.093 154.732 132.894 155.957 132.894 157.17C132.894 158.547 133.163 159.9 133.699 161.23C134.236 162.537 134.971 163.703 135.904 164.73C136.861 165.733 137.969 166.55 139.229 167.18C140.489 167.787 141.854 168.09 143.324 168.09C143.744 168.09 144.234 168.043 144.794 167.95C145.378 167.857 145.949 167.682 146.509 167.425C147.069 167.145 147.583 166.76 148.049 166.27C148.539 165.78 148.913 165.138 149.169 164.345H149.519V168.23C149.169 168.23 148.796 168.277 148.399 168.37C148.026 168.463 147.606 168.568 147.139 168.685C146.533 168.848 145.856 169 145.109 169.14C144.386 169.28 143.616 169.35 142.799 169.35C140.769 169.35 138.984 169 137.444 168.3C135.904 167.6 134.621 166.69 133.594 165.57C132.568 164.45 131.798 163.19 131.284 161.79C130.771 160.367 130.514 158.932 130.514 157.485C130.514 156.038 130.771 154.603 131.284 153.18C131.798 151.757 132.579 150.485 133.629 149.365C134.679 148.222 135.998 147.3 137.584 146.6C139.171 145.9 141.038 145.55 143.184 145.55C143.954 145.55 144.643 145.62 145.249 145.76C145.879 145.9 146.439 146.04 146.929 146.18C147.279 146.297 147.594 146.39 147.874 146.46C148.178 146.507 148.469 146.53 148.749 146.53V150.415H148.399C148.259 149.692 148.003 149.097 147.629 148.63C147.256 148.14 146.813 147.767 146.299 147.51C145.809 147.253 145.273 147.078 144.689 146.985C144.129 146.868 143.581 146.81 143.044 146.81ZM168.596 168.65H168.771C168.934 168.65 169.086 168.592 169.226 168.475C169.366 168.335 169.483 168.172 169.576 167.985C169.693 167.775 169.774 167.565 169.821 167.355C169.868 167.122 169.891 166.912 169.891 166.725V157.205H158.691V166.725C158.691 166.912 158.714 167.122 158.761 167.355C158.808 167.565 158.878 167.763 158.971 167.95C159.064 168.137 159.169 168.3 159.286 168.44C159.426 168.58 159.589 168.65 159.776 168.65H159.951V169H155.051V168.65H155.226C155.389 168.65 155.541 168.592 155.681 168.475C155.821 168.335 155.938 168.172 156.031 167.985C156.148 167.775 156.229 167.565 156.276 167.355C156.323 167.122 156.346 166.912 156.346 166.725V148.07C156.346 147.907 156.323 147.72 156.276 147.51C156.229 147.3 156.159 147.102 156.066 146.915C155.973 146.728 155.856 146.577 155.716 146.46C155.576 146.32 155.413 146.25 155.226 146.25H155.051V145.9H159.951V146.25H159.776C159.589 146.25 159.426 146.32 159.286 146.46C159.146 146.577 159.029 146.728 158.936 146.915C158.866 147.102 158.808 147.3 158.761 147.51C158.714 147.72 158.691 147.907 158.691 148.07V155.98H169.891V148.07C169.891 147.907 169.868 147.72 169.821 147.51C169.774 147.3 169.704 147.102 169.611 146.915C169.518 146.728 169.401 146.577 169.261 146.46C169.121 146.32 168.958 146.25 168.771 146.25H168.596V145.9H173.496V146.25H173.321C173.134 146.25 172.971 146.32 172.831 146.46C172.691 146.577 172.574 146.728 172.481 146.915C172.411 147.102 172.353 147.3 172.306 147.51C172.259 147.72 172.236 147.907 172.236 148.07V166.725C172.236 166.912 172.259 167.122 172.306 167.355C172.376 167.565 172.458 167.763 172.551 167.95C172.644 168.137 172.749 168.3 172.866 168.44C173.006 168.58 173.158 168.65 173.321 168.65H173.496V169H168.596V168.65ZM191.873 168.65H192.048C192.608 168.65 192.888 168.393 192.888 167.88C192.888 167.693 192.853 167.495 192.783 167.285L189.633 158.78H183.508L180.463 167.145C180.393 167.332 180.358 167.507 180.358 167.67C180.358 167.973 180.44 168.218 180.603 168.405C180.767 168.568 180.942 168.65 181.128 168.65H181.303V169H177.418V168.65H177.593C177.897 168.65 178.188 168.475 178.468 168.125C178.772 167.752 179.017 167.32 179.203 166.83L187.218 145.48L195.058 166.62C195.222 167.087 195.443 167.542 195.723 167.985C196.027 168.428 196.412 168.65 196.878 168.65H197.053V169H191.873V168.65ZM183.858 157.59H189.248L186.553 150.275L183.858 157.59ZM212.44 168.65H212.615C212.778 168.65 212.93 168.58 213.07 168.44C213.21 168.3 213.326 168.137 213.42 167.95C213.536 167.763 213.618 167.565 213.665 167.355C213.711 167.122 213.735 166.912 213.735 166.725V148.105C213.735 147.942 213.711 147.755 213.665 147.545C213.618 147.335 213.536 147.137 213.42 146.95C213.326 146.74 213.198 146.577 213.035 146.46C212.895 146.32 212.731 146.25 212.545 146.25H212.37V145.9H218.11C220.28 145.9 221.971 146.378 223.185 147.335C224.421 148.292 225.04 149.563 225.04 151.15C225.04 151.827 224.923 152.433 224.69 152.97C224.456 153.507 224.153 153.985 223.78 154.405C223.43 154.825 223.045 155.187 222.625 155.49C222.205 155.77 221.808 156.003 221.435 156.19C222.415 156.377 223.231 156.692 223.885 157.135C224.538 157.578 225.063 158.092 225.46 158.675C225.88 159.235 226.171 159.842 226.335 160.495C226.498 161.148 226.58 161.79 226.58 162.42C226.58 163.633 226.358 164.66 225.915 165.5C225.471 166.317 224.876 166.993 224.13 167.53C223.406 168.043 222.566 168.417 221.61 168.65C220.676 168.883 219.708 169 218.705 169H212.44V168.65ZM224.2 162.63C224.013 160.833 223.406 159.445 222.38 158.465C221.353 157.485 219.906 156.995 218.04 156.995H216.08V167.845H218.11C220 167.845 221.481 167.425 222.555 166.585C223.651 165.722 224.2 164.532 224.2 163.015V162.63ZM222.765 151.465C222.695 150.112 222.216 149.038 221.33 148.245C220.466 147.452 219.3 147.055 217.83 147.055H216.08V155.875H217.9C218.88 155.875 219.673 155.747 220.28 155.49C220.91 155.233 221.411 154.907 221.785 154.51C222.158 154.09 222.415 153.635 222.555 153.145C222.695 152.655 222.765 152.177 222.765 151.71V151.465ZM242.753 146.81C241.027 146.81 239.522 147.125 238.238 147.755C236.978 148.362 235.928 149.167 235.088 150.17C234.248 151.15 233.618 152.258 233.198 153.495C232.802 154.732 232.603 155.957 232.603 157.17C232.603 158.547 232.872 159.9 233.408 161.23C233.945 162.537 234.68 163.703 235.613 164.73C236.57 165.733 237.678 166.55 238.938 167.18C240.198 167.787 241.563 168.09 243.033 168.09C243.453 168.09 243.943 168.043 244.503 167.95C245.087 167.857 245.658 167.682 246.218 167.425C246.778 167.145 247.292 166.76 247.758 166.27C248.248 165.78 248.622 165.138 248.878 164.345H249.228V168.23C248.878 168.23 248.505 168.277 248.108 168.37C247.735 168.463 247.315 168.568 246.848 168.685C246.242 168.848 245.565 169 244.818 169.14C244.095 169.28 243.325 169.35 242.508 169.35C240.478 169.35 238.693 169 237.153 168.3C235.613 167.6 234.33 166.69 233.303 165.57C232.277 164.45 231.507 163.19 230.993 161.79C230.48 160.367 230.223 158.932 230.223 157.485C230.223 156.038 230.48 154.603 230.993 153.18C231.507 151.757 232.288 150.485 233.338 149.365C234.388 148.222 235.707 147.3 237.293 146.6C238.88 145.9 240.747 145.55 242.893 145.55C243.663 145.55 244.352 145.62 244.958 145.76C245.588 145.9 246.148 146.04 246.638 146.18C246.988 146.297 247.303 146.39 247.583 146.46C247.887 146.507 248.178 146.53 248.458 146.53V150.415H248.108C247.968 149.692 247.712 149.097 247.338 148.63C246.965 148.14 246.522 147.767 246.008 147.51C245.518 147.253 244.982 147.078 244.398 146.985C243.838 146.868 243.29 146.81 242.753 146.81ZM254.34 168.65H254.515C254.702 168.65 254.865 168.592 255.005 168.475C255.145 168.335 255.262 168.172 255.355 167.985C255.472 167.798 255.553 167.6 255.6 167.39C255.67 167.18 255.705 166.982 255.705 166.795V148.07C255.705 147.907 255.67 147.72 255.6 147.51C255.553 147.3 255.472 147.102 255.355 146.915C255.262 146.728 255.145 146.577 255.005 146.46C254.865 146.32 254.702 146.25 254.515 146.25H254.34V145.9H267.815V149.155H267.465C267.418 148.618 267.208 148.152 266.835 147.755C266.462 147.335 265.878 147.125 265.085 147.125H258.05V155.98H263.86C264.397 155.98 264.84 155.817 265.19 155.49C265.563 155.163 265.75 154.778 265.75 154.335H266.1V158.71H265.75C265.75 158.29 265.575 157.928 265.225 157.625C264.875 157.322 264.42 157.17 263.86 157.17H258.05V167.775H265.715C266.158 167.775 266.543 167.67 266.87 167.46C267.197 167.25 267.465 167.005 267.675 166.725C267.908 166.422 268.072 166.107 268.165 165.78C268.282 165.43 268.34 165.138 268.34 164.905H268.69V169H254.34V168.65ZM278.292 168.65H278.467V169H273.427V168.65H273.602C273.789 168.65 273.952 168.592 274.092 168.475C274.232 168.335 274.349 168.172 274.442 167.985C274.559 167.798 274.64 167.6 274.687 167.39C274.734 167.18 274.757 166.982 274.757 166.795V148.07C274.757 147.907 274.734 147.72 274.687 147.51C274.64 147.3 274.559 147.102 274.442 146.915C274.349 146.728 274.232 146.577 274.092 146.46C273.952 146.32 273.789 146.25 273.602 146.25H273.427V145.9H286.902V149.61H286.552C286.552 148.77 286.365 148.152 285.992 147.755C285.642 147.335 285.082 147.125 284.312 147.125H277.137V166.795C277.137 166.982 277.16 167.18 277.207 167.39C277.254 167.6 277.324 167.798 277.417 167.985C277.534 168.172 277.662 168.335 277.802 168.475C277.942 168.592 278.105 168.65 278.292 168.65ZM306.588 167.775V172.15H306.238C306.215 171.847 306.133 171.508 305.993 171.135C305.853 170.762 305.655 170.412 305.398 170.085C305.165 169.782 304.885 169.525 304.558 169.315C304.232 169.105 303.87 169 303.473 169H287.338C286.942 169 286.58 169.105 286.253 169.315C285.927 169.548 285.635 169.817 285.378 170.12C285.145 170.447 284.947 170.797 284.783 171.17C284.643 171.543 284.562 171.87 284.538 172.15H284.188V167.775H285.728C286.475 167.775 287 167.343 287.303 166.48L295.353 145.375L303.473 166.375C303.637 166.725 303.858 167.052 304.138 167.355C304.418 167.635 304.745 167.775 305.118 167.775H306.588ZM288.073 167.775H301.548L294.793 150.38L288.073 167.775ZM324.903 168.65H325.078C325.638 168.65 325.918 168.393 325.918 167.88C325.918 167.693 325.883 167.495 325.813 167.285L322.663 158.78H316.538L313.493 167.145C313.423 167.332 313.388 167.507 313.388 167.67C313.388 167.973 313.47 168.218 313.633 168.405C313.797 168.568 313.972 168.65 314.158 168.65H314.333V169H310.448V168.65H310.623C310.927 168.65 311.218 168.475 311.498 168.125C311.802 167.752 312.047 167.32 312.233 166.83L320.248 145.48L328.088 166.62C328.252 167.087 328.473 167.542 328.753 167.985C329.057 168.428 329.442 168.65 329.908 168.65H330.083V169H324.903V168.65ZM316.888 157.59H322.278L319.583 150.275L316.888 157.59Z" fill="white"/>
<path d="M219.31 111.071C219.31 115.354 217.229 119.266 215.105 122.138C214.047 123.569 212.988 124.727 212.194 125.528C211.797 125.928 211.467 126.238 211.237 126.447C211.226 126.457 211.215 126.467 211.204 126.477C211.193 126.467 211.182 126.457 211.171 126.447C210.941 126.238 210.611 125.928 210.214 125.528C209.42 124.727 208.361 123.569 207.303 122.138C205.178 119.266 203.098 115.354 203.098 111.071C203.098 106.789 205.178 102.877 207.303 100.005C208.361 98.5741 209.42 97.4155 210.214 96.6151C210.611 96.2152 210.941 95.9053 211.171 95.6964C211.182 95.686 211.193 95.676 211.204 95.6661C211.215 95.676 211.226 95.686 211.237 95.6964C211.467 95.9053 211.797 96.2152 212.194 96.6151C212.988 97.4155 214.047 98.5741 215.105 100.005C217.229 102.877 219.31 106.789 219.31 111.071Z" stroke="white"/>
<path d="M207.111 109.383C209.808 112.46 210.842 116.917 211.188 120.674C211.36 122.543 211.36 124.217 211.316 125.424C211.294 126.026 211.262 126.511 211.235 126.844C211.232 126.877 211.23 126.909 211.227 126.939C211.201 126.942 211.173 126.945 211.144 126.948C210.852 126.979 210.427 127.016 209.899 127.041C208.842 127.091 207.375 127.091 205.737 126.895C202.445 126.5 198.54 125.319 195.844 122.241C193.147 119.164 192.112 114.707 191.766 110.95C191.594 109.081 191.594 107.407 191.638 106.2C191.66 105.597 191.692 105.112 191.719 104.78C191.722 104.746 191.725 104.715 191.727 104.685C191.754 104.682 191.781 104.679 191.81 104.676C192.102 104.645 192.527 104.608 193.055 104.583C194.112 104.533 195.579 104.533 197.217 104.729C200.509 105.124 204.414 106.305 207.111 109.383Z" stroke="white"/>
<path d="M215.686 109.383C212.989 112.46 211.955 116.917 211.609 120.674C211.437 122.543 211.437 124.217 211.481 125.424C211.503 126.026 211.535 126.511 211.562 126.844C211.565 126.877 211.567 126.909 211.57 126.939C211.596 126.942 211.624 126.945 211.653 126.948C211.945 126.979 212.37 127.016 212.898 127.041C213.955 127.091 215.422 127.091 217.06 126.895C220.352 126.5 224.257 125.319 226.953 122.241C229.65 119.164 230.685 114.707 231.031 110.95C231.203 109.081 231.203 107.407 231.159 106.2C231.137 105.597 231.105 105.112 231.078 104.78C231.075 104.746 231.072 104.715 231.07 104.685C231.043 104.682 231.016 104.679 230.987 104.676C230.695 104.645 230.27 104.608 229.742 104.583C228.685 104.533 227.218 104.533 225.58 104.729C222.288 105.124 218.383 106.305 215.686 109.383Z" stroke="white"/>
<path d="M171.929 115.429H91.5715" stroke="white"/>
<path d="M330.857 115.429L248.714 115.429" stroke="white"/>
<path d="M54.0188 57.5266C54.271 57.9279 54.8033 58.0487 55.2042 57.7963C55.6051 57.5439 55.7258 57.0109 55.4736 56.6096C55.1525 56.1004 54.9197 55.4445 54.7861 54.6958C55.5318 54.8296 56.1891 55.0648 56.6978 55.3841C57.0986 55.6365 57.631 55.5157 57.8832 55.1144C58.1353 54.7131 58.0146 54.1801 57.6138 53.9277C56.8185 53.4271 55.7947 53.0862 54.6567 52.933C54.6848 51.6881 54.952 50.3525 55.5016 49.0989C56.1546 47.6102 57.2064 46.2379 58.7259 45.2821C59.9242 44.5269 61.4221 44.0242 63.2583 43.9142C64.9588 44.007 66.5796 44.2572 67.9977 44.7168C70.3879 45.4935 72.1832 46.8766 72.7177 49.1399C72.7932 49.4636 72.847 49.8045 72.8729 50.1626C72.9656 51.4443 72.4483 52.7863 71.3427 53.8479C70.3146 54.836 68.7844 55.5869 66.7606 55.8501C66.2908 55.9105 65.9567 56.3399 66.0171 56.8103C66.0365 56.9591 66.0925 57.0929 66.1744 57.2073C67.8684 59.7123 68.3469 62.0705 67.9568 63.9477C67.7456 64.9682 67.2714 65.8464 66.599 66.5217C65.9265 67.1949 65.0494 67.6696 64.0278 67.881C62.1484 68.2715 59.7841 67.7904 57.2732 66.0794C56.881 65.814 56.3465 65.9154 56.0814 66.3081C56.0038 66.4246 55.9564 66.5519 55.9391 66.6814C55.6762 68.7052 54.9283 70.2393 53.9391 71.2685C52.8787 72.3753 51.5381 72.8932 50.2579 72.8004C49.9001 72.7745 49.5596 72.7227 49.2363 72.645C46.9754 72.11 45.5939 70.3105 44.818 67.9199C44.359 66.5001 44.109 64.8776 44.0163 63.1752C44.1262 61.337 44.6284 59.8374 45.3827 58.6378C46.3396 57.1167 47.7082 56.0637 49.1954 55.41C50.4475 54.8598 51.7795 54.5922 53.0252 54.5642C53.1782 55.7034 53.5188 56.7283 54.0188 57.5244V57.5266ZM53.924 48.4128C53.2903 49.8606 52.9757 51.4033 52.9369 52.8467C51.495 52.8856 49.9562 53.2006 48.5078 53.8349C46.8785 54.5512 45.3633 55.6732 44.2318 57.2677C44.4323 55.5222 44.7361 53.8435 45.0853 52.3634C45.7017 49.757 45.9905 47.6447 46.0444 45.9488C47.7384 45.8949 49.8462 45.6057 52.4519 44.9887C53.9326 44.6391 55.6072 44.3349 57.3508 44.1342C55.7581 45.267 54.6374 46.7838 53.9218 48.415L53.924 48.4128ZM63.3165 42.1924L63.2864 42.1902C61.8682 42.1147 60.4113 42.1428 58.9716 42.2463C56.5124 42.4233 54.1072 42.8224 52.064 43.3057C49.5165 43.9099 47.538 44.2119 46.0207 44.3025C45.8095 41.3509 44.7038 40.0973 43.527 39.819C42.5378 39.5838 41.5162 39.9959 40.8093 40.7036C40.1024 41.4113 39.6929 42.434 39.9256 43.4244C40.2037 44.6025 41.458 45.7093 44.4042 45.9208C44.3137 47.4397 44.012 49.4204 43.4085 51.9707C42.9257 54.0162 42.527 56.4262 42.3503 58.8859C42.2468 60.3272 42.2188 61.7857 42.2942 63.2055L42.2964 63.2357C42.3955 65.0891 42.6714 66.8713 43.18 68.4463C44.1348 71.3958 45.9 73.6289 48.844 74.3258C49.2514 74.4229 49.6803 74.4877 50.135 74.52C51.911 74.6473 53.7472 73.9526 55.1762 72.4616C56.174 71.4217 56.9736 69.9912 57.4047 68.1852C59.9414 69.6179 62.3596 69.9847 64.3748 69.564C65.7347 69.2813 66.9072 68.6448 67.8145 67.7386C68.7197 66.8324 69.3555 65.6565 69.6379 64.2951C70.056 62.2777 69.6896 59.8547 68.2607 57.3173C70.0646 56.8858 71.4936 56.0853 72.5324 55.0863C74.0217 53.6558 74.7156 51.8175 74.5885 50.0397C74.5562 49.5844 74.4893 49.155 74.3945 48.7472C73.6984 45.8021 71.4677 44.035 68.5215 43.077C66.9481 42.5657 65.1679 42.2916 63.3165 42.1924ZM109.473 11.8174C109.947 11.8174 110.331 11.4334 110.331 10.9587C110.331 10.484 109.947 10.0999 109.473 10.0999L23.1686 10.1107C22.5673 10.0654 21.9659 10.0352 21.3668 10.0223C21.2224 10.0201 21.0866 10.0525 20.9681 10.1129H15.5799C14.4161 10.0417 13.1898 10.0029 11.8945 9.99854C11.7393 9.99854 11.5927 10.0395 11.4677 10.1129H10.8578C10.3836 10.1129 10 10.4969 10 10.9716L10.2414 109.445C10.2414 109.92 10.625 110.304 11.0992 110.304C11.5733 110.304 11.957 109.92 11.957 109.445L11.9397 102.701C11.9764 102.785 12.0152 102.871 12.0583 102.955C13.4161 105.706 15.6575 107.327 18.0412 107.808C19.4055 108.084 20.8086 107.987 22.119 107.519C22.5543 107.363 22.9789 107.167 23.3884 106.927L23.4401 122.659C23.4401 123.133 23.8238 123.517 24.2979 123.517C24.7721 123.517 25.1557 123.133 25.1557 122.659L25.0997 105.592C25.2807 105.409 25.4553 105.212 25.6256 105.007C27.5631 102.64 28.6192 98.8472 27.714 93.6516C27.6342 93.1834 27.1903 92.8663 26.7204 92.9461C26.2527 93.0259 25.9359 93.4704 26.0157 93.9408C26.826 98.5883 25.9445 101.902 24.2979 103.915C23.5177 104.867 22.5629 105.527 21.537 105.894C20.5155 106.259 19.4271 106.334 18.3753 106.123C16.4895 105.741 14.7028 104.431 13.5971 102.194C12.8018 100.582 13.3967 98.8191 14.5282 97.5871C15.0519 97.0154 15.6877 96.5601 16.3515 96.2839C16.9744 96.025 17.6166 95.9279 18.2029 96.0531C19.1986 96.2667 20.0887 97.1686 20.5155 99.0781C20.6168 99.5419 21.0758 99.8354 21.5392 99.7318C22.0026 99.6304 22.2957 99.1708 22.1922 98.7069C21.5909 96.0164 20.1814 94.7132 18.5585 94.3658C17.6166 94.1651 16.6252 94.3032 15.692 94.6916C14.7997 95.0627 13.9527 95.6669 13.263 96.4199C12.7005 97.0326 12.2371 97.749 11.9289 98.5214L11.7651 31.7581C12.9936 35.7519 14.8019 39.5169 16.9615 42.693C18.5563 45.2562 20.1017 48.2531 21.2439 51.2026C22.3086 53.9557 23.022 56.6571 23.0867 58.8988C23.1406 60.7307 22.8668 62.7437 22.0263 65.0028C21.3107 66.923 20.19 69.0246 18.5132 71.344C17.1662 73.0399 16.0412 74.7638 15.2847 76.1728C15.1252 76.4209 15.0972 76.7424 15.2373 77.025C16.1532 78.8633 17.6899 81.2755 19.5542 83.4914C21.259 85.5174 23.2418 87.3838 25.285 88.5143C27.4683 89.7226 29.7313 90.1131 31.8478 89.0581C32.2831 88.8401 32.7163 88.5553 33.1431 88.195C34.2853 87.2306 34.9815 85.744 34.9707 84.02C34.9621 82.5485 34.4362 80.9066 33.2271 79.2927C32.9426 78.9129 32.4038 78.8353 32.0245 79.1201C31.6452 79.4049 31.5676 79.9443 31.8521 80.324C32.8241 81.6207 33.2444 82.9024 33.2508 84.0265C33.2594 85.224 32.7961 86.2402 32.0353 86.881C31.7292 87.1399 31.4081 87.3492 31.0762 87.5154C29.5416 88.2813 27.8196 87.9512 26.1105 87.0062C24.2613 85.9835 22.4423 84.2638 20.8646 82.3867C19.2331 80.447 17.8645 78.3433 16.9787 76.6517C17.4722 75.7714 18.1059 74.7768 18.8451 73.7519C19.1857 73.3182 19.5111 72.8889 19.8172 72.4681C20.1986 71.987 20.6017 71.5058 21.0198 71.0355C22.6535 69.1972 24.5199 67.525 26.3907 66.5562C28.1256 65.6565 29.8585 65.3739 31.3693 66.1808C31.6818 66.3469 31.9943 66.567 32.3068 66.8454C33.0504 67.5078 33.4857 68.5348 33.4469 69.7301C33.4103 70.8542 32.9534 72.1251 31.9469 73.3959C31.6538 73.7692 31.7163 74.3086 32.0891 74.602C32.462 74.8954 33.0008 74.8329 33.2939 74.4596C34.5461 72.8781 35.1151 71.2512 35.1647 69.7819C35.2229 68.0558 34.5677 66.5498 33.4534 65.5551C33.0482 65.1948 32.6236 64.8992 32.1797 64.6618C30.0912 63.5464 27.8196 63.8765 25.604 65.0243C24.8109 65.4343 24.0264 65.9521 23.2612 66.5433C23.397 66.2261 23.5199 65.9133 23.6363 65.6026C24.563 63.1127 24.8647 60.8839 24.8044 58.8514C24.7333 56.396 23.9789 53.5005 22.8474 50.5812C22.5586 49.8368 22.2461 49.0903 21.9142 48.3481C22.8905 49.1874 23.8992 49.9037 24.9251 50.4798C26.8713 51.5737 28.8886 52.1628 30.8994 52.1174C33.1689 52.0657 35.3974 51.2112 37.4643 49.3708C38.3566 48.5768 38.7898 47.7224 38.8071 46.7903C38.8243 45.9013 38.445 45.0059 37.7122 44.0803C35.0612 40.7274 31.3542 39.1847 27.5114 37.588C19.9163 34.4314 11.7651 31.0418 11.7177 11.8929V11.8282H15.4765C31.4684 12.8358 34.6172 20.4242 37.5635 27.5249C39.1584 31.3719 40.6994 35.083 44.0486 37.7369C44.9732 38.4705 45.8676 38.8502 46.7556 38.833C47.6867 38.8157 48.5402 38.382 49.3333 37.4888C51.1717 35.4196 52.0252 33.1908 52.0769 30.9167C52.1222 28.9036 51.5338 26.8841 50.4411 24.9357C49.857 23.8936 49.1285 22.8709 48.2772 21.8806C49.0359 22.2215 49.7988 22.5429 50.5575 22.8364C53.4735 23.967 56.3659 24.7243 58.8185 24.7955C60.8488 24.8538 63.0751 24.5517 65.5623 23.6261C65.8856 23.5052 66.211 23.3758 66.5429 23.2334C65.9847 23.967 65.4955 24.72 65.1032 25.4773C63.9566 27.6953 63.6269 29.9695 64.7412 32.0602C64.9782 32.5025 65.2735 32.9297 65.6334 33.3354C66.6248 34.4509 68.1314 35.1068 69.8556 35.0485C71.3233 34.9989 72.9483 34.4293 74.5281 33.1757C74.901 32.8823 74.9635 32.3407 74.6704 31.9696C74.3773 31.5963 73.8363 31.5337 73.4656 31.8272C72.1962 32.8348 70.9267 33.29 69.8038 33.3289C68.612 33.3699 67.5839 32.9319 66.9223 32.1875C66.6464 31.8768 66.4266 31.5639 66.2585 31.2489C65.4524 29.7365 65.7347 28.0017 66.6335 26.2648C67.6012 24.392 69.2715 22.5235 71.1078 20.888C71.4483 20.5838 71.7953 20.2882 72.1444 20.0034C72.6682 19.628 73.2005 19.2267 73.7458 18.7973C73.791 18.7606 73.8342 18.7196 73.8708 18.6765C74.8773 17.9515 75.8536 17.3301 76.7179 16.8425C78.4076 17.7293 80.509 19.1015 82.4465 20.7327C84.3216 22.3142 86.0393 24.1353 87.0609 25.9843C88.0049 27.6953 88.3347 29.4193 87.5695 30.9555C87.4036 31.2878 87.1945 31.6093 86.9359 31.9156C86.2958 32.6773 85.2807 33.139 84.0845 33.1325C82.9616 33.1261 81.6814 32.7032 80.3861 31.7322C80.0068 31.4474 79.468 31.5251 79.1835 31.9049C78.899 32.2846 78.9766 32.824 79.3559 33.1088C80.9702 34.3192 82.6103 34.8435 84.078 34.8543C85.8001 34.8651 87.2872 34.1682 88.2485 33.0247C88.6084 32.5975 88.8929 32.1638 89.1105 31.7279C90.1666 29.6091 89.7744 27.3458 88.5674 25.158C87.4381 23.1104 85.5738 21.1254 83.55 19.4209C81.3366 17.5545 78.927 16.0161 77.0907 15.0992C76.8084 14.9589 76.4873 14.987 76.2394 15.1466C74.7286 15.96 72.8535 17.1985 71.041 18.6808C68.8254 20.2559 66.8124 21.3239 64.9632 22.0143C62.7066 22.8558 60.6958 23.1298 58.866 23.0759C56.6245 23.0111 53.9283 22.2991 51.1782 21.2311C47.9431 19.9775 44.6564 18.2363 41.9429 16.4779C41.9128 16.4585 41.8804 16.4412 41.8503 16.4239C38.9127 14.536 35.5203 12.948 31.9426 11.8239L98.4967 11.8174C97.7509 12.126 97.0613 12.579 96.4664 13.1249C95.7142 13.8154 95.1108 14.6633 94.7401 15.5566C94.3521 16.4908 94.2142 17.4855 94.4146 18.4262C94.7595 20.0509 96.0634 21.4598 98.751 22.0639C99.2144 22.1654 99.6734 21.8741 99.7747 21.4102C99.876 20.9463 99.5851 20.4867 99.1217 20.3853C97.2143 19.9581 96.3112 19.067 96.1 18.0702C95.975 17.4855 96.072 16.8425 96.3306 16.2168C96.6065 15.5523 97.0613 14.9179 97.6324 14.3914C98.8652 13.2587 100.626 12.6632 102.234 13.4594C104.469 14.5641 105.777 16.3527 106.159 18.2428C106.372 19.2957 106.294 20.3853 105.93 21.408C105.564 22.4351 104.906 23.3909 103.954 24.1719C101.945 25.8204 98.6346 26.7028 93.99 25.8916C93.5223 25.8117 93.0762 26.1267 92.9965 26.5971C92.9167 27.0653 93.2314 27.5119 93.7012 27.5918C98.8932 28.498 102.68 27.4429 105.044 25.501C105.249 25.3327 105.445 25.1558 105.628 24.9746L122.676 25.0307C123.151 25.0307 123.534 24.6466 123.534 24.1719C123.534 23.6973 123.151 23.3132 122.676 23.3132L106.962 23.2614C107.2 22.8515 107.396 22.4264 107.553 21.9906C108.021 20.6788 108.118 19.2741 107.842 17.9084C107.359 15.522 105.743 13.2781 102.995 11.9188C102.924 11.8843 102.852 11.8498 102.779 11.8174H109.478H109.473ZM114.756 18.0918C114.282 18.0918 113.898 18.4758 113.898 18.9505C113.898 19.4252 114.282 19.8092 114.756 19.8092H131.142C131.616 19.8092 132 19.4252 132 18.9505C132 18.4758 131.616 18.0918 131.142 18.0918H114.756ZM43.1348 41.4998C43.7641 41.6487 44.318 42.4405 44.4193 44.3198C42.5421 44.2184 41.7511 43.6639 41.6024 43.0339C41.5162 42.6649 41.7102 42.2442 42.027 41.9248C42.346 41.6055 42.7662 41.4113 43.1348 41.4998ZM19.9422 114.732C19.9422 114.255 19.5564 113.869 19.0801 113.869C18.6038 113.869 18.218 114.255 18.218 114.732V131.136C18.218 131.613 18.6038 131.999 19.0801 131.999C19.5564 131.999 19.9422 131.613 19.9422 131.136V114.732ZM18.3861 41.7285C18.2352 41.4868 18.0843 41.2495 17.9335 41.0165C17.9011 40.969 17.8667 40.9237 17.8279 40.8849C15.164 36.7228 13.1316 31.6136 12.235 26.3792C15.3493 34.3969 21.2418 36.848 26.8497 39.1804C30.4856 40.6928 33.9965 42.1514 36.363 45.1462C36.8458 45.7568 37.0958 46.294 37.0872 46.7644C37.0785 47.1916 36.8307 47.6274 36.3177 48.0849C34.5741 49.6383 32.7271 50.3568 30.865 50.4C29.1774 50.4388 27.4532 49.9253 25.7656 48.9781C24.035 48.005 22.3453 46.5745 20.7719 44.8053C19.9379 43.8667 19.1404 42.8375 18.3861 41.7307V41.7285ZM26.3648 12.2338C33.3888 13.4399 40.1843 16.6979 44.7685 20.7802C46.5358 22.3552 47.9647 24.0446 48.9367 25.7794C49.885 27.4688 50.3958 29.1949 50.357 30.8843C50.3139 32.7463 49.5962 34.5976 48.0444 36.3431C47.5875 36.8566 47.1522 37.1047 46.7254 37.1133C46.2556 37.122 45.7189 36.8717 45.109 36.3884C42.1175 34.0172 40.6606 30.5046 39.1497 26.8647C36.8221 21.2505 34.3737 15.3516 26.3626 12.2338H26.3648Z" fill="white"/>
<path d="M365.981 206.473C365.729 206.071 365.197 205.95 364.796 206.203C364.395 206.455 364.274 206.988 364.526 207.39C364.848 207.899 365.08 208.555 365.214 209.303C364.468 209.17 363.811 208.935 363.302 208.615C362.901 208.363 362.369 208.484 362.117 208.885C361.865 209.286 361.985 209.819 362.386 210.072C363.182 210.572 364.205 210.913 365.343 211.066C365.315 212.311 365.048 213.647 364.498 214.9C363.845 216.389 362.794 217.761 361.274 218.717C360.076 219.473 358.578 219.975 356.742 220.085C355.041 219.993 353.42 219.742 352.002 219.283C349.612 218.506 347.817 217.123 347.282 214.859C347.207 214.536 347.153 214.195 347.127 213.837C347.034 212.555 347.552 211.213 348.657 210.151C349.685 209.163 351.216 208.412 353.239 208.149C353.709 208.089 354.043 207.659 353.983 207.189C353.964 207.04 353.908 206.906 353.826 206.792C352.132 204.287 351.653 201.929 352.043 200.051C352.254 199.031 352.729 198.153 353.401 197.477C354.073 196.804 354.951 196.33 355.972 196.118C357.852 195.728 360.216 196.209 362.727 197.92C363.119 198.185 363.654 198.084 363.919 197.691C363.996 197.574 364.044 197.447 364.061 197.318C364.324 195.294 365.072 193.76 366.061 192.731C367.121 191.624 368.462 191.106 369.742 191.199C370.1 191.224 370.44 191.276 370.764 191.354C373.025 191.889 374.406 193.689 375.182 196.079C375.641 197.499 375.891 199.122 375.984 200.824C375.874 202.662 375.372 204.162 374.617 205.361C373.66 206.883 372.292 207.936 370.805 208.589C369.552 209.139 368.221 209.407 366.975 209.435C366.822 208.296 366.481 207.271 365.981 206.475V206.473ZM366.076 215.587C366.71 214.139 367.024 212.596 367.063 211.153C368.505 211.114 370.044 210.799 371.492 210.164C373.122 209.448 374.637 208.326 375.768 206.732C375.568 208.477 375.264 210.156 374.915 211.636C374.298 214.242 374.01 216.355 373.956 218.051C372.262 218.105 370.154 218.394 367.548 219.011C366.067 219.36 364.393 219.665 362.649 219.865C364.242 218.732 365.363 217.216 366.078 215.584L366.076 215.587ZM356.683 221.807L356.714 221.809C358.132 221.885 359.589 221.857 361.028 221.753C363.488 221.576 365.893 221.177 367.936 220.694C370.484 220.09 372.462 219.788 373.979 219.697C374.191 222.649 375.296 223.902 376.473 224.181C377.462 224.416 378.484 224.004 379.191 223.296C379.898 222.588 380.307 221.565 380.074 220.575C379.796 219.397 378.542 218.29 375.596 218.079C375.686 216.56 375.988 214.579 376.591 212.029C377.074 209.983 377.473 207.573 377.65 205.113C377.753 203.672 377.781 202.213 377.706 200.794L377.704 200.763C377.604 198.91 377.329 197.128 376.82 195.553C375.865 192.603 374.1 190.37 371.156 189.673C370.749 189.576 370.32 189.511 369.865 189.479C368.089 189.352 366.253 190.046 364.824 191.537C363.826 192.577 363.026 194.008 362.595 195.814C360.059 194.381 357.64 194.014 355.625 194.435C354.265 194.718 353.093 195.354 352.185 196.26C351.28 197.167 350.644 198.343 350.362 199.704C349.944 201.721 350.31 204.145 351.739 206.682C349.935 207.113 348.506 207.914 347.468 208.913C345.978 210.343 345.284 212.182 345.412 213.96C345.444 214.415 345.511 214.844 345.605 215.252C346.302 218.197 348.532 219.964 351.479 220.922C353.052 221.434 354.832 221.708 356.683 221.807ZM310.527 252.183C310.053 252.183 309.669 252.567 309.669 253.041C309.669 253.516 310.053 253.9 310.527 253.9L396.831 253.889C397.433 253.935 398.034 253.965 398.633 253.978C398.778 253.98 398.913 253.948 399.032 253.887H404.42C405.584 253.958 406.81 253.997 408.106 254.001C408.261 254.001 408.407 253.96 408.532 253.887H409.142C409.616 253.887 410 253.503 410 253.028L409.759 154.553C409.759 154.078 409.375 153.694 408.901 153.694C408.427 153.694 408.043 154.078 408.043 154.553L408.06 161.298C408.024 161.214 407.985 161.127 407.942 161.043C406.584 158.292 404.342 156.672 401.959 156.191C400.594 155.914 399.191 156.012 397.881 156.48C397.446 156.635 397.021 156.831 396.612 157.071L396.56 141.34C396.56 140.865 396.176 140.481 395.702 140.481C395.228 140.481 394.844 140.865 394.844 141.34L394.9 158.407C394.719 158.59 394.545 158.786 394.374 158.991C392.437 161.358 391.381 165.151 392.286 170.347C392.366 170.815 392.81 171.132 393.28 171.053C393.747 170.973 394.064 170.528 393.984 170.058C393.174 165.41 394.055 162.096 395.702 160.083C396.482 159.132 397.437 158.471 398.463 158.104C399.485 157.74 400.573 157.664 401.625 157.876C403.511 158.258 405.297 159.567 406.403 161.805C407.198 163.417 406.603 165.179 405.472 166.411C404.948 166.983 404.312 167.439 403.648 167.715C403.026 167.974 402.383 168.071 401.797 167.946C400.801 167.732 399.911 166.83 399.485 164.921C399.383 164.457 398.924 164.163 398.461 164.267C397.997 164.368 397.704 164.828 397.808 165.292C398.409 167.982 399.819 169.285 401.442 169.633C402.383 169.833 403.375 169.695 404.308 169.307C405.2 168.936 406.047 168.332 406.737 167.579C407.299 166.966 407.763 166.25 408.071 165.477L408.235 232.242C407.006 228.248 405.198 224.483 403.039 221.307C401.444 218.743 399.898 215.746 398.756 212.797C397.691 210.044 396.978 207.342 396.913 205.1C396.859 203.269 397.133 201.255 397.974 198.996C398.689 197.076 399.81 194.974 401.487 192.655C402.834 190.959 403.959 189.235 404.715 187.826C404.875 187.578 404.903 187.257 404.763 186.974C403.847 185.136 402.31 182.723 400.446 180.507C398.741 178.481 396.758 176.615 394.715 175.484C392.532 174.276 390.269 173.886 388.152 174.941C387.717 175.159 387.284 175.443 386.857 175.804C385.715 176.768 385.019 178.255 385.029 179.979C385.038 181.45 385.564 183.092 386.773 184.706C387.057 185.086 387.596 185.164 387.976 184.879C388.355 184.594 388.432 184.055 388.148 183.675C387.176 182.378 386.756 181.096 386.749 179.972C386.741 178.775 387.204 177.759 387.965 177.118C388.271 176.859 388.592 176.65 388.924 176.483C390.458 175.717 392.18 176.048 393.89 176.993C395.739 178.015 397.558 179.735 399.135 181.612C400.767 183.552 402.135 185.656 403.021 187.347C402.528 188.228 401.894 189.222 401.155 190.247C400.814 190.681 400.489 191.11 400.183 191.531C399.801 192.012 399.398 192.493 398.98 192.964C397.347 194.802 395.48 196.474 393.609 197.443C391.874 198.343 390.142 198.625 388.631 197.818C388.318 197.652 388.006 197.432 387.693 197.154C386.95 196.491 386.514 195.464 386.553 194.269C386.59 193.145 387.047 191.874 388.053 190.603C388.346 190.23 388.284 189.69 387.911 189.397C387.538 189.104 386.999 189.166 386.706 189.539C385.454 191.121 384.885 192.748 384.835 194.217C384.777 195.943 385.432 197.449 386.547 198.444C386.952 198.804 387.376 199.1 387.82 199.337C389.909 200.453 392.18 200.123 394.396 198.975C395.189 198.565 395.974 198.047 396.739 197.456C396.603 197.773 396.48 198.086 396.364 198.397C395.437 200.886 395.135 203.115 395.196 205.148C395.267 207.603 396.021 210.499 397.153 213.418C397.441 214.163 397.754 214.909 398.086 215.651C397.109 214.812 396.101 214.096 395.075 213.52C393.129 212.426 391.111 211.837 389.101 211.882C386.831 211.934 384.603 212.788 382.536 214.629C381.643 215.423 381.21 216.277 381.193 217.209C381.176 218.098 381.555 218.994 382.288 219.919C384.939 223.272 388.646 224.815 392.489 226.412C400.084 229.568 408.235 232.958 408.282 252.107V252.172H404.524C388.532 251.164 385.383 243.576 382.437 236.475C380.842 232.628 379.301 228.917 375.951 226.263C375.027 225.529 374.132 225.149 373.244 225.167C372.313 225.184 371.46 225.618 370.667 226.511C368.828 228.58 367.975 230.809 367.923 233.083C367.878 235.096 368.466 237.116 369.559 239.064C370.143 240.106 370.871 241.129 371.723 242.119C370.964 241.778 370.201 241.457 369.443 241.163C366.526 240.033 363.634 239.275 361.181 239.204C359.151 239.146 356.925 239.448 354.438 240.374C354.114 240.495 353.789 240.624 353.457 240.766C354.015 240.033 354.505 239.28 354.897 238.522C356.043 236.304 356.373 234.03 355.259 231.939C355.022 231.497 354.726 231.07 354.367 230.664C353.375 229.549 351.869 228.893 350.144 228.951C348.677 229.001 347.052 229.57 345.472 230.824C345.099 231.117 345.036 231.659 345.33 232.03C345.623 232.403 346.164 232.466 346.534 232.172C347.804 231.165 349.073 230.71 350.196 230.671C351.388 230.63 352.416 231.068 353.078 231.812C353.354 232.123 353.573 232.436 353.742 232.751C354.548 234.263 354.265 235.998 353.367 237.735C352.399 239.608 350.729 241.476 348.892 243.112C348.552 243.416 348.205 243.712 347.856 243.996C347.332 244.372 346.799 244.773 346.254 245.203C346.209 245.239 346.166 245.28 346.129 245.323C345.123 246.048 344.146 246.67 343.282 247.157C341.592 246.271 339.491 244.898 337.553 243.267C335.678 241.686 333.961 239.865 332.939 238.015C331.995 236.304 331.665 234.58 332.43 233.044C332.596 232.712 332.805 232.39 333.064 232.084C333.704 231.322 334.719 230.861 335.915 230.867C337.038 230.874 338.319 231.296 339.614 232.267C339.993 232.552 340.532 232.475 340.817 232.095C341.101 231.715 341.023 231.176 340.644 230.891C339.03 229.68 337.39 229.156 335.922 229.145C334.2 229.134 332.713 229.831 331.752 230.975C331.392 231.402 331.107 231.836 330.889 232.272C329.833 234.391 330.226 236.654 331.433 238.842C332.562 240.889 334.426 242.874 336.45 244.579C338.663 246.445 341.073 247.984 342.909 248.901C343.192 249.041 343.513 249.013 343.761 248.853C345.271 248.04 347.146 246.801 348.959 245.319C351.175 243.744 353.188 242.676 355.037 241.985C357.293 241.144 359.304 240.87 361.134 240.924C363.376 240.989 366.072 241.701 368.822 242.769C372.057 244.022 375.344 245.764 378.057 247.522C378.087 247.541 378.12 247.559 378.15 247.576C381.087 249.464 384.48 251.052 388.057 252.176L321.503 252.183C322.249 251.874 322.939 251.421 323.534 250.875C324.286 250.185 324.889 249.337 325.26 248.443C325.648 247.509 325.786 246.514 325.585 245.574C325.241 243.949 323.937 242.54 321.249 241.936C320.786 241.834 320.327 242.126 320.225 242.59C320.124 243.054 320.415 243.513 320.878 243.615C322.786 244.042 323.689 244.933 323.9 245.93C324.025 246.514 323.928 247.157 323.669 247.783C323.393 248.448 322.939 249.082 322.368 249.608C321.135 250.741 319.374 251.337 317.766 250.541C315.531 249.436 314.223 247.647 313.841 245.757C313.628 244.704 313.706 243.615 314.07 242.592C314.436 241.565 315.094 240.609 316.046 239.828C318.055 238.179 321.365 237.297 326.01 238.108C326.478 238.188 326.924 237.873 327.004 237.403C327.083 236.934 326.769 236.488 326.299 236.408C321.107 235.502 317.32 236.557 314.956 238.499C314.751 238.667 314.555 238.844 314.372 239.025L297.324 238.969C296.849 238.969 296.466 239.353 296.466 239.828C296.466 240.303 296.849 240.687 297.324 240.687L313.038 240.738C312.8 241.148 312.604 241.573 312.447 242.009C311.979 243.321 311.882 244.726 312.158 246.091C312.641 248.478 314.257 250.722 317.005 252.081C317.076 252.116 317.148 252.15 317.221 252.183H310.522H310.527ZM305.244 245.908C305.718 245.908 306.102 245.524 306.102 245.049C306.102 244.575 305.718 244.191 305.244 244.191H288.858C288.384 244.191 288 244.575 288 245.049C288 245.524 288.384 245.908 288.858 245.908H305.244ZM376.865 222.5C376.236 222.351 375.682 221.559 375.581 219.68C377.458 219.781 378.249 220.336 378.398 220.966C378.484 221.335 378.29 221.755 377.973 222.075C377.654 222.394 377.234 222.588 376.865 222.5ZM400.058 149.267C400.058 149.744 400.444 150.13 400.92 150.13C401.396 150.13 401.782 149.744 401.782 149.267V132.862C401.782 132.385 401.396 131.999 400.92 131.999C400.444 131.999 400.058 132.385 400.058 132.862V149.267ZM401.614 222.271C401.765 222.513 401.916 222.75 402.067 222.983C402.099 223.03 402.133 223.076 402.172 223.115C404.836 227.277 406.868 232.386 407.765 237.621C404.651 229.603 398.758 227.152 393.15 224.819C389.514 223.307 386.003 221.848 383.637 218.853C383.154 218.243 382.904 217.705 382.913 217.235C382.921 216.808 383.169 216.372 383.682 215.915C385.426 214.361 387.273 213.643 389.135 213.599C390.823 213.561 392.547 214.074 394.234 215.021C395.965 215.994 397.655 217.425 399.228 219.194C400.062 220.133 400.86 221.162 401.614 222.269V222.271ZM393.635 251.766C386.611 250.56 379.816 247.302 375.232 243.22C373.464 241.645 372.035 239.955 371.063 238.22C370.115 236.531 369.604 234.805 369.643 233.115C369.686 231.253 370.404 229.402 371.956 227.656C372.412 227.143 372.848 226.895 373.275 226.886C373.744 226.878 374.281 227.128 374.891 227.611C377.882 229.982 379.339 233.495 380.85 237.135C383.178 242.749 385.626 248.648 393.637 251.766H393.635Z" fill="white"/>
</svg>
