<svg width="348" height="219" viewBox="0 0 348 219" fill="none" xmlns="http://www.w3.org/2000/svg">
<rect width="348" height="219" rx="8" fill="#101116"/>
<rect width="348" height="219" rx="8" fill="#101116"/>
<path d="M246.56 14.08H246.74C246.847 14.08 246.96 14.06 247.08 14.02C247.2 13.98 247.333 13.9333 247.48 13.88C247.707 13.8 247.98 13.72 248.3 13.64C248.62 13.5467 249.013 13.5 249.48 13.5C250.013 13.5 250.487 13.58 250.9 13.74C251.327 13.8867 251.68 14.0933 251.96 14.36C252.253 14.6133 252.473 14.9133 252.62 15.26C252.78 15.6067 252.86 15.9667 252.86 16.34C252.86 16.86 252.7 17.36 252.38 17.84C252.073 18.32 251.593 18.7067 250.94 19C251.86 19.2667 252.547 19.6933 253 20.28C253.453 20.8667 253.68 21.5333 253.68 22.28C253.68 22.84 253.573 23.36 253.36 23.84C253.16 24.3067 252.86 24.72 252.46 25.08C252.073 25.4267 251.607 25.7 251.06 25.9C250.513 26.1 249.9 26.2 249.22 26.2C248.713 26.2 248.293 26.1533 247.96 26.06C247.627 25.9667 247.347 25.88 247.12 25.8C246.973 25.7467 246.84 25.7067 246.72 25.68C246.6 25.64 246.48 25.62 246.36 25.62H246.18V24.08H246.38C246.727 24.56 247.153 24.9267 247.66 25.18C248.18 25.42 248.713 25.54 249.26 25.54C249.74 25.54 250.173 25.46 250.56 25.3C250.947 25.1267 251.273 24.9 251.54 24.62C251.82 24.34 252.027 24.02 252.16 23.66C252.307 23.3 252.38 22.9267 252.38 22.54C252.38 22.14 252.3 21.7533 252.14 21.38C251.98 20.9933 251.753 20.6533 251.46 20.36C251.167 20.0667 250.807 19.8333 250.38 19.66C249.967 19.4867 249.493 19.4 248.96 19.4H248.04V18.74H249.06C249.473 18.74 249.833 18.6733 250.14 18.54C250.46 18.4067 250.727 18.2267 250.94 18C251.153 17.7733 251.313 17.52 251.42 17.24C251.527 16.96 251.58 16.6667 251.58 16.36C251.58 16.08 251.527 15.8067 251.42 15.54C251.327 15.2733 251.18 15.04 250.98 14.84C250.78 14.6267 250.533 14.4533 250.24 14.32C249.96 14.1867 249.633 14.12 249.26 14.12C248.807 14.12 248.353 14.2467 247.9 14.5C247.447 14.7533 247.067 15.1333 246.76 15.64H246.56V14.08ZM259.316 26H258.376L262.676 14.82H257.456C257.296 14.82 257.129 14.8333 256.956 14.86C256.796 14.8733 256.643 14.92 256.496 15C256.363 15.0667 256.249 15.18 256.156 15.34C256.076 15.4867 256.036 15.6867 256.036 15.94H255.836V13.7H264.036L259.316 26ZM270.504 26V25.8C270.691 25.8 270.831 25.7733 270.924 25.72C271.031 25.6533 271.104 25.5733 271.144 25.48C271.198 25.3733 271.224 25.26 271.224 25.14C271.238 25.0067 271.244 24.8733 271.244 24.74V22.78H265.784L272.544 13.2V21.78H273.764V22.78H272.544V24.74C272.544 25.0067 272.591 25.2533 272.684 25.48C272.791 25.6933 273.004 25.8 273.324 25.8V26H270.504ZM271.244 16.18C270.578 17.1267 269.911 18.06 269.244 18.98C268.591 19.9 267.931 20.8333 267.264 21.78H271.244V16.18ZM280.063 18.6C279.583 18.6 279.163 18.6867 278.803 18.86C278.456 19.02 278.163 19.24 277.923 19.52C277.696 19.8 277.523 20.12 277.403 20.48C277.296 20.84 277.243 21.2133 277.243 21.6C277.243 22.0667 277.309 22.5333 277.443 23C277.589 23.4667 277.796 23.8867 278.063 24.26C278.343 24.62 278.676 24.92 279.063 25.16C279.449 25.3867 279.896 25.5 280.403 25.5C280.856 25.5 281.256 25.4133 281.603 25.24C281.949 25.0533 282.236 24.8133 282.463 24.52C282.703 24.2133 282.876 23.8667 282.983 23.48C283.103 23.0933 283.163 22.7 283.163 22.3C283.163 21.8467 283.089 21.4 282.943 20.96C282.809 20.52 282.609 20.1267 282.343 19.78C282.089 19.42 281.769 19.1333 281.383 18.92C280.996 18.7067 280.556 18.6 280.063 18.6ZM282.903 15.3C282.689 15.0333 282.429 14.82 282.123 14.66C281.829 14.5 281.549 14.42 281.283 14.42C280.669 14.42 280.136 14.5733 279.683 14.88C279.229 15.1733 278.849 15.54 278.543 15.98C278.249 16.42 278.016 16.9 277.843 17.42C277.669 17.9267 277.556 18.4 277.503 18.84C277.889 18.4933 278.323 18.2533 278.803 18.12C279.283 17.9733 279.783 17.9 280.303 17.9C280.983 17.9 281.576 18.02 282.083 18.26C282.603 18.4867 283.029 18.7933 283.363 19.18C283.709 19.5533 283.963 19.9867 284.123 20.48C284.296 20.9733 284.383 21.48 284.383 22C284.383 22.52 284.296 23.0333 284.123 23.54C283.949 24.0467 283.689 24.5 283.343 24.9C282.996 25.2867 282.563 25.6 282.043 25.84C281.536 26.08 280.943 26.2 280.263 26.2C279.516 26.2 278.869 26.06 278.323 25.78C277.776 25.5 277.329 25.1267 276.983 24.66C276.636 24.18 276.376 23.6267 276.203 23C276.043 22.3733 275.963 21.72 275.963 21.04C275.963 20.16 276.083 19.2867 276.323 18.42C276.576 17.54 276.943 16.7533 277.423 16.06C277.903 15.3533 278.489 14.78 279.183 14.34C279.876 13.9 280.669 13.68 281.563 13.68C281.749 13.68 281.943 13.6933 282.143 13.72C282.356 13.7467 282.543 13.7733 282.703 13.8C282.783 13.8133 282.863 13.8267 282.943 13.84C283.036 13.8533 283.089 13.86 283.103 13.86V15.3H282.903ZM289.967 26H289.027L293.327 14.82H288.107C287.947 14.82 287.78 14.8333 287.607 14.86C287.447 14.8733 287.294 14.92 287.147 15C287.014 15.0667 286.9 15.18 286.807 15.34C286.727 15.4867 286.687 15.6867 286.687 15.94H286.487V13.7H294.687L289.967 26ZM305.495 22.74C305.495 23.3267 305.375 23.84 305.135 24.28C304.908 24.7067 304.595 25.0667 304.195 25.36C303.808 25.64 303.355 25.8533 302.835 26C302.315 26.1333 301.762 26.2 301.175 26.2C300.628 26.2 300.095 26.1333 299.575 26C299.055 25.8533 298.588 25.64 298.175 25.36C297.762 25.0667 297.428 24.7067 297.175 24.28C296.935 23.8533 296.815 23.3533 296.815 22.78C296.815 22.02 297.042 21.34 297.495 20.74C297.948 20.1267 298.668 19.6733 299.655 19.38C298.895 19.0333 298.335 18.6333 297.975 18.18C297.628 17.7133 297.455 17.1467 297.455 16.48C297.455 15.9867 297.555 15.56 297.755 15.2C297.968 14.8267 298.242 14.5133 298.575 14.26C298.922 14.0067 299.315 13.82 299.755 13.7C300.195 13.5667 300.642 13.5 301.095 13.5C301.548 13.5 301.995 13.5667 302.435 13.7C302.888 13.82 303.288 14.0067 303.635 14.26C303.982 14.5133 304.262 14.8333 304.475 15.22C304.702 15.5933 304.815 16.0333 304.815 16.54C304.815 17.14 304.615 17.7 304.215 18.22C303.815 18.74 303.295 19.1333 302.655 19.4C303.482 19.64 304.162 20.04 304.695 20.6C305.228 21.1467 305.495 21.86 305.495 22.74ZM303.655 16.84C303.655 16.44 303.568 16.0733 303.395 15.74C303.235 15.4067 303.022 15.1267 302.755 14.9C302.488 14.66 302.182 14.48 301.835 14.36C301.502 14.2267 301.162 14.16 300.815 14.16C300.548 14.16 300.288 14.2 300.035 14.28C299.782 14.36 299.555 14.48 299.355 14.64C299.155 14.8 298.988 15 298.855 15.24C298.735 15.48 298.675 15.76 298.675 16.08C298.675 16.44 298.762 16.7733 298.935 17.08C299.108 17.3867 299.335 17.66 299.615 17.9C299.908 18.14 300.235 18.3533 300.595 18.54C300.968 18.7133 301.342 18.86 301.715 18.98C302.315 18.74 302.788 18.44 303.135 18.08C303.482 17.72 303.655 17.3067 303.655 16.84ZM304.495 23.16C304.495 22.7867 304.395 22.4333 304.195 22.1C303.995 21.7667 303.715 21.4667 303.355 21.2C302.995 20.92 302.575 20.6733 302.095 20.46C301.628 20.2333 301.135 20.04 300.615 19.88C300.268 20 299.942 20.1467 299.635 20.32C299.328 20.4933 299.062 20.6933 298.835 20.92C298.608 21.1467 298.428 21.3933 298.295 21.66C298.162 21.9267 298.095 22.2133 298.095 22.52C298.095 22.92 298.188 23.3 298.375 23.66C298.562 24.02 298.808 24.34 299.115 24.62C299.422 24.8867 299.775 25.0933 300.175 25.24C300.575 25.3867 300.988 25.46 301.415 25.46C301.775 25.46 302.135 25.4067 302.495 25.3C302.868 25.18 303.195 25.0267 303.475 24.84C303.768 24.64 304.008 24.4 304.195 24.12C304.395 23.84 304.495 23.52 304.495 23.16ZM312.594 21.28C313.074 21.28 313.494 21.2 313.854 21.04C314.214 20.8667 314.507 20.64 314.734 20.36C314.974 20.08 315.147 19.76 315.254 19.4C315.374 19.04 315.434 18.6667 315.434 18.28C315.434 17.8133 315.36 17.3467 315.214 16.88C315.08 16.4133 314.874 16 314.594 15.64C314.327 15.2667 313.994 14.9667 313.594 14.74C313.207 14.5 312.76 14.38 312.254 14.38C311.8 14.38 311.4 14.4733 311.054 14.66C310.72 14.8333 310.434 15.0733 310.194 15.38C309.967 15.6733 309.794 16.0133 309.674 16.4C309.567 16.7867 309.514 17.18 309.514 17.58C309.514 18.0333 309.58 18.48 309.714 18.92C309.86 19.36 310.06 19.76 310.314 20.12C310.58 20.4667 310.9 20.7467 311.274 20.96C311.66 21.1733 312.1 21.28 312.594 21.28ZM309.774 24.58C309.987 24.8467 310.24 25.06 310.534 25.22C310.84 25.38 311.127 25.4333 311.394 25.38C311.967 25.38 312.474 25.2467 312.914 24.98C313.354 24.7133 313.727 24.36 314.034 23.92C314.354 23.48 314.6 23.0067 314.774 22.5C314.96 21.98 315.087 21.5 315.154 21.06C314.767 21.4067 314.334 21.6467 313.854 21.78C313.387 21.9133 312.887 21.98 312.354 21.98C311.674 21.98 311.074 21.8667 310.554 21.64C310.047 21.4 309.62 21.0933 309.274 20.72C308.94 20.3333 308.687 19.8933 308.514 19.4C308.354 18.9067 308.274 18.4 308.274 17.88C308.274 17.36 308.36 16.8467 308.534 16.34C308.707 15.8333 308.967 15.3867 309.314 15C309.66 14.6 310.087 14.28 310.594 14.04C311.114 13.8 311.714 13.68 312.394 13.68C313.154 13.68 313.8 13.82 314.334 14.1C314.88 14.38 315.327 14.76 315.674 15.24C316.02 15.7067 316.274 16.2533 316.434 16.88C316.607 17.5067 316.694 18.16 316.694 18.84C316.694 19.72 316.6 20.6067 316.414 21.5C316.227 22.38 315.92 23.1733 315.494 23.88C315.08 24.5733 314.527 25.14 313.834 25.58C313.154 26.02 312.32 26.24 311.334 26.24C311.147 26.24 310.914 26.22 310.634 26.18C310.354 26.14 310.134 26.1067 309.974 26.08C309.88 26.0667 309.78 26.0533 309.674 26.04C309.58 26.0267 309.547 26.02 309.574 26.02V24.58H309.774ZM327.778 22.74C327.778 23.3267 327.658 23.84 327.418 24.28C327.191 24.7067 326.878 25.0667 326.478 25.36C326.091 25.64 325.638 25.8533 325.118 26C324.598 26.1333 324.044 26.2 323.458 26.2C322.911 26.2 322.378 26.1333 321.858 26C321.338 25.8533 320.871 25.64 320.458 25.36C320.044 25.0667 319.711 24.7067 319.458 24.28C319.218 23.8533 319.098 23.3533 319.098 22.78C319.098 22.02 319.324 21.34 319.778 20.74C320.231 20.1267 320.951 19.6733 321.938 19.38C321.178 19.0333 320.618 18.6333 320.258 18.18C319.911 17.7133 319.738 17.1467 319.738 16.48C319.738 15.9867 319.838 15.56 320.038 15.2C320.251 14.8267 320.524 14.5133 320.858 14.26C321.204 14.0067 321.598 13.82 322.038 13.7C322.478 13.5667 322.924 13.5 323.378 13.5C323.831 13.5 324.278 13.5667 324.718 13.7C325.171 13.82 325.571 14.0067 325.918 14.26C326.264 14.5133 326.544 14.8333 326.758 15.22C326.984 15.5933 327.098 16.0333 327.098 16.54C327.098 17.14 326.898 17.7 326.498 18.22C326.098 18.74 325.578 19.1333 324.938 19.4C325.764 19.64 326.444 20.04 326.978 20.6C327.511 21.1467 327.778 21.86 327.778 22.74ZM325.938 16.84C325.938 16.44 325.851 16.0733 325.678 15.74C325.518 15.4067 325.304 15.1267 325.038 14.9C324.771 14.66 324.464 14.48 324.118 14.36C323.784 14.2267 323.444 14.16 323.098 14.16C322.831 14.16 322.571 14.2 322.318 14.28C322.064 14.36 321.838 14.48 321.638 14.64C321.438 14.8 321.271 15 321.138 15.24C321.018 15.48 320.958 15.76 320.958 16.08C320.958 16.44 321.044 16.7733 321.218 17.08C321.391 17.3867 321.618 17.66 321.898 17.9C322.191 18.14 322.518 18.3533 322.878 18.54C323.251 18.7133 323.624 18.86 323.998 18.98C324.598 18.74 325.071 18.44 325.418 18.08C325.764 17.72 325.938 17.3067 325.938 16.84ZM326.778 23.16C326.778 22.7867 326.678 22.4333 326.478 22.1C326.278 21.7667 325.998 21.4667 325.638 21.2C325.278 20.92 324.858 20.6733 324.378 20.46C323.911 20.2333 323.418 20.04 322.898 19.88C322.551 20 322.224 20.1467 321.918 20.32C321.611 20.4933 321.344 20.6933 321.118 20.92C320.891 21.1467 320.711 21.3933 320.578 21.66C320.444 21.9267 320.378 22.2133 320.378 22.52C320.378 22.92 320.471 23.3 320.658 23.66C320.844 24.02 321.091 24.34 321.398 24.62C321.704 24.8867 322.058 25.0933 322.458 25.24C322.858 25.3867 323.271 25.46 323.698 25.46C324.058 25.46 324.418 25.4067 324.778 25.3C325.151 25.18 325.478 25.0267 325.758 24.84C326.051 24.64 326.291 24.4 326.478 24.12C326.678 23.84 326.778 23.52 326.778 23.16ZM330.376 14.82H330.556C330.623 14.82 330.703 14.7867 330.796 14.72C330.903 14.6533 331.016 14.58 331.136 14.5C331.27 14.4067 331.423 14.3 331.596 14.18C331.783 14.06 331.99 13.9533 332.216 13.86C332.456 13.7533 332.723 13.6667 333.016 13.6C333.31 13.5333 333.636 13.5 333.996 13.5C334.45 13.5 334.89 13.5667 335.316 13.7C335.743 13.82 336.123 14.0133 336.456 14.28C336.79 14.5333 337.056 14.86 337.256 15.26C337.456 15.66 337.556 16.14 337.556 16.7C337.556 17.1667 337.476 17.5933 337.316 17.98C337.156 18.3667 336.936 18.7267 336.656 19.06C336.39 19.3933 336.083 19.7133 335.736 20.02C335.403 20.3133 335.056 20.6067 334.696 20.9C334.35 21.18 334.01 21.4667 333.676 21.76C333.356 22.0533 333.063 22.36 332.796 22.68C332.543 23 332.33 23.3467 332.156 23.72C331.983 24.08 331.883 24.4667 331.856 24.88H336.016C336.523 24.88 336.923 24.7933 337.216 24.62C337.51 24.4333 337.663 24.1333 337.676 23.72H337.856V26H330.456C330.456 25.4 330.556 24.8467 330.756 24.34C330.956 23.82 331.216 23.3467 331.536 22.92C331.856 22.48 332.21 22.0733 332.596 21.7C332.996 21.3267 333.39 20.9667 333.776 20.62C334.096 20.34 334.403 20.06 334.696 19.78C335.003 19.5 335.27 19.22 335.496 18.94C335.736 18.6467 335.923 18.3467 336.056 18.04C336.203 17.72 336.276 17.3867 336.276 17.04C336.276 16.6 336.196 16.2067 336.036 15.86C335.89 15.5133 335.69 15.22 335.436 14.98C335.196 14.74 334.916 14.56 334.596 14.44C334.276 14.3067 333.956 14.24 333.636 14.24C332.956 14.24 332.356 14.4467 331.836 14.86C331.316 15.26 330.896 15.78 330.576 16.42H330.376V14.82Z" fill="white"/>
<path d="M14.74 196.6C14.26 196.6 13.84 196.687 13.48 196.86C13.1333 197.02 12.84 197.24 12.6 197.52C12.3733 197.8 12.2 198.12 12.08 198.48C11.9733 198.84 11.92 199.213 11.92 199.6C11.92 200.067 11.9867 200.533 12.12 201C12.2667 201.467 12.4733 201.887 12.74 202.26C13.02 202.62 13.3533 202.92 13.74 203.16C14.1267 203.387 14.5733 203.5 15.08 203.5C15.5333 203.5 15.9333 203.413 16.28 203.24C16.6267 203.053 16.9133 202.813 17.14 202.52C17.38 202.213 17.5533 201.867 17.66 201.48C17.78 201.093 17.84 200.7 17.84 200.3C17.84 199.847 17.7667 199.4 17.62 198.96C17.4867 198.52 17.2867 198.127 17.02 197.78C16.7667 197.42 16.4467 197.133 16.06 196.92C15.6733 196.707 15.2333 196.6 14.74 196.6ZM17.58 193.3C17.3667 193.033 17.1067 192.82 16.8 192.66C16.5067 192.5 16.2267 192.42 15.96 192.42C15.3467 192.42 14.8133 192.573 14.36 192.88C13.9067 193.173 13.5267 193.54 13.22 193.98C12.9267 194.42 12.6933 194.9 12.52 195.42C12.3467 195.927 12.2333 196.4 12.18 196.84C12.5667 196.493 13 196.253 13.48 196.12C13.96 195.973 14.46 195.9 14.98 195.9C15.66 195.9 16.2533 196.02 16.76 196.26C17.28 196.487 17.7067 196.793 18.04 197.18C18.3867 197.553 18.64 197.987 18.8 198.48C18.9733 198.973 19.06 199.48 19.06 200C19.06 200.52 18.9733 201.033 18.8 201.54C18.6267 202.047 18.3667 202.5 18.02 202.9C17.6733 203.287 17.24 203.6 16.72 203.84C16.2133 204.08 15.62 204.2 14.94 204.2C14.1933 204.2 13.5467 204.06 13 203.78C12.4533 203.5 12.0067 203.127 11.66 202.66C11.3133 202.18 11.0533 201.627 10.88 201C10.72 200.373 10.64 199.72 10.64 199.04C10.64 198.16 10.76 197.287 11 196.42C11.2533 195.54 11.62 194.753 12.1 194.06C12.58 193.353 13.1667 192.78 13.86 192.34C14.5533 191.9 15.3467 191.68 16.24 191.68C16.4267 191.68 16.62 191.693 16.82 191.72C17.0333 191.747 17.22 191.773 17.38 191.8C17.46 191.813 17.54 191.827 17.62 191.84C17.7133 191.853 17.7667 191.86 17.78 191.86V193.3H17.58ZM28.1595 197.8C28.1595 196.773 28.2862 195.867 28.5395 195.08C28.8062 194.293 29.1529 193.64 29.5795 193.12C30.0062 192.587 30.4862 192.187 31.0195 191.92C31.5662 191.64 32.1195 191.5 32.6795 191.5C33.2395 191.5 33.7929 191.64 34.3395 191.92C34.8862 192.187 35.3662 192.587 35.7795 193.12C36.2062 193.64 36.5462 194.293 36.7995 195.08C37.0662 195.867 37.1995 196.773 37.1995 197.8C37.1995 198.84 37.0662 199.76 36.7995 200.56C36.5462 201.347 36.2062 202.013 35.7795 202.56C35.3662 203.093 34.8862 203.5 34.3395 203.78C33.7929 204.06 33.2395 204.2 32.6795 204.2C32.1195 204.2 31.5662 204.06 31.0195 203.78C30.4862 203.5 30.0062 203.093 29.5795 202.56C29.1529 202.013 28.8062 201.347 28.5395 200.56C28.2862 199.76 28.1595 198.84 28.1595 197.8ZM35.9395 198.32C35.9395 197.36 35.8329 196.513 35.6195 195.78C35.4062 195.033 35.1262 194.413 34.7795 193.92C34.4462 193.413 34.0595 193.033 33.6195 192.78C33.1929 192.513 32.7529 192.38 32.2995 192.38C31.8462 192.38 31.4329 192.513 31.0595 192.78C30.6995 193.033 30.3929 193.373 30.1395 193.8C29.8862 194.227 29.6862 194.72 29.5395 195.28C29.4062 195.84 29.3395 196.427 29.3395 197.04C29.3395 197.773 29.4262 198.52 29.5995 199.28C29.7729 200.027 30.0195 200.707 30.3395 201.32C30.6595 201.92 31.0395 202.413 31.4795 202.8C31.9329 203.187 32.4262 203.38 32.9595 203.38C33.3462 203.38 33.7195 203.273 34.0795 203.06C34.4395 202.833 34.7529 202.507 35.0195 202.08C35.2995 201.653 35.5195 201.127 35.6795 200.5C35.8529 199.873 35.9395 199.147 35.9395 198.32ZM40.0236 197.8C40.0236 196.773 40.1503 195.867 40.4036 195.08C40.6703 194.293 41.0169 193.64 41.4436 193.12C41.8703 192.587 42.3503 192.187 42.8836 191.92C43.4303 191.64 43.9836 191.5 44.5436 191.5C45.1036 191.5 45.6569 191.64 46.2036 191.92C46.7503 192.187 47.2303 192.587 47.6436 193.12C48.0703 193.64 48.4103 194.293 48.6636 195.08C48.9303 195.867 49.0636 196.773 49.0636 197.8C49.0636 198.84 48.9303 199.76 48.6636 200.56C48.4103 201.347 48.0703 202.013 47.6436 202.56C47.2303 203.093 46.7503 203.5 46.2036 203.78C45.6569 204.06 45.1036 204.2 44.5436 204.2C43.9836 204.2 43.4303 204.06 42.8836 203.78C42.3503 203.5 41.8703 203.093 41.4436 202.56C41.0169 202.013 40.6703 201.347 40.4036 200.56C40.1503 199.76 40.0236 198.84 40.0236 197.8ZM47.8036 198.32C47.8036 197.36 47.6969 196.513 47.4836 195.78C47.2703 195.033 46.9903 194.413 46.6436 193.92C46.3103 193.413 45.9236 193.033 45.4836 192.78C45.0569 192.513 44.6169 192.38 44.1636 192.38C43.7103 192.38 43.2969 192.513 42.9236 192.78C42.5636 193.033 42.2569 193.373 42.0036 193.8C41.7503 194.227 41.5503 194.72 41.4036 195.28C41.2703 195.84 41.2036 196.427 41.2036 197.04C41.2036 197.773 41.2903 198.52 41.4636 199.28C41.6369 200.027 41.8836 200.707 42.2036 201.32C42.5236 201.92 42.9036 202.413 43.3436 202.8C43.7969 203.187 44.2903 203.38 44.8236 203.38C45.2103 203.38 45.5836 203.273 45.9436 203.06C46.3036 202.833 46.6169 202.507 46.8836 202.08C47.1636 201.653 47.3836 201.127 47.5436 200.5C47.7169 199.873 47.8036 199.147 47.8036 198.32ZM51.8877 197.8C51.8877 196.773 52.0143 195.867 52.2677 195.08C52.5343 194.293 52.881 193.64 53.3077 193.12C53.7343 192.587 54.2143 192.187 54.7477 191.92C55.2943 191.64 55.8477 191.5 56.4077 191.5C56.9677 191.5 57.521 191.64 58.0677 191.92C58.6143 192.187 59.0943 192.587 59.5077 193.12C59.9343 193.64 60.2743 194.293 60.5277 195.08C60.7943 195.867 60.9277 196.773 60.9277 197.8C60.9277 198.84 60.7943 199.76 60.5277 200.56C60.2743 201.347 59.9343 202.013 59.5077 202.56C59.0943 203.093 58.6143 203.5 58.0677 203.78C57.521 204.06 56.9677 204.2 56.4077 204.2C55.8477 204.2 55.2943 204.06 54.7477 203.78C54.2143 203.5 53.7343 203.093 53.3077 202.56C52.881 202.013 52.5343 201.347 52.2677 200.56C52.0143 199.76 51.8877 198.84 51.8877 197.8ZM59.6677 198.32C59.6677 197.36 59.561 196.513 59.3477 195.78C59.1343 195.033 58.8543 194.413 58.5077 193.92C58.1743 193.413 57.7877 193.033 57.3477 192.78C56.921 192.513 56.481 192.38 56.0277 192.38C55.5743 192.38 55.161 192.513 54.7877 192.78C54.4277 193.033 54.121 193.373 53.8677 193.8C53.6143 194.227 53.4143 194.72 53.2677 195.28C53.1343 195.84 53.0677 196.427 53.0677 197.04C53.0677 197.773 53.1543 198.52 53.3277 199.28C53.501 200.027 53.7477 200.707 54.0677 201.32C54.3877 201.92 54.7677 202.413 55.2077 202.8C55.661 203.187 56.1543 203.38 56.6877 203.38C57.0743 203.38 57.4477 203.273 57.8077 203.06C58.1677 202.833 58.481 202.507 58.7477 202.08C59.0277 201.653 59.2477 201.127 59.4077 200.5C59.581 199.873 59.6677 199.147 59.6677 198.32Z" fill="white"/>
<path d="M77.5335 142.138H77.6785C77.8139 142.138 77.9395 142.08 78.0555 141.964C78.1715 141.848 78.2682 141.713 78.3455 141.558C78.4422 141.404 78.5099 141.239 78.5485 141.065C78.5872 140.872 78.6065 140.698 78.6065 140.543V125.115C78.6065 124.98 78.5872 124.825 78.5485 124.651C78.5099 124.477 78.4422 124.313 78.3455 124.158C78.2682 123.984 78.1619 123.849 78.0265 123.752C77.9105 123.636 77.7752 123.578 77.6205 123.578H77.4755V123.288H82.2315C84.0295 123.288 85.4312 123.685 86.4365 124.477C87.4612 125.27 87.9735 126.324 87.9735 127.638C87.9735 128.199 87.8769 128.702 87.6835 129.146C87.4902 129.591 87.2389 129.987 86.9295 130.335C86.6395 130.683 86.3205 130.983 85.9725 131.234C85.6245 131.466 85.2959 131.66 84.9865 131.814C85.7985 131.969 86.4752 132.23 87.0165 132.597C87.5579 132.965 87.9929 133.39 88.3215 133.873C88.6695 134.337 88.9112 134.84 89.0465 135.381C89.1819 135.923 89.2495 136.454 89.2495 136.976C89.2495 137.982 89.0659 138.832 88.6985 139.528C88.3312 140.205 87.8382 140.766 87.2195 141.21C86.6202 141.636 85.9242 141.945 85.1315 142.138C84.3582 142.332 83.5559 142.428 82.7245 142.428H77.5335V142.138ZM87.2775 137.15C87.1229 135.662 86.6202 134.511 85.7695 133.699C84.9189 132.887 83.7202 132.481 82.1735 132.481H80.5495V141.471H82.2315C83.7975 141.471 85.0252 141.123 85.9145 140.427C86.8232 139.712 87.2775 138.726 87.2775 137.469V137.15ZM86.0885 127.899C86.0305 126.778 85.6342 125.889 84.8995 125.231C84.1842 124.574 83.2175 124.245 81.9995 124.245H80.5495V131.553H82.0575C82.8695 131.553 83.5269 131.447 84.0295 131.234C84.5515 131.022 84.9672 130.751 85.2765 130.422C85.5859 130.074 85.7985 129.697 85.9145 129.291C86.0305 128.885 86.0885 128.489 86.0885 128.102V127.899ZM93.462 142.138H93.607C93.7617 142.138 93.897 142.09 94.013 141.993C94.129 141.877 94.2257 141.742 94.303 141.587C94.3997 141.433 94.4673 141.268 94.506 141.094C94.564 140.92 94.593 140.756 94.593 140.601V125.086C94.593 124.951 94.564 124.796 94.506 124.622C94.4673 124.448 94.3997 124.284 94.303 124.129C94.2257 123.975 94.129 123.849 94.013 123.752C93.897 123.636 93.7617 123.578 93.607 123.578H93.462V123.288H104.627V125.985H104.337C104.298 125.541 104.124 125.154 103.815 124.825C103.506 124.477 103.022 124.303 102.365 124.303H96.536V131.64H101.35C101.795 131.64 102.162 131.505 102.452 131.234C102.761 130.964 102.916 130.645 102.916 130.277H103.206V133.902H102.916C102.916 133.554 102.771 133.255 102.481 133.003C102.191 132.752 101.814 132.626 101.35 132.626H96.536V141.413H102.887C103.254 141.413 103.573 141.326 103.844 141.152C104.115 140.978 104.337 140.775 104.511 140.543C104.704 140.292 104.84 140.031 104.917 139.76C105.014 139.47 105.062 139.229 105.062 139.035H105.352V142.428H93.462V142.138ZM118.522 124.042C117.092 124.042 115.845 124.303 114.781 124.825C113.737 125.328 112.867 125.995 112.171 126.826C111.475 127.638 110.953 128.557 110.605 129.581C110.277 130.606 110.112 131.621 110.112 132.626C110.112 133.767 110.335 134.888 110.779 135.99C111.224 137.073 111.833 138.04 112.606 138.89C113.399 139.722 114.317 140.398 115.361 140.92C116.405 141.423 117.536 141.674 118.754 141.674C119.102 141.674 119.508 141.636 119.972 141.558C120.456 141.481 120.929 141.336 121.393 141.123C121.857 140.891 122.283 140.572 122.669 140.166C123.075 139.76 123.385 139.229 123.597 138.571H123.887V141.79C123.597 141.79 123.288 141.829 122.959 141.906C122.65 141.984 122.302 142.071 121.915 142.167C121.413 142.303 120.852 142.428 120.233 142.544C119.634 142.66 118.996 142.718 118.319 142.718C116.637 142.718 115.158 142.428 113.882 141.848C112.606 141.268 111.543 140.514 110.692 139.586C109.842 138.658 109.204 137.614 108.778 136.454C108.353 135.275 108.14 134.086 108.14 132.887C108.14 131.689 108.353 130.5 108.778 129.32C109.204 128.141 109.851 127.087 110.721 126.159C111.591 125.212 112.684 124.448 113.998 123.868C115.313 123.288 116.86 122.998 118.638 122.998C119.276 122.998 119.847 123.056 120.349 123.172C120.871 123.288 121.335 123.404 121.741 123.52C122.031 123.617 122.292 123.694 122.524 123.752C122.776 123.791 123.017 123.81 123.249 123.81V127.029H122.959C122.843 126.43 122.631 125.937 122.321 125.55C122.012 125.144 121.645 124.835 121.219 124.622C120.813 124.41 120.369 124.265 119.885 124.187C119.421 124.091 118.967 124.042 118.522 124.042ZM139.694 142.138H139.839C139.974 142.138 140.1 142.09 140.216 141.993C140.332 141.877 140.428 141.742 140.506 141.587C140.602 141.413 140.67 141.239 140.709 141.065C140.747 140.872 140.767 140.698 140.767 140.543V132.655H131.487V140.543C131.487 140.698 131.506 140.872 131.545 141.065C131.583 141.239 131.641 141.404 131.719 141.558C131.796 141.713 131.883 141.848 131.98 141.964C132.096 142.08 132.231 142.138 132.386 142.138H132.531V142.428H128.471V142.138H128.616C128.751 142.138 128.877 142.09 128.993 141.993C129.109 141.877 129.205 141.742 129.283 141.587C129.379 141.413 129.447 141.239 129.486 141.065C129.524 140.872 129.544 140.698 129.544 140.543V125.086C129.544 124.951 129.524 124.796 129.486 124.622C129.447 124.448 129.389 124.284 129.312 124.129C129.234 123.975 129.138 123.849 129.022 123.752C128.906 123.636 128.77 123.578 128.616 123.578H128.471V123.288H132.531V123.578H132.386C132.231 123.578 132.096 123.636 131.98 123.752C131.864 123.849 131.767 123.975 131.69 124.129C131.632 124.284 131.583 124.448 131.545 124.622C131.506 124.796 131.487 124.951 131.487 125.086V131.64H140.767V125.086C140.767 124.951 140.747 124.796 140.709 124.622C140.67 124.448 140.612 124.284 140.535 124.129C140.457 123.975 140.361 123.849 140.245 123.752C140.129 123.636 139.993 123.578 139.839 123.578H139.694V123.288H143.754V123.578H143.609C143.454 123.578 143.319 123.636 143.203 123.752C143.087 123.849 142.99 123.975 142.913 124.129C142.855 124.284 142.806 124.448 142.768 124.622C142.729 124.796 142.71 124.951 142.71 125.086V140.543C142.71 140.698 142.729 140.872 142.768 141.065C142.826 141.239 142.893 141.404 142.971 141.558C143.048 141.713 143.135 141.848 143.232 141.964C143.348 142.08 143.473 142.138 143.609 142.138H143.754V142.428H139.694V142.138ZM158.981 142.138H159.126C159.59 142.138 159.822 141.926 159.822 141.5C159.822 141.346 159.793 141.181 159.735 141.007L157.125 133.96H152.05L149.527 140.891C149.469 141.046 149.44 141.191 149.44 141.326C149.44 141.578 149.507 141.781 149.643 141.935C149.778 142.071 149.923 142.138 150.078 142.138H150.223V142.428H147.004V142.138H147.149C147.4 142.138 147.642 141.993 147.874 141.703C148.125 141.394 148.328 141.036 148.483 140.63L155.124 122.94L161.62 140.456C161.755 140.843 161.939 141.22 162.171 141.587C162.422 141.955 162.741 142.138 163.128 142.138H163.273V142.428H158.981V142.138ZM152.34 132.974H156.806L154.573 126.913L152.34 132.974ZM176.021 142.138H176.166C176.302 142.138 176.427 142.08 176.543 141.964C176.659 141.848 176.756 141.713 176.833 141.558C176.93 141.404 176.998 141.239 177.036 141.065C177.075 140.872 177.094 140.698 177.094 140.543V125.115C177.094 124.98 177.075 124.825 177.036 124.651C176.998 124.477 176.93 124.313 176.833 124.158C176.756 123.984 176.65 123.849 176.514 123.752C176.398 123.636 176.263 123.578 176.108 123.578H175.963V123.288H180.719C182.517 123.288 183.919 123.685 184.924 124.477C185.949 125.27 186.461 126.324 186.461 127.638C186.461 128.199 186.365 128.702 186.171 129.146C185.978 129.591 185.727 129.987 185.417 130.335C185.127 130.683 184.808 130.983 184.46 131.234C184.112 131.466 183.784 131.66 183.474 131.814C184.286 131.969 184.963 132.23 185.504 132.597C186.046 132.965 186.481 133.39 186.809 133.873C187.157 134.337 187.399 134.84 187.534 135.381C187.67 135.923 187.737 136.454 187.737 136.976C187.737 137.982 187.554 138.832 187.186 139.528C186.819 140.205 186.326 140.766 185.707 141.21C185.108 141.636 184.412 141.945 183.619 142.138C182.846 142.332 182.044 142.428 181.212 142.428H176.021V142.138ZM185.765 137.15C185.611 135.662 185.108 134.511 184.257 133.699C183.407 132.887 182.208 132.481 180.661 132.481H179.037V141.471H180.719C182.285 141.471 183.513 141.123 184.402 140.427C185.311 139.712 185.765 138.726 185.765 137.469V137.15ZM184.576 127.899C184.518 126.778 184.122 125.889 183.387 125.231C182.672 124.574 181.705 124.245 180.487 124.245H179.037V131.553H180.545C181.357 131.553 182.015 131.447 182.517 131.234C183.039 131.022 183.455 130.751 183.764 130.422C184.074 130.074 184.286 129.697 184.402 129.291C184.518 128.885 184.576 128.489 184.576 128.102V127.899ZM201.138 124.042C199.708 124.042 198.461 124.303 197.397 124.825C196.353 125.328 195.483 125.995 194.787 126.826C194.091 127.638 193.569 128.557 193.221 129.581C192.893 130.606 192.728 131.621 192.728 132.626C192.728 133.767 192.951 134.888 193.395 135.99C193.84 137.073 194.449 138.04 195.222 138.89C196.015 139.722 196.933 140.398 197.977 140.92C199.021 141.423 200.152 141.674 201.37 141.674C201.718 141.674 202.124 141.636 202.588 141.558C203.072 141.481 203.545 141.336 204.009 141.123C204.473 140.891 204.899 140.572 205.285 140.166C205.691 139.76 206.001 139.229 206.213 138.571H206.503V141.79C206.213 141.79 205.904 141.829 205.575 141.906C205.266 141.984 204.918 142.071 204.531 142.167C204.029 142.303 203.468 142.428 202.849 142.544C202.25 142.66 201.612 142.718 200.935 142.718C199.253 142.718 197.774 142.428 196.498 141.848C195.222 141.268 194.159 140.514 193.308 139.586C192.458 138.658 191.82 137.614 191.394 136.454C190.969 135.275 190.756 134.086 190.756 132.887C190.756 131.689 190.969 130.5 191.394 129.32C191.82 128.141 192.467 127.087 193.337 126.159C194.207 125.212 195.3 124.448 196.614 123.868C197.929 123.288 199.476 122.998 201.254 122.998C201.892 122.998 202.463 123.056 202.965 123.172C203.487 123.288 203.951 123.404 204.357 123.52C204.647 123.617 204.908 123.694 205.14 123.752C205.392 123.791 205.633 123.81 205.865 123.81V127.029H205.575C205.459 126.43 205.247 125.937 204.937 125.55C204.628 125.144 204.261 124.835 203.835 124.622C203.429 124.41 202.985 124.265 202.501 124.187C202.037 124.091 201.583 124.042 201.138 124.042ZM210.739 142.138H210.884C211.038 142.138 211.174 142.09 211.29 141.993C211.406 141.877 211.502 141.742 211.58 141.587C211.676 141.433 211.744 141.268 211.783 141.094C211.841 140.92 211.87 140.756 211.87 140.601V125.086C211.87 124.951 211.841 124.796 211.783 124.622C211.744 124.448 211.676 124.284 211.58 124.129C211.502 123.975 211.406 123.849 211.29 123.752C211.174 123.636 211.038 123.578 210.884 123.578H210.739V123.288H221.904V125.985H221.614C221.575 125.541 221.401 125.154 221.092 124.825C220.782 124.477 220.299 124.303 219.642 124.303H213.813V131.64H218.627C219.071 131.64 219.439 131.505 219.729 131.234C220.038 130.964 220.193 130.645 220.193 130.277H220.483V133.902H220.193C220.193 133.554 220.048 133.255 219.758 133.003C219.468 132.752 219.091 132.626 218.627 132.626H213.813V141.413H220.164C220.531 141.413 220.85 141.326 221.121 141.152C221.391 140.978 221.614 140.775 221.788 140.543C221.981 140.292 222.116 140.031 222.194 139.76C222.29 139.47 222.339 139.229 222.339 139.035H222.629V142.428H210.739V142.138ZM230.585 142.138H230.73V142.428H226.554V142.138H226.699C226.854 142.138 226.989 142.09 227.105 141.993C227.221 141.877 227.318 141.742 227.395 141.587C227.492 141.433 227.559 141.268 227.598 141.094C227.637 140.92 227.656 140.756 227.656 140.601V125.086C227.656 124.951 227.637 124.796 227.598 124.622C227.559 124.448 227.492 124.284 227.395 124.129C227.318 123.975 227.221 123.849 227.105 123.752C226.989 123.636 226.854 123.578 226.699 123.578H226.554V123.288H237.719V126.362H237.429C237.429 125.666 237.274 125.154 236.965 124.825C236.675 124.477 236.211 124.303 235.573 124.303H229.628V140.601C229.628 140.756 229.647 140.92 229.686 141.094C229.725 141.268 229.783 141.433 229.86 141.587C229.957 141.742 230.063 141.877 230.179 141.993C230.295 142.09 230.43 142.138 230.585 142.138ZM254.03 141.413V145.038H253.74C253.721 144.787 253.653 144.507 253.537 144.197C253.421 143.888 253.257 143.598 253.044 143.327C252.851 143.076 252.619 142.863 252.348 142.689C252.078 142.515 251.778 142.428 251.449 142.428H238.08C237.752 142.428 237.452 142.515 237.181 142.689C236.911 142.883 236.669 143.105 236.456 143.356C236.263 143.627 236.099 143.917 235.963 144.226C235.847 144.536 235.78 144.806 235.76 145.038H235.47V141.413H236.746C237.365 141.413 237.8 141.056 238.051 140.34L244.721 122.853L251.449 140.253C251.585 140.543 251.768 140.814 252 141.065C252.232 141.297 252.503 141.413 252.812 141.413H254.03ZM238.689 141.413H249.854L244.257 127L238.689 141.413ZM269.206 142.138H269.351C269.815 142.138 270.047 141.926 270.047 141.5C270.047 141.346 270.018 141.181 269.96 141.007L267.35 133.96H262.275L259.752 140.891C259.694 141.046 259.665 141.191 259.665 141.326C259.665 141.578 259.732 141.781 259.868 141.935C260.003 142.071 260.148 142.138 260.303 142.138H260.448V142.428H257.229V142.138H257.374C257.625 142.138 257.867 141.993 258.099 141.703C258.35 141.394 258.553 141.036 258.708 140.63L265.349 122.94L271.845 140.456C271.98 140.843 272.164 141.22 272.396 141.587C272.647 141.955 272.966 142.138 273.353 142.138H273.498V142.428H269.206V142.138ZM262.565 132.974H267.031L264.798 126.913L262.565 132.974Z" fill="white"/>
<path d="M181.628 94.2875C181.628 97.809 179.916 101.033 178.161 103.406C177.287 104.587 176.412 105.544 175.757 106.205C175.446 106.518 175.185 106.765 174.997 106.936C174.81 106.765 174.549 106.518 174.238 106.205C173.583 105.544 172.708 104.587 171.834 103.406C170.078 101.033 168.367 97.809 168.367 94.2875C168.367 90.766 170.078 87.5423 171.834 85.1688C172.708 83.9876 173.583 83.0308 174.238 82.3698C174.549 82.0567 174.81 81.8105 174.997 81.639C175.185 81.8105 175.446 82.0567 175.757 82.3698C176.412 83.0308 177.287 83.9876 178.161 85.1688C179.916 87.5423 181.628 90.766 181.628 94.2875Z" stroke="white"/>
<path d="M171.55 92.9527C173.765 95.481 174.619 99.1481 174.905 102.253C175.047 103.797 175.047 105.179 175.011 106.176C174.993 106.673 174.966 107.074 174.944 107.348C174.944 107.349 174.944 107.35 174.943 107.352C174.942 107.352 174.941 107.352 174.94 107.352C174.7 107.377 174.349 107.408 173.913 107.428C173.04 107.47 171.829 107.47 170.476 107.308C167.755 106.981 164.542 106.007 162.327 103.478C160.112 100.95 159.257 97.2828 158.971 94.1775C158.829 92.634 158.83 91.2516 158.866 90.2552C158.884 89.7574 158.91 89.3572 158.933 89.0829C158.933 89.0817 158.933 89.0805 158.933 89.0793C158.934 89.0792 158.935 89.0791 158.936 89.079C159.176 89.0537 159.527 89.023 159.963 89.0025C160.836 88.9614 162.048 88.961 163.4 89.1232C166.121 89.4494 169.334 90.4244 171.55 92.9527Z" stroke="white"/>
<path d="M178.768 92.9527C176.553 95.481 175.698 99.1481 175.412 102.253C175.27 103.797 175.271 105.179 175.307 106.176C175.325 106.673 175.351 107.074 175.374 107.348C175.374 107.349 175.374 107.35 175.374 107.352C175.375 107.352 175.376 107.352 175.377 107.352C175.617 107.377 175.968 107.408 176.404 107.428C177.277 107.47 178.489 107.47 179.841 107.308C182.562 106.981 185.775 106.007 187.991 103.478C190.206 100.95 191.06 97.2828 191.346 94.1775C191.488 92.634 191.488 91.2516 191.452 90.2552C191.434 89.7574 191.407 89.3572 191.385 89.0829C191.385 89.0817 191.385 89.0805 191.385 89.0793C191.384 89.0792 191.382 89.0791 191.381 89.079C191.141 89.0537 190.79 89.023 190.354 89.0025C189.481 88.9614 188.27 88.961 186.917 89.1232C184.196 89.4494 180.983 90.4244 178.768 92.9527Z" stroke="white"/>
<path d="M142.455 97.8979H75.8735" stroke="white"/>
<path d="M274.139 97.898L206.078 97.8979" stroke="white"/>
<path d="M46.4418 49.3465C46.6506 49.6787 47.0913 49.7787 47.4231 49.5697C47.755 49.3608 47.8549 48.9196 47.6462 48.5873C47.3803 48.1658 47.1876 47.6228 47.077 47.003C47.6943 47.1137 48.2385 47.3084 48.6596 47.5728C48.9915 47.7817 49.4322 47.6817 49.641 47.3495C49.8497 47.0173 49.7498 46.5761 49.4179 46.3671C48.7595 45.9527 47.912 45.6705 46.9699 45.5436C46.9931 44.513 47.2144 43.4073 47.6694 42.3696C48.21 41.1371 49.0807 40.0011 50.3386 39.2098C51.3307 38.5846 52.5707 38.1684 54.0909 38.0773C55.4987 38.1541 56.8405 38.3613 58.0145 38.7418C59.9933 39.3848 61.4796 40.5298 61.9221 42.4035C61.9845 42.6714 62.0291 42.9536 62.0505 43.2502C62.1273 44.3112 61.699 45.4222 60.7837 46.301C59.9326 47.1191 58.6658 47.7407 56.9904 47.9586C56.6014 48.0086 56.3248 48.3641 56.3748 48.7534C56.3908 48.8767 56.4372 48.9874 56.505 49.0821C57.9075 51.1559 58.3036 53.1082 57.9806 54.6622C57.8058 55.5071 57.4132 56.2341 56.8565 56.7931C56.2998 57.3504 55.5737 57.7434 54.7279 57.9184C53.172 58.2418 51.2147 57.8434 49.136 56.427C48.8113 56.2073 48.3688 56.2912 48.1493 56.6163C48.0851 56.7128 48.0458 56.8181 48.0316 56.9253C47.8139 58.6008 47.1948 59.8708 46.3758 60.7228C45.4979 61.6391 44.3881 62.0678 43.3283 61.991C43.0321 61.9696 42.7501 61.9267 42.4825 61.8624C40.6108 61.4194 39.4671 59.9297 38.8248 57.9506C38.4447 56.7753 38.2377 55.4321 38.161 54.0227C38.252 52.5009 38.6678 51.2595 39.2922 50.2664C40.0845 49.0071 41.2175 48.1354 42.4486 47.5942C43.4853 47.1387 44.5879 46.9172 45.6192 46.894C45.7459 47.8371 46.0278 48.6856 46.4418 49.3447V49.3465ZM46.3633 41.8015C45.8387 43.0001 45.5782 44.2772 45.5461 45.4722C44.3524 45.5043 43.0785 45.7651 41.8794 46.2903C40.5305 46.8833 39.2762 47.8121 38.3395 49.1321C38.5054 47.6871 38.757 46.2974 39.046 45.0721C39.5563 42.9144 39.7954 41.1657 39.84 39.7617C41.2424 39.717 42.9875 39.4777 45.1446 38.9668C46.3704 38.6775 47.7568 38.4256 49.2003 38.2595C47.8817 39.1973 46.9539 40.453 46.3615 41.8033L46.3633 41.8015ZM54.1391 36.6519L54.1141 36.6501C52.9401 36.5876 51.7339 36.6108 50.542 36.6966C48.5062 36.843 46.5149 37.1735 44.8235 37.5736C42.7145 38.0737 41.0765 38.3238 39.8204 38.3988C39.6455 35.9553 38.7302 34.9175 37.756 34.6871C36.937 34.4924 36.0913 34.8336 35.506 35.4194C34.9208 36.0053 34.5818 36.852 34.7745 37.6718C35.0047 38.6471 36.0431 39.5634 38.4822 39.7385C38.4073 40.996 38.1575 42.6357 37.6579 44.747C37.2582 46.4403 36.9281 48.4355 36.7818 50.4718C36.6961 51.665 36.673 52.8724 36.7354 54.0477L36.7372 54.0728C36.8193 55.6071 37.0476 57.0825 37.4687 58.3864C38.2592 60.8282 39.7205 62.6769 42.1578 63.2538C42.495 63.3342 42.8501 63.3878 43.2265 63.4146C44.6968 63.52 46.217 62.9448 47.3999 61.7106C48.2261 60.8496 48.888 59.6654 49.2449 58.1703C51.3449 59.3563 53.3469 59.66 55.0152 59.3117C56.141 59.0777 57.1117 58.5508 57.8629 57.8006C58.6123 57.0504 59.1386 56.0769 59.3723 54.9498C59.7185 53.2797 59.4152 51.2738 58.2322 49.1732C59.7256 48.816 60.9086 48.1533 61.7686 47.3263C63.0015 46.142 63.5761 44.6202 63.4708 43.1483C63.444 42.7715 63.3887 42.416 63.3102 42.0784C62.7339 39.6402 60.8872 38.1773 58.4481 37.3843C57.1456 36.9609 55.6718 36.7341 54.1391 36.6519ZM92.3509 11.5058C92.7434 11.5058 93.061 11.1878 93.061 10.7949C93.061 10.4019 92.7434 10.084 92.3509 10.084L20.9018 10.0929C20.404 10.0554 19.9062 10.0304 19.4102 10.0196C19.2907 10.0179 19.1782 10.0447 19.0801 10.0947H14.6195C13.656 10.0357 12.6407 10.0036 11.5684 10C11.4399 10 11.3186 10.0339 11.2151 10.0947H10.7101C10.3176 10.0947 10 10.4126 10 10.8056L10.1998 92.3279C10.1998 92.7208 10.5174 93.0388 10.91 93.0388C11.3025 93.0388 11.6201 92.7208 11.6201 92.3279L11.6058 86.7442C11.6362 86.8138 11.6683 86.8853 11.704 86.955C12.8281 89.2324 14.6837 90.5738 16.6571 90.9721C17.7865 91.2008 18.9481 91.1204 20.0329 90.7328C20.3933 90.6042 20.7448 90.4416 21.0838 90.2434L21.1267 103.267C21.1267 103.66 21.4443 103.977 21.8368 103.977C22.2293 103.977 22.5469 103.66 22.5469 103.267L22.5005 89.1377C22.6504 88.9859 22.795 88.8233 22.9359 88.6536C24.54 86.6942 25.4142 83.554 24.6649 79.2528C24.5988 78.8652 24.2313 78.6027 23.8423 78.6688C23.4551 78.7349 23.1928 79.1028 23.2589 79.4922C23.9297 83.3397 23.2 86.0833 21.8368 87.7498C21.1909 88.5375 20.4005 89.0841 19.5512 89.3878C18.7054 89.6896 17.8044 89.7521 16.9336 89.5771C15.3724 89.2609 13.8933 88.1767 12.9779 86.3244C12.3195 84.9901 12.812 83.5308 13.7487 82.5109C14.1823 82.0375 14.7087 81.6607 15.2582 81.432C15.7739 81.2177 16.3056 81.1373 16.7909 81.2409C17.6152 81.4177 18.3521 82.1644 18.7054 83.7451C18.7893 84.1292 19.1693 84.3721 19.5529 84.2864C19.9366 84.2024 20.1792 83.822 20.0936 83.4379C19.5958 81.2105 18.4289 80.1317 17.0853 79.8441C16.3056 79.678 15.4848 79.7923 14.7122 80.1138C13.9736 80.421 13.2723 80.9212 12.7014 81.5445C12.2357 82.0518 11.8521 82.6448 11.5969 83.2843L11.4613 28.0138C12.4783 31.3201 13.9753 34.437 15.7632 37.0663C17.0835 39.1883 18.3628 41.6694 19.3085 44.1111C20.1899 46.3903 20.7805 48.6266 20.834 50.4825C20.8787 51.999 20.6521 53.6655 19.9562 55.5357C19.3638 57.1254 18.436 58.8651 17.0478 60.7853C15.9327 62.1893 15.0013 63.6164 14.375 64.7828C14.243 64.9882 14.2198 65.2544 14.3358 65.4884C15.0941 67.0102 16.3663 69.0072 17.9096 70.8416C19.321 72.5189 20.9625 74.0639 22.654 74.9999C24.4615 76.0002 26.3349 76.3235 28.0871 75.45C28.4475 75.2696 28.8061 75.0338 29.1594 74.7355C30.1051 73.9371 30.6814 72.7064 30.6725 71.2792C30.6653 70.0611 30.23 68.7018 29.229 67.3657C28.9935 67.0513 28.5474 66.987 28.2334 67.2228C27.9194 67.4586 27.8551 67.9051 28.0906 68.2195C28.8953 69.293 29.2433 70.354 29.2486 71.2846C29.2558 72.2759 28.8722 73.1172 28.2423 73.6477C27.9889 73.8621 27.7231 74.0354 27.4483 74.1729C26.1779 74.807 24.7523 74.5337 23.3374 73.7513C21.8065 72.9047 20.3006 71.4811 18.9945 69.9271C17.6438 68.3213 16.5108 66.5797 15.7774 65.1794C16.186 64.4506 16.7106 63.6272 17.3226 62.7787C17.6045 62.4197 17.874 62.0642 18.1273 61.7159C18.4431 61.3176 18.7768 60.9193 19.1229 60.5299C20.4754 59.008 22.0206 57.6237 23.5693 56.8217C25.0057 56.0769 26.4402 55.8429 27.691 56.5109C27.9497 56.6485 28.2084 56.8307 28.4671 57.0611C29.0827 57.6094 29.4431 58.4597 29.411 59.4492C29.3807 60.3798 29.0024 61.4319 28.1692 62.484C27.9265 62.793 27.9782 63.2395 28.2869 63.4825C28.5956 63.7254 29.0417 63.6736 29.2843 63.3646C30.321 62.0553 30.792 60.7085 30.8331 59.4921C30.8812 58.0631 30.3388 56.8164 29.4164 55.9929C29.0809 55.6946 28.7294 55.4499 28.3619 55.2534C26.6329 54.33 24.7523 54.6033 22.9181 55.5535C22.2615 55.8929 21.612 56.3216 20.9786 56.811C21.091 56.5484 21.1927 56.2894 21.289 56.0322C22.0563 53.9709 22.3061 52.1258 22.2561 50.4432C22.1972 48.4105 21.5727 46.0134 20.636 43.5967C20.3969 42.9804 20.1382 42.3624 19.8634 41.748C20.6717 42.4428 21.5067 43.0358 22.356 43.5127C23.9672 44.4183 25.6373 44.906 27.302 44.8685C29.1808 44.8256 31.0258 44.1182 32.7369 42.5946C33.4755 41.9373 33.8342 41.23 33.8485 40.4583C33.8627 39.7224 33.5487 38.9811 32.9421 38.2149C30.7474 35.4391 27.6785 34.162 24.4971 32.8402C18.2094 30.227 11.4613 27.4208 11.4221 11.5683V11.5147H14.5338C27.773 12.3489 30.3799 18.6309 32.8189 24.5093C34.1393 27.6941 35.415 30.7664 38.1878 32.9634C38.9532 33.5707 39.6937 33.8851 40.4288 33.8708C41.1996 33.8565 41.9062 33.4975 42.5628 32.758C44.0848 31.045 44.7913 29.1999 44.8342 27.3172C44.8716 25.6507 44.3845 23.9788 43.4799 22.3659C42.9964 21.5031 42.3933 20.6565 41.6885 19.8366C42.3166 20.1188 42.9482 20.385 43.5763 20.6279C45.9904 21.5639 48.3849 22.1908 50.4153 22.2498C52.0961 22.298 53.9393 22.0479 55.9983 21.2817C56.2659 21.1816 56.5354 21.0745 56.8101 20.9566C56.348 21.5639 55.943 22.1873 55.6183 22.8142C54.669 24.6504 54.396 26.5331 55.3185 28.2639C55.5148 28.6301 55.7592 28.9838 56.0572 29.3196C56.8779 30.243 58.1251 30.786 59.5526 30.7378C60.7676 30.6967 62.113 30.2252 63.4208 29.1874C63.7295 28.9445 63.7813 28.4961 63.5386 28.1889C63.2959 27.8799 62.8481 27.8281 62.5412 28.071C61.4903 28.9052 60.4393 29.2821 59.5097 29.3142C58.523 29.3481 57.6719 28.9855 57.1242 28.3693C56.8958 28.1121 56.7138 27.8531 56.5746 27.5923C55.9073 26.3402 56.141 24.9041 56.8851 23.4662C57.6862 21.9158 59.069 20.3689 60.5892 19.015C60.8711 18.7631 61.1584 18.5184 61.4474 18.2826C61.881 17.9718 62.3217 17.6396 62.7732 17.2841C62.8106 17.2538 62.8463 17.2198 62.8766 17.1841C63.7099 16.5839 64.5182 16.0695 65.2337 15.6658C66.6325 16.4 68.3722 17.536 69.9762 18.8864C71.5285 20.1956 72.9506 21.7032 73.7963 23.234C74.5778 24.6504 74.8508 26.0776 74.2174 27.3494C74.08 27.6245 73.907 27.8906 73.6928 28.1442C73.1629 28.7748 72.3225 29.157 71.3323 29.1517C70.4027 29.1463 69.3428 28.7962 68.2705 27.9924C67.9564 27.7566 67.5104 27.8209 67.2748 28.1353C67.0393 28.4497 67.1036 28.8962 67.4176 29.132C68.754 30.1341 70.1118 30.5681 71.3269 30.577C72.7525 30.586 73.9837 30.009 74.7795 29.0623C75.0774 28.7087 75.313 28.3497 75.4932 27.9888C76.3675 26.2348 76.0427 24.3611 75.0435 22.5499C74.1086 20.8548 72.5652 19.2114 70.8898 17.8003C69.0573 16.2553 67.0625 14.9817 65.5423 14.2226C65.3086 14.1065 65.0427 14.1297 64.8375 14.2619C63.5868 14.9353 62.0345 15.9606 60.5339 17.1877C58.6997 18.4916 57.0332 19.3758 55.5023 19.9474C53.6342 20.644 51.9694 20.8708 50.4546 20.8262C48.599 20.7726 46.3669 20.1831 44.0901 19.299C41.412 18.2612 38.691 16.8197 36.4446 15.364C36.4196 15.3479 36.3928 15.3336 36.3678 15.3193C33.9359 13.7564 31.1275 12.4417 28.1656 11.5111L83.2636 11.5058C82.6463 11.7612 82.0753 12.1363 81.5829 12.5882C80.9601 13.1598 80.4606 13.8618 80.1537 14.6013C79.8325 15.3747 79.7183 16.1981 79.8842 16.9769C80.1697 18.3219 81.2492 19.4883 83.4742 19.9884C83.8578 20.0724 84.2378 19.8313 84.3217 19.4472C84.4056 19.0632 84.1647 18.6827 83.7811 18.5988C82.202 18.2451 81.4544 17.5074 81.2795 16.6822C81.176 16.1981 81.2563 15.6658 81.4704 15.1478C81.6988 14.5977 82.0753 14.0725 82.5481 13.6367C83.5687 12.699 85.0265 12.206 86.3575 12.8651C88.2078 13.7796 89.2909 15.2604 89.6067 16.8251C89.7833 17.6967 89.7191 18.5988 89.4176 19.4454C89.1142 20.2957 88.57 21.087 87.7814 21.7336C86.1185 23.0982 83.3778 23.8288 79.5327 23.1572C79.1456 23.0911 78.7762 23.3519 78.7102 23.7413C78.6442 24.1289 78.9047 24.4986 79.2936 24.5647C83.5919 25.3149 86.7269 24.4414 88.6842 22.8339C88.8537 22.6945 89.0161 22.5481 89.1678 22.398L103.281 22.4445C103.674 22.4445 103.991 22.1265 103.991 21.7336C103.991 21.3406 103.674 21.0227 103.281 21.0227L90.2722 20.9798C90.4685 20.6404 90.6309 20.2885 90.7611 19.9277C91.1483 18.8417 91.2286 17.6789 91.0002 16.5482C90.6005 14.5727 89.2623 12.715 86.9874 11.5897C86.9285 11.5611 86.8696 11.5326 86.809 11.5058H92.3545H92.3509ZM96.7241 16.7C96.3316 16.7 96.014 17.018 96.014 17.4109C96.014 17.8039 96.3316 18.1219 96.7241 18.1219H110.29C110.682 18.1219 111 17.8039 111 17.4109C111 17.018 110.682 16.7 110.29 16.7H96.7241ZM37.4313 36.0786C37.9523 36.2018 38.4108 36.8573 38.4947 38.4131C36.9406 38.3292 36.2858 37.8701 36.1627 37.3485C36.0913 37.0431 36.2519 36.6948 36.5142 36.4304C36.7782 36.1661 37.1262 36.0053 37.4313 36.0786ZM18.2308 96.704C18.2308 96.3093 17.9114 95.9896 17.5171 95.9896C17.1228 95.9896 16.8034 96.3093 16.8034 96.704V110.285C16.8034 110.679 17.1228 110.999 17.5171 110.999C17.9114 110.999 18.2308 110.679 18.2308 110.285V96.704ZM16.9426 36.2679C16.8177 36.0678 16.6928 35.8714 16.5679 35.6784C16.5411 35.6391 16.5126 35.6016 16.4804 35.5695C14.2751 32.1239 12.5925 27.8942 11.8503 23.5608C14.4285 30.1984 19.3067 32.2275 23.9494 34.1584C26.9594 35.4105 29.866 36.618 31.8251 39.0972C32.2248 39.6027 32.4318 40.0475 32.4246 40.4369C32.4175 40.7906 32.2123 41.1514 31.7876 41.53C30.3442 42.8161 28.8151 43.4109 27.2735 43.4466C25.8764 43.4788 24.449 43.0537 23.0519 42.2695C21.6191 41.464 20.2203 40.2797 18.9177 38.815C18.2272 38.038 17.5671 37.186 16.9426 36.2697V36.2679ZM23.5479 11.8505C29.3628 12.849 34.9886 15.5462 38.7837 18.9257C40.2468 20.2296 41.4298 21.6282 42.2345 23.0643C43.0196 24.4629 43.4424 25.8918 43.4103 27.2904C43.3746 28.8319 42.7805 30.3645 41.4958 31.8095C41.1175 32.2346 40.7571 32.4401 40.4038 32.4472C40.0149 32.4543 39.5706 32.2471 39.0656 31.847C36.5891 29.884 35.3829 26.9761 34.1322 23.9627C32.2052 19.315 30.1782 14.4316 23.5461 11.8505H23.5479Z" fill="white"/>
<path d="M301.558 169.653C301.349 169.321 300.909 169.221 300.577 169.43C300.245 169.639 300.145 170.08 300.354 170.412C300.62 170.834 300.812 171.377 300.923 171.996C300.306 171.886 299.761 171.691 299.34 171.427C299.008 171.218 298.568 171.318 298.359 171.65C298.15 171.982 298.25 172.423 298.582 172.632C299.24 173.047 300.088 173.329 301.03 173.456C301.007 174.487 300.786 175.592 300.331 176.63C299.79 177.862 298.919 178.999 297.661 179.79C296.669 180.415 295.429 180.831 293.909 180.922C292.501 180.845 291.16 180.638 289.985 180.258C288.007 179.615 286.52 178.47 286.078 176.596C286.015 176.328 285.971 176.046 285.949 175.749C285.873 174.688 286.301 173.577 287.216 172.698C288.067 171.88 289.334 171.259 291.01 171.041C291.399 170.991 291.675 170.635 291.625 170.246C291.609 170.123 291.563 170.012 291.495 169.917C290.093 167.844 289.696 165.891 290.019 164.337C290.194 163.492 290.587 162.765 291.143 162.206C291.7 161.649 292.426 161.256 293.272 161.081C294.828 160.758 296.785 161.156 298.864 162.572C299.189 162.792 299.631 162.708 299.851 162.383C299.915 162.287 299.954 162.181 299.968 162.074C300.186 160.399 300.805 159.129 301.624 158.276C302.502 157.36 303.612 156.931 304.672 157.008C304.968 157.03 305.25 157.073 305.517 157.137C307.389 157.58 308.533 159.07 309.175 161.049C309.555 162.224 309.762 163.567 309.839 164.977C309.748 166.498 309.332 167.74 308.708 168.733C307.916 169.992 306.783 170.864 305.551 171.405C304.515 171.861 303.412 172.082 302.381 172.105C302.254 171.162 301.972 170.314 301.558 169.655V169.653ZM301.637 177.198C302.161 175.999 302.422 174.722 302.454 173.527C303.648 173.495 304.922 173.234 306.121 172.709C307.469 172.116 308.724 171.187 309.661 169.867C309.495 171.312 309.243 172.702 308.954 173.927C308.444 176.085 308.205 177.834 308.16 179.238C306.758 179.283 305.013 179.522 302.855 180.033C301.63 180.322 300.243 180.574 298.8 180.74C300.118 179.802 301.046 178.547 301.639 177.196L301.637 177.198ZM293.861 182.348L293.886 182.349C295.06 182.412 296.266 182.389 297.458 182.303C299.494 182.157 301.485 181.826 303.177 181.426C305.286 180.926 306.923 180.676 308.18 180.601C308.354 183.044 309.27 184.082 310.244 184.313C311.063 184.507 311.909 184.166 312.494 183.58C313.079 182.994 313.418 182.148 313.226 181.328C312.995 180.352 311.957 179.436 309.518 179.261C309.593 178.004 309.843 176.364 310.342 174.253C310.742 172.559 311.072 170.564 311.218 168.528C311.304 167.334 311.327 166.127 311.265 164.952L311.263 164.927C311.181 163.392 310.952 161.917 310.531 160.613C309.741 158.171 308.28 156.322 305.842 155.745C305.505 155.665 305.15 155.611 304.773 155.585C303.303 155.479 301.783 156.054 300.6 157.289C299.774 158.15 299.112 159.334 298.755 160.829C296.655 159.643 294.653 159.339 292.985 159.688C291.859 159.922 290.888 160.449 290.137 161.199C289.388 161.949 288.861 162.922 288.628 164.05C288.282 165.72 288.585 167.726 289.768 169.826C288.274 170.183 287.091 170.846 286.231 171.673C284.998 172.857 284.424 174.379 284.529 175.851C284.556 176.228 284.611 176.584 284.69 176.921C285.266 179.359 287.113 180.822 289.552 181.615C290.854 182.039 292.328 182.266 293.861 182.348ZM255.649 207.494C255.257 207.494 254.939 207.812 254.939 208.205C254.939 208.598 255.257 208.916 255.649 208.916L327.098 208.907C327.596 208.945 328.094 208.97 328.59 208.98C328.709 208.982 328.822 208.955 328.92 208.905H333.381C334.344 208.964 335.359 208.996 336.432 209C336.56 209 336.681 208.966 336.785 208.905H337.29C337.682 208.905 338 208.587 338 208.194L337.8 126.671C337.8 126.278 337.483 125.96 337.09 125.96C336.697 125.96 336.38 126.278 336.38 126.671L336.394 132.255C336.364 132.185 336.332 132.114 336.296 132.044C335.172 129.766 333.316 128.425 331.343 128.027C330.213 127.798 329.052 127.878 327.967 128.266C327.607 128.395 327.255 128.557 326.916 128.755L326.873 115.732C326.873 115.339 326.556 115.021 326.163 115.021C325.771 115.021 325.453 115.339 325.453 115.732L325.499 129.861C325.35 130.013 325.205 130.176 325.064 130.345C323.46 132.305 322.586 135.445 323.335 139.746C323.401 140.134 323.769 140.396 324.158 140.33C324.545 140.264 324.807 139.896 324.741 139.507C324.07 135.659 324.8 132.916 326.163 131.249C326.809 130.461 327.6 129.915 328.449 129.611C329.295 129.309 330.196 129.247 331.066 129.422C332.628 129.738 334.107 130.822 335.022 132.674C335.68 134.009 335.188 135.468 334.251 136.488C333.818 136.961 333.291 137.338 332.742 137.567C332.226 137.781 331.694 137.862 331.209 137.758C330.385 137.581 329.648 136.835 329.295 135.254C329.211 134.87 328.831 134.627 328.447 134.713C328.063 134.797 327.821 135.177 327.906 135.561C328.404 137.788 329.571 138.867 330.915 139.155C331.694 139.321 332.515 139.207 333.288 138.885C334.026 138.578 334.728 138.078 335.299 137.454C335.764 136.947 336.148 136.354 336.403 135.715L336.539 190.986C335.522 187.68 334.025 184.563 332.237 181.933C330.916 179.811 329.637 177.33 328.691 174.888C327.81 172.609 327.219 170.373 327.166 168.517C327.121 167 327.348 165.334 328.044 163.464C328.636 161.874 329.564 160.134 330.952 158.214C332.067 156.81 332.999 155.383 333.625 154.216C333.757 154.011 333.78 153.745 333.664 153.511C332.906 151.989 331.634 149.992 330.09 148.157C328.679 146.48 327.037 144.935 325.346 143.999C323.539 142.999 321.665 142.676 319.913 143.549C319.553 143.729 319.194 143.965 318.841 144.264C317.895 145.062 317.319 146.293 317.328 147.72C317.335 148.938 317.77 150.297 318.771 151.633C319.007 151.948 319.453 152.012 319.767 151.776C320.081 151.541 320.145 151.094 319.909 150.78C319.105 149.706 318.757 148.645 318.751 147.715C318.744 146.723 319.128 145.882 319.758 145.351C320.011 145.137 320.277 144.964 320.552 144.826C321.822 144.192 323.248 144.465 324.663 145.248C326.194 146.094 327.699 147.518 329.006 149.072C330.356 150.678 331.489 152.419 332.223 153.82C331.814 154.549 331.289 155.372 330.677 156.221C330.395 156.58 330.126 156.935 329.873 157.283C329.557 157.682 329.223 158.08 328.877 158.469C327.525 159.991 325.979 161.376 324.431 162.178C322.994 162.922 321.56 163.156 320.309 162.488C320.05 162.351 319.792 162.169 319.533 161.938C318.917 161.39 318.557 160.54 318.589 159.55C318.619 158.619 318.998 157.567 319.831 156.515C320.074 156.206 320.022 155.76 319.713 155.517C319.404 155.274 318.958 155.326 318.716 155.635C317.679 156.944 317.208 158.291 317.167 159.507C317.119 160.936 317.661 162.183 318.584 163.006C318.919 163.305 319.271 163.549 319.638 163.746C321.367 164.669 323.248 164.396 325.082 163.446C325.739 163.106 326.388 162.678 327.021 162.188C326.909 162.451 326.807 162.71 326.711 162.967C325.944 165.028 325.694 166.874 325.744 168.556C325.803 170.589 326.427 172.986 327.364 175.403C327.603 176.019 327.862 176.637 328.137 177.252C327.328 176.557 326.493 175.964 325.644 175.487C324.033 174.581 322.363 174.094 320.698 174.131C318.819 174.174 316.974 174.881 315.263 176.405C314.524 177.062 314.166 177.77 314.152 178.541C314.137 179.277 314.451 180.018 315.058 180.785C317.253 183.561 320.322 184.838 323.503 186.16C329.791 188.773 336.539 191.579 336.578 207.432V207.485H333.466C320.227 206.651 317.62 200.369 315.181 194.49C313.861 191.306 312.585 188.233 309.812 186.036C309.047 185.429 308.306 185.115 307.571 185.129C306.8 185.143 306.094 185.502 305.437 186.242C303.915 187.955 303.209 189.8 303.166 191.683C303.128 193.349 303.615 195.021 304.52 196.634C305.004 197.497 305.607 198.343 306.311 199.163C305.683 198.881 305.052 198.615 304.424 198.372C302.01 197.436 299.615 196.809 297.585 196.75C295.904 196.702 294.061 196.952 292.002 197.718C291.734 197.818 291.465 197.925 291.19 198.043C291.652 197.436 292.057 196.813 292.382 196.186C293.331 194.349 293.604 192.467 292.681 190.736C292.485 190.37 292.241 190.016 291.943 189.68C291.122 188.757 289.875 188.214 288.447 188.262C287.232 188.303 285.887 188.775 284.579 189.812C284.27 190.055 284.219 190.504 284.461 190.811C284.704 191.12 285.152 191.172 285.459 190.929C286.51 190.095 287.561 189.718 288.49 189.686C289.477 189.652 290.328 190.014 290.876 190.63C291.104 190.888 291.286 191.147 291.425 191.407C292.093 192.66 291.859 194.096 291.115 195.534C290.314 197.084 288.931 198.631 287.411 199.985C287.129 200.237 286.842 200.481 286.553 200.717C286.119 201.028 285.678 201.36 285.227 201.716C285.189 201.746 285.154 201.78 285.123 201.816C284.29 202.416 283.482 202.93 282.766 203.334C281.367 202.6 279.628 201.464 278.024 200.114C276.471 198.804 275.049 197.297 274.204 195.766C273.422 194.349 273.149 192.922 273.783 191.65C273.92 191.375 274.093 191.109 274.307 190.855C274.837 190.225 275.677 189.843 276.668 189.848C277.597 189.853 278.657 190.204 279.73 191.007C280.044 191.243 280.49 191.179 280.725 190.864C280.961 190.55 280.896 190.103 280.582 189.868C279.246 188.866 277.888 188.432 276.673 188.423C275.247 188.414 274.016 188.991 273.221 189.937C272.923 190.291 272.687 190.65 272.507 191.011C271.633 192.765 271.957 194.639 272.956 196.45C273.891 198.145 275.435 199.788 277.11 201.2C278.943 202.745 280.937 204.018 282.458 204.777C282.691 204.893 282.957 204.87 283.162 204.738C284.413 204.065 285.966 203.039 287.466 201.812C289.3 200.508 290.967 199.624 292.498 199.052C294.366 198.356 296.031 198.129 297.545 198.174C299.401 198.227 301.633 198.817 303.91 199.701C306.588 200.739 309.309 202.18 311.555 203.636C311.58 203.652 311.607 203.666 311.632 203.681C314.064 205.244 316.873 206.558 319.834 207.489L264.736 207.494C265.354 207.239 265.925 206.864 266.417 206.412C267.04 205.84 267.539 205.138 267.846 204.399C268.168 203.625 268.282 202.802 268.116 202.023C267.83 200.678 266.751 199.512 264.526 199.011C264.142 198.927 263.762 199.169 263.678 199.553C263.594 199.937 263.835 200.317 264.219 200.401C265.798 200.755 266.546 201.492 266.72 202.318C266.824 202.802 266.744 203.334 266.53 203.852C266.301 204.402 265.925 204.927 265.452 205.363C264.431 206.301 262.974 206.794 261.642 206.135C259.792 205.22 258.709 203.74 258.393 202.175C258.217 201.303 258.281 200.401 258.582 199.554C258.886 198.704 259.43 197.913 260.219 197.266C261.882 195.902 264.622 195.171 268.467 195.843C268.854 195.909 269.224 195.648 269.29 195.259C269.356 194.871 269.095 194.501 268.706 194.435C264.408 193.685 261.273 194.558 259.316 196.166C259.146 196.305 258.984 196.452 258.832 196.602L244.719 196.555C244.326 196.555 244.009 196.873 244.009 197.266C244.009 197.659 244.326 197.977 244.719 197.977L257.728 198.02C257.532 198.359 257.369 198.711 257.239 199.072C256.852 200.158 256.771 201.321 257 202.452C257.399 204.427 258.738 206.285 261.013 207.41C261.071 207.439 261.13 207.467 261.191 207.494H255.646H255.649ZM251.276 202.3C251.668 202.3 251.986 201.982 251.986 201.589C251.986 201.196 251.668 200.878 251.276 200.878H237.71C237.318 200.878 237 201.196 237 201.589C237 201.982 237.318 202.3 237.71 202.3H251.276ZM310.569 182.921C310.048 182.798 309.589 182.142 309.505 180.586C311.059 180.67 311.714 181.129 311.837 181.651C311.909 181.957 311.748 182.305 311.486 182.569C311.222 182.834 310.874 182.994 310.569 182.921ZM329.769 122.295C329.769 122.689 330.089 123.009 330.483 123.009C330.877 123.009 331.197 122.689 331.197 122.295V108.714C331.197 108.319 330.877 108 330.483 108C330.089 108 329.769 108.319 329.769 108.714V122.295ZM331.057 182.732C331.182 182.932 331.307 183.128 331.432 183.321C331.459 183.36 331.487 183.398 331.52 183.43C333.725 186.876 335.407 191.106 336.15 195.439C333.571 188.801 328.693 186.772 324.051 184.841C321.041 183.589 318.134 182.382 316.175 179.902C315.775 179.397 315.568 178.952 315.575 178.563C315.583 178.209 315.788 177.848 316.212 177.47C317.656 176.183 319.185 175.589 320.727 175.553C322.124 175.521 323.551 175.946 324.948 176.73C326.381 177.536 327.78 178.72 329.082 180.185C329.773 180.962 330.433 181.814 331.057 182.73V182.732ZM324.452 207.149C318.637 206.151 313.011 203.454 309.216 200.074C307.753 198.77 306.57 197.372 305.766 195.936C304.98 194.537 304.558 193.108 304.59 191.709C304.625 190.168 305.22 188.635 306.504 187.19C306.882 186.765 307.243 186.56 307.596 186.552C307.985 186.545 308.429 186.753 308.934 187.153C311.411 189.116 312.617 192.024 313.868 195.037C315.795 199.685 317.822 204.568 324.454 207.149H324.452Z" fill="white"/>
</svg>
